{"glyphs":{"0":{"ha":1260,"x_min":81,"x_max":1179,"o":"m 790 972 q 969 952 896 972 q 1090 888 1043 932 q 1158 775 1136 844 q 1179 606 1179 706 l 1179 367 q 1158 197 1179 267 q 1090 83 1136 126 q 969 19 1043 39 q 790 0 896 0 l 469 0 q 290 19 364 0 q 170 83 217 39 q 102 197 124 126 q 81 367 81 267 l 81 606 q 102 775 81 706 q 170 888 124 844 q 290 952 217 932 q 469 972 364 972 l 790 972 m 286 375 q 294 283 286 319 q 324 224 303 246 q 380 194 344 203 q 469 185 415 185 l 790 185 q 880 194 844 185 q 936 224 915 203 q 965 283 957 246 q 974 375 974 319 l 974 597 q 965 689 974 653 q 936 747 957 725 q 880 778 915 769 q 790 788 844 788 l 469 788 q 380 778 415 788 q 324 747 344 769 q 294 689 303 725 q 286 597 286 653 l 286 375 z "},"1":{"ha":469,"x_min":32,"x_max":376,"o":"m 249 972 q 347 944 318 972 q 376 854 376 915 l 376 31 q 346 0 376 0 l 203 0 q 172 31 172 0 l 172 758 q 143 788 172 788 l 64 788 q 32 818 32 788 l 32 942 q 64 972 32 972 l 249 972 z "},"2":{"ha":1199,"x_min":76,"x_max":1125,"o":"m 879 972 q 1065 910 1006 972 q 1125 746 1125 847 l 1125 649 q 1064 473 1125 535 q 882 411 1003 411 l 354 411 q 282 332 282 411 l 282 214 q 310 185 282 185 l 1092 185 q 1124 154 1124 185 l 1124 31 q 1092 0 1124 0 l 206 0 q 106 28 135 0 q 76 118 76 57 l 76 332 q 138 509 76 447 q 319 571 199 571 l 847 571 q 919 649 919 571 l 919 708 q 903 766 919 744 q 846 788 886 788 l 143 788 q 113 818 113 788 l 113 942 q 143 972 113 972 l 879 972 z "},"3":{"ha":1171,"x_min":69,"x_max":1090,"o":"m 819 972 q 1023 915 963 972 q 1083 743 1083 858 l 1083 676 q 1001 500 1083 561 q 1090 321 1090 443 l 1090 240 q 1078 140 1090 185 q 1036 65 1065 96 q 960 17 1007 33 q 844 0 913 0 l 100 0 q 69 31 69 0 l 69 154 q 100 185 69 185 l 782 185 q 860 206 836 185 q 885 271 885 226 l 885 322 q 859 388 885 365 q 764 411 833 411 l 108 411 q 76 442 76 411 l 76 540 q 108 571 76 571 l 764 571 q 858 592 833 571 q 883 654 883 614 l 883 703 q 859 767 883 747 q 779 788 835 788 l 100 788 q 69 818 69 788 l 69 942 q 100 972 69 972 l 819 972 z "},"4":{"ha":1257,"x_min":50,"x_max":1219,"o":"m 733 931 q 797 963 768 954 q 872 972 825 972 l 954 972 q 1045 944 1015 972 q 1075 831 1075 915 l 1075 374 l 1189 374 q 1219 342 1219 374 l 1219 229 q 1189 199 1219 199 l 1075 199 l 1075 31 q 1044 0 1075 0 l 901 0 q 869 31 869 0 l 869 199 l 139 199 q 72 222 94 199 q 50 283 50 246 l 50 389 q 61 453 50 428 q 104 501 72 479 l 733 931 m 279 383 q 290 374 279 374 l 869 374 l 869 772 q 858 788 869 788 l 850 788 q 819 776 836 788 l 288 411 q 279 392 279 404 l 279 383 z "},"5":{"ha":1199,"x_min":76,"x_max":1125,"o":"m 1058 972 q 1089 942 1089 972 l 1089 818 q 1058 788 1089 788 l 310 788 q 282 758 282 788 l 282 600 q 310 571 282 571 l 882 571 q 1064 509 1003 571 q 1125 333 1125 447 l 1125 226 q 1065 63 1125 125 q 879 0 1006 0 l 110 0 q 78 31 78 0 l 78 154 q 110 185 78 185 l 846 185 q 903 206 886 185 q 919 264 919 228 l 919 333 q 847 411 919 411 l 206 411 q 106 439 135 411 q 76 529 76 467 l 76 854 q 106 944 76 915 q 206 972 135 972 l 1058 972 z "},"6":{"ha":1206,"x_min":81,"x_max":1128,"o":"m 1060 972 q 1090 942 1090 972 l 1090 818 q 1060 788 1090 788 l 469 788 q 380 778 415 788 q 324 747 344 769 q 294 689 303 725 q 286 597 286 653 l 286 571 l 885 571 q 998 555 951 571 q 1074 509 1044 539 q 1115 435 1103 479 q 1128 336 1128 392 l 1128 235 q 1070 62 1128 124 q 875 0 1013 0 l 469 0 q 290 19 364 0 q 170 83 217 39 q 102 197 124 126 q 81 367 81 267 l 81 606 q 102 775 81 706 q 170 888 124 844 q 290 952 217 932 q 469 972 364 972 l 1060 972 m 286 418 l 286 368 q 294 277 286 314 q 324 219 303 240 q 380 188 344 197 q 469 179 415 179 l 842 179 q 905 199 886 179 q 924 263 924 219 l 924 336 q 906 399 924 379 q 843 418 888 418 l 286 418 z "},"7":{"ha":1151,"x_min":32,"x_max":1103,"o":"m 1014 972 q 1081 949 1058 972 q 1103 888 1103 925 l 1103 792 q 1091 722 1103 747 q 1049 663 1079 696 l 457 26 q 431 6 443 11 q 397 0 419 0 l 203 0 q 182 13 186 0 q 188 38 178 26 l 871 757 q 879 769 876 764 q 882 781 882 774 l 882 788 q 869 797 882 797 l 64 797 q 32 828 32 797 l 32 942 q 64 972 32 972 l 1014 972 z "},"8":{"ha":1256,"x_min":81,"x_max":1175,"o":"m 904 972 q 1108 915 1047 972 q 1168 743 1168 858 l 1168 676 q 1082 497 1168 556 q 1175 321 1175 444 l 1175 240 q 1163 140 1175 185 q 1121 65 1150 96 q 1044 17 1092 33 q 929 0 997 0 l 326 0 q 210 17 257 0 q 135 65 164 33 q 93 140 106 96 q 81 240 81 185 l 81 321 q 174 497 81 444 q 88 676 88 556 l 88 743 q 102 844 88 801 q 148 916 117 888 q 229 958 179 944 q 351 972 279 972 l 904 972 m 288 268 q 311 203 288 224 q 390 183 335 183 l 865 183 q 945 203 921 183 q 969 268 969 224 l 969 329 q 944 394 969 372 q 849 417 918 417 l 407 417 q 313 394 338 417 q 288 329 288 372 l 288 268 m 289 649 q 313 587 289 608 q 407 565 338 565 l 849 565 q 942 587 918 565 q 967 649 967 608 l 967 700 q 943 766 967 743 q 864 789 919 789 l 392 789 q 313 766 336 789 q 289 700 289 743 l 289 649 z "},"9":{"ha":1206,"x_min":76,"x_max":1125,"o":"m 736 972 q 915 952 842 972 q 1035 888 989 932 q 1103 775 1082 844 q 1125 606 1125 706 l 1125 367 q 1103 197 1125 267 q 1035 83 1082 126 q 915 19 989 39 q 736 0 842 0 l 140 0 q 110 31 110 0 l 110 154 q 140 185 110 185 l 736 185 q 826 194 790 185 q 882 224 861 203 q 911 283 903 246 q 919 375 919 319 l 919 406 l 332 406 q 76 631 76 406 l 76 722 q 141 910 76 849 q 342 972 206 972 l 736 972 m 279 647 q 297 581 279 604 q 360 558 315 558 l 919 558 l 919 604 q 911 695 919 658 q 882 753 903 732 q 826 784 861 775 q 736 793 790 793 l 360 793 q 298 773 317 793 q 279 710 279 753 l 279 647 z "},"\u0017":{"ha":465,"x_min":0,"x_max":0,"o":""}," ":{"ha":465,"x_min":0,"x_max":0,"o":""},"!":{"ha":369,"x_min":75,"x_max":294,"o":"m 263 1021 q 294 989 294 1021 l 256 364 q 225 333 254 333 l 144 333 q 114 364 115 333 l 75 989 q 107 1021 75 1021 l 263 1021 m 253 194 q 283 164 283 194 l 283 31 q 253 0 283 0 l 117 0 q 85 31 85 0 l 85 164 q 117 194 85 194 l 253 194 z "},"\"":{"ha":682,"x_min":83,"x_max":599,"o":"m 83 608 m 568 1042 q 594 1004 599 1042 l 563 638 q 554 615 561 621 q 532 608 547 608 l 456 608 q 433 615 440 608 q 425 638 426 621 l 393 1004 q 419 1042 389 1042 l 568 1042 m 263 1042 q 289 1004 293 1042 l 257 638 q 249 615 256 621 q 226 608 242 608 l 150 608 q 128 615 135 608 q 119 638 121 621 l 88 1004 q 114 1042 83 1042 l 263 1042 z "},"#":{"ha":1185,"x_min":82,"x_max":1103,"o":"m 296 747 l 296 947 q 321 972 296 972 l 403 972 q 428 947 428 972 l 428 747 l 758 747 l 758 947 q 783 972 758 972 l 865 972 q 890 947 890 972 l 890 747 l 1078 747 q 1103 722 1103 747 l 1103 639 q 1078 614 1103 614 l 890 614 l 890 358 l 1078 358 q 1103 333 1103 358 l 1103 250 q 1078 225 1103 225 l 890 225 l 890 25 q 865 0 890 0 l 783 0 q 758 25 758 0 l 758 225 l 428 225 l 428 25 q 403 0 428 0 l 321 0 q 296 25 296 0 l 296 225 l 107 225 q 82 250 82 225 l 82 333 q 107 358 82 358 l 296 358 l 296 614 l 107 614 q 82 639 82 614 l 82 722 q 107 747 82 747 l 296 747 m 428 358 l 758 358 l 758 614 l 428 614 l 428 358 z "},"$":{"ha":1133,"x_min":85,"x_max":1064,"o":"m 606 1056 q 631 1031 631 1056 l 631 926 l 1006 926 q 1031 899 1031 926 l 1031 783 q 1006 756 1031 756 l 631 756 l 631 572 l 849 572 q 1013 518 963 572 q 1064 357 1064 464 l 1064 271 q 1053 182 1064 222 q 1017 113 1042 142 q 950 69 992 85 q 847 53 908 53 l 631 53 l 631 -58 q 606 -83 631 -83 l 542 -83 q 517 -58 517 -83 l 517 53 l 111 53 q 85 81 85 53 l 85 196 q 111 224 85 224 l 517 224 l 517 429 l 301 429 q 137 483 189 429 q 85 642 85 536 l 85 710 q 96 797 85 757 q 133 866 107 838 q 199 910 158 894 q 301 926 240 926 l 517 926 l 517 1031 q 542 1056 517 1056 l 606 1056 m 631 429 l 631 224 l 793 224 q 850 244 833 224 q 867 300 867 264 l 867 354 q 793 429 867 429 l 631 429 m 283 643 q 357 572 283 572 l 517 572 l 517 756 l 357 756 q 300 735 317 756 q 283 681 283 715 l 283 643 z "},"%":{"ha":1585,"x_min":82,"x_max":1503,"o":"m 82 0 m 1225 972 q 1239 964 1236 972 q 1235 947 1242 956 l 485 14 q 470 3 478 7 q 447 0 463 0 l 363 0 q 348 8 351 0 q 351 25 344 17 l 1101 958 q 1116 969 1108 965 q 1139 972 1124 972 l 1225 972 m 1289 535 q 1453 489 1404 535 q 1503 333 1503 443 l 1503 201 q 1453 46 1503 92 q 1289 0 1404 0 l 1113 0 q 949 46 997 0 q 900 201 900 92 l 900 333 q 949 489 900 443 q 1113 535 997 535 l 1289 535 m 1022 213 q 1042 132 1022 153 q 1119 111 1063 111 l 1283 111 q 1360 132 1340 111 q 1381 213 1381 153 l 1381 322 q 1360 403 1381 382 q 1283 424 1340 424 l 1119 424 q 1042 403 1063 424 q 1022 322 1022 382 l 1022 213 m 471 972 q 635 926 586 972 q 685 771 685 881 l 685 639 q 635 483 685 529 q 471 438 586 438 l 294 438 q 131 483 179 438 q 82 639 82 529 l 82 771 q 131 926 82 881 q 294 972 179 972 l 471 972 m 204 650 q 224 569 204 590 q 301 549 244 549 l 465 549 q 542 569 522 549 q 563 650 563 590 l 563 760 q 542 840 563 819 q 465 861 522 861 l 301 861 q 224 840 244 861 q 204 760 204 819 l 204 650 z "},"&":{"ha":1214,"x_min":57,"x_max":1196,"o":"m 672 1068 q 784 1027 749 1068 q 819 925 819 986 l 819 814 q 815 744 819 774 q 799 691 811 714 q 767 649 788 668 q 713 613 746 631 l 606 554 l 772 406 l 951 615 q 966 626 958 622 q 990 631 974 631 l 1126 631 q 1151 617 1146 631 q 1144 590 1157 604 l 897 294 l 1186 38 q 1191 14 1196 28 q 1171 0 1186 0 l 996 0 q 972 4 981 0 q 956 17 964 8 l 790 167 l 740 107 q 690 53 713 74 q 640 20 667 32 q 581 4 614 8 q 500 0 547 0 l 239 0 q 106 47 154 0 q 57 199 57 94 l 57 281 q 85 407 57 357 q 185 496 114 457 l 340 581 l 264 650 q 228 688 242 671 q 206 724 214 706 q 194 765 197 743 q 190 814 190 786 l 190 899 q 222 1022 190 976 q 329 1068 254 1068 l 672 1068 m 493 165 q 532 167 515 165 q 561 175 549 169 q 585 190 574 181 q 608 215 596 200 l 665 282 l 456 474 l 319 400 q 256 288 256 369 l 256 249 q 275 184 256 203 q 329 165 294 165 l 493 165 m 383 799 q 390 757 383 771 q 417 724 396 743 l 488 660 l 593 718 q 632 750 624 733 q 640 799 640 767 l 640 851 q 627 891 640 876 q 588 906 614 906 l 431 906 q 383 843 383 906 l 383 799 z "},"'":{"ha":376,"x_min":83,"x_max":293,"o":"m 263 1042 q 289 1004 293 1042 l 257 638 q 249 615 256 621 q 226 608 242 608 l 150 608 q 128 615 135 608 q 119 638 121 621 l 88 1004 q 114 1042 83 1042 l 263 1042 z "},"(":{"ha":629,"x_min":185,"x_max":572,"o":"m 556 1244 q 572 1225 572 1244 l 572 1131 q 556 1111 572 1111 l 522 1111 q 435 1092 474 1111 q 372 1027 397 1074 q 332 902 346 981 q 318 706 318 824 l 318 233 q 332 36 318 114 q 372 -89 346 -42 q 435 -155 397 -136 q 522 -174 474 -174 l 556 -174 q 572 -193 572 -174 l 572 -287 q 556 -306 572 -306 l 522 -306 q 373 -276 436 -306 q 268 -183 310 -247 q 206 -17 226 -119 q 185 233 185 86 l 185 706 q 206 956 185 853 q 268 1122 226 1058 q 373 1215 310 1186 q 522 1244 436 1244 l 556 1244 z "},")":{"ha":629,"x_min":57,"x_max":444,"o":"m 74 -306 q 57 -286 57 -306 l 57 -192 q 74 -172 57 -172 l 107 -172 q 194 -153 156 -172 q 258 -88 232 -135 q 297 36 283 -42 q 311 233 311 114 l 311 706 q 297 902 311 824 q 258 1028 283 981 q 194 1094 232 1075 q 107 1113 156 1113 l 74 1113 q 57 1132 57 1113 l 57 1226 q 74 1244 57 1244 l 107 1244 q 256 1215 193 1244 q 361 1122 319 1186 q 424 956 403 1058 q 444 706 444 853 l 444 233 q 424 -17 444 86 q 361 -183 403 -119 q 256 -276 319 -247 q 107 -306 193 -306 l 74 -306 z "},"*":{"ha":808,"x_min":21,"x_max":789,"o":"m 360 721 l 342 1019 q 357 1042 339 1042 l 451 1042 q 468 1019 468 1042 l 450 722 l 726 831 q 754 821 749 839 l 782 733 q 767 710 789 715 l 479 635 l 668 404 q 668 376 683 388 l 593 324 q 565 331 578 310 l 406 581 l 244 331 q 217 321 232 313 l 143 376 q 142 404 126 386 l 331 633 l 42 708 q 26 733 21 715 l 56 821 q 82 831 60 839 l 360 721 z "},"+":{"ha":851,"x_min":58,"x_max":793,"o":"m 467 853 q 492 828 492 853 l 492 553 l 768 553 q 793 528 793 553 l 793 444 q 768 419 793 419 l 492 419 l 492 143 q 467 118 492 118 l 383 118 q 358 143 358 118 l 358 419 l 83 419 q 58 444 58 419 l 58 528 q 83 553 58 553 l 358 553 l 358 828 q 383 853 358 853 l 467 853 z "},",":{"ha":371,"x_min":86,"x_max":285,"o":"m 254 194 q 285 164 285 194 l 285 46 q 283 15 285 28 q 275 -19 282 3 l 224 -208 q 210 -233 218 -226 q 186 -239 203 -239 l 131 -239 q 104 -208 97 -239 l 142 -1 l 118 -1 q 86 29 86 -1 l 86 164 q 118 194 86 194 l 254 194 z "},"-":{"ha":531,"x_min":31,"x_max":499,"o":"m 474 553 q 499 528 499 553 l 499 428 q 474 403 499 403 l 56 403 q 31 428 31 403 l 31 528 q 56 553 31 553 l 474 553 z "},".":{"ha":371,"x_min":86,"x_max":285,"o":"m 254 194 q 285 164 285 194 l 285 31 q 254 0 285 0 l 118 0 q 86 31 86 0 l 86 164 q 118 194 86 194 l 254 194 z "},"/":{"ha":575,"x_min":0,"x_max":575,"o":"m 549 1132 q 565 1107 575 1132 l 149 -182 q 140 -199 144 -193 q 122 -204 136 -204 l 25 -204 q 8 -179 0 -204 l 425 1108 q 433 1126 429 1121 q 451 1132 438 1132 l 549 1132 z "},":":{"ha":371,"x_min":86,"x_max":285,"o":"m 86 111 m 254 306 q 285 275 285 306 l 285 142 q 254 111 285 111 l 118 111 q 86 142 86 111 l 86 275 q 118 306 86 306 l 254 306 m 254 721 q 285 690 285 721 l 285 557 q 254 526 285 526 l 118 526 q 86 557 86 526 l 86 690 q 118 721 86 721 l 254 721 z "},";":{"ha":371,"x_min":86,"x_max":285,"o":"m 86 0 m 254 306 q 285 275 285 306 l 285 157 q 283 126 285 139 q 275 92 282 114 l 224 -97 q 210 -122 218 -115 q 186 -128 203 -128 l 131 -128 q 104 -97 97 -128 l 142 110 l 118 110 q 86 140 86 110 l 86 275 q 118 306 86 306 l 254 306 m 254 721 q 285 690 285 721 l 285 557 q 254 526 285 526 l 118 526 q 86 557 86 526 l 86 690 q 118 721 86 721 l 254 721 z "},"<":{"ha":851,"x_min":58,"x_max":793,"o":"m 758 844 q 783 843 772 850 q 793 821 793 836 l 793 738 q 774 708 793 714 l 224 507 q 213 492 213 503 l 213 483 q 224 468 213 472 l 774 267 q 793 238 793 261 l 793 154 q 783 133 793 139 q 758 131 772 126 l 119 367 q 72 397 86 379 q 58 446 58 414 l 58 529 q 72 578 58 561 q 119 608 86 596 l 758 844 z "},"=":{"ha":851,"x_min":58,"x_max":793,"o":"m 768 386 q 793 361 793 386 l 793 279 q 768 254 793 254 l 83 254 q 58 279 58 254 l 58 361 q 83 386 58 386 l 768 386 m 768 719 q 793 694 793 719 l 793 611 q 768 586 793 586 l 83 586 q 58 611 58 586 l 58 694 q 83 719 58 719 l 768 719 z "},">":{"ha":851,"x_min":57,"x_max":792,"o":"m 92 131 q 67 132 78 125 q 57 154 57 139 l 57 238 q 76 267 57 261 l 626 468 q 638 483 638 472 l 638 492 q 626 507 638 503 l 76 708 q 57 738 57 714 l 57 821 q 67 842 57 836 q 92 844 78 849 l 731 608 q 778 578 764 596 q 792 529 792 561 l 792 446 q 778 397 792 414 q 731 367 764 379 l 92 131 z "},"?":{"ha":876,"x_min":40,"x_max":831,"o":"m 428 194 q 460 164 460 194 l 460 31 q 428 0 460 0 l 292 0 q 261 31 261 0 l 261 164 q 292 194 261 194 l 428 194 m 642 1021 q 785 973 740 1021 q 831 833 831 925 l 831 775 q 824 702 831 733 q 803 647 818 671 q 763 605 788 624 q 703 569 739 586 l 474 460 q 446 436 453 450 q 436 403 439 422 l 432 368 q 422 340 429 347 q 390 333 414 333 l 329 333 q 299 342 307 333 q 290 368 290 350 l 289 436 q 299 503 289 472 q 350 556 310 535 l 586 678 q 629 751 629 699 l 629 788 q 569 846 629 846 l 71 846 q 40 876 40 846 l 40 990 q 71 1021 40 1021 l 642 1021 z "},"@":{"ha":1215,"x_min":81,"x_max":1133,"o":"m 851 869 q 1133 596 1133 869 l 1133 285 q 1081 96 1133 153 q 914 39 1028 39 l 665 39 q 457 233 457 39 l 457 360 q 661 553 457 553 l 982 553 l 982 590 q 840 728 982 728 l 369 728 q 249 594 249 728 l 249 57 q 442 -147 249 -147 l 1104 -147 q 1126 -168 1126 -147 l 1126 -283 q 1104 -306 1126 -306 l 443 -306 q 81 57 81 -306 l 81 608 q 336 869 81 869 l 851 869 m 868 167 q 954 196 926 167 q 982 290 982 225 l 982 433 l 699 433 q 608 339 608 433 l 608 260 q 699 167 608 167 l 868 167 z "},"A":{"ha":1354,"x_min":18,"x_max":1335,"o":"m 708 972 q 797 951 761 972 q 868 867 833 929 l 1328 32 q 1331 9 1335 18 q 1311 0 1328 0 l 1135 0 q 1103 18 1111 0 l 1004 197 l 351 197 l 256 18 q 224 0 246 0 l 43 0 q 22 9 25 0 q 25 32 18 18 l 481 867 q 549 951 515 929 q 626 972 582 972 l 708 972 m 439 358 l 917 358 l 696 765 q 681 775 690 775 l 672 775 q 657 765 663 775 l 439 358 z "},"B":{"ha":1276,"x_min":92,"x_max":1204,"o":"m 933 972 q 1137 915 1076 972 q 1197 743 1197 858 l 1197 676 q 1108 500 1197 560 q 1204 321 1204 444 l 1204 240 q 1192 140 1204 185 q 1151 65 1179 96 q 1075 17 1122 33 q 958 0 1028 0 l 133 0 q 92 42 92 0 l 92 931 q 133 972 92 972 l 933 972 m 304 417 l 304 210 q 322 192 304 192 l 892 192 q 971 212 947 192 q 994 276 994 232 l 994 329 q 969 394 994 372 q 874 417 943 417 l 304 417 m 304 568 l 874 568 q 968 589 943 568 q 993 650 993 610 l 993 697 q 969 760 993 740 q 890 781 944 781 l 322 781 q 304 763 304 781 l 304 568 z "},"C":{"ha":1183,"x_min":81,"x_max":1126,"o":"m 1096 972 q 1126 942 1126 972 l 1126 806 q 1096 774 1126 774 l 478 774 q 388 765 424 774 q 332 734 353 756 q 302 676 311 713 q 293 585 293 640 l 293 388 q 302 295 293 332 q 332 237 311 258 q 388 206 353 215 q 478 197 424 197 l 1096 197 q 1126 167 1126 197 l 1126 31 q 1096 0 1126 0 l 469 0 q 290 19 364 0 q 170 83 217 39 q 102 197 124 126 q 81 367 81 267 l 81 606 q 102 775 81 706 q 170 888 124 844 q 290 952 217 932 q 469 972 364 972 l 1096 972 z "},"D":{"ha":1290,"x_min":92,"x_max":1208,"o":"m 783 972 q 976 949 896 972 q 1108 878 1057 926 q 1184 756 1160 831 q 1208 581 1208 682 l 1208 392 q 1184 216 1208 290 q 1108 94 1160 142 q 976 23 1057 46 q 783 0 896 0 l 133 0 q 92 42 92 0 l 92 931 q 133 972 92 972 l 783 972 m 304 211 q 322 193 304 193 l 778 193 q 881 204 839 193 q 948 240 922 215 q 985 307 974 265 q 996 410 996 349 l 996 563 q 985 665 996 624 q 948 732 974 707 q 881 768 922 757 q 778 779 839 779 l 322 779 q 304 760 304 779 l 304 211 z "},"E":{"ha":1181,"x_min":81,"x_max":1113,"o":"m 1081 972 q 1113 942 1113 972 l 1113 810 q 1081 779 1113 779 l 474 779 q 384 770 419 779 q 327 740 349 761 q 297 681 306 718 q 289 590 289 644 l 289 576 l 1074 576 q 1104 546 1104 576 l 1104 436 q 1074 406 1104 406 l 289 406 l 289 382 q 297 291 289 328 q 327 233 306 254 q 384 202 349 211 q 474 193 419 193 l 1081 193 q 1113 163 1113 193 l 1113 31 q 1081 0 1113 0 l 469 0 q 290 19 364 0 q 170 83 217 39 q 102 197 124 126 q 81 367 81 267 l 81 606 q 102 775 81 706 q 170 888 124 844 q 290 952 217 932 q 469 972 364 972 l 1081 972 z "},"F":{"ha":1158,"x_min":81,"x_max":1113,"o":"m 1081 972 q 1113 942 1113 972 l 1113 810 q 1081 779 1113 779 l 478 779 q 388 770 424 779 q 332 740 353 761 q 302 681 311 718 q 293 590 293 644 l 293 563 l 1074 563 q 1104 532 1104 563 l 1104 422 q 1074 392 1104 392 l 293 392 l 293 31 q 263 0 293 0 l 113 0 q 81 31 81 0 l 81 606 q 102 775 81 706 q 170 888 124 844 q 290 952 217 932 q 469 972 364 972 l 1081 972 z "},"G":{"ha":1286,"x_min":81,"x_max":1204,"o":"m 1174 972 q 1204 942 1204 972 l 1204 806 q 1174 774 1204 774 l 478 774 q 388 765 424 774 q 332 734 353 756 q 302 676 311 713 q 293 585 293 640 l 293 385 q 302 292 293 329 q 332 234 311 256 q 388 203 353 213 q 478 194 424 194 l 936 194 q 989 213 972 194 q 1006 279 1006 232 l 1006 392 q 989 410 1006 410 l 582 410 q 551 442 551 410 l 551 546 q 582 578 551 578 l 1161 578 q 1203 536 1203 578 l 1203 213 q 1158 48 1203 96 q 1031 0 1114 0 l 469 0 q 290 19 364 0 q 170 83 217 39 q 102 197 124 126 q 81 367 81 267 l 81 606 q 102 775 81 706 q 170 888 124 844 q 290 952 217 932 q 469 972 364 972 l 1174 972 z "},"H":{"ha":1258,"x_min":92,"x_max":1167,"o":"m 274 972 q 304 942 304 972 l 304 581 l 954 581 l 954 942 q 985 972 954 972 l 1135 972 q 1167 942 1167 972 l 1167 31 q 1135 0 1167 0 l 985 0 q 954 31 954 0 l 954 400 l 304 400 l 304 31 q 274 0 304 0 l 124 0 q 92 31 92 0 l 92 942 q 124 972 92 972 l 274 972 z "},"I":{"ha":397,"x_min":92,"x_max":304,"o":"m 274 972 q 304 942 304 972 l 304 31 q 274 0 304 0 l 124 0 q 92 31 92 0 l 92 942 q 124 972 92 972 l 274 972 z "},"J":{"ha":1085,"x_min":32,"x_max":994,"o":"m 964 972 q 994 942 994 972 l 994 367 q 974 197 994 267 q 906 83 953 126 q 785 19 860 39 q 606 0 711 0 l 64 0 q 32 31 32 0 l 32 167 q 64 197 32 197 l 599 197 q 688 206 653 197 q 744 237 724 215 q 774 295 765 258 q 782 388 782 332 l 782 942 q 814 972 782 972 l 964 972 z "},"K":{"ha":1186,"x_min":92,"x_max":1167,"o":"m 274 972 q 304 942 304 972 l 304 572 l 500 572 q 556 574 533 572 q 594 583 578 576 q 625 603 611 590 q 654 635 639 615 l 893 954 q 907 968 900 964 q 933 972 914 972 l 1106 972 q 1127 960 1124 972 q 1124 939 1131 949 l 854 590 q 810 536 831 558 q 771 497 790 514 q 876 397 825 464 l 1161 36 q 1165 15 1167 29 q 1143 0 1164 0 l 965 0 q 940 4 947 0 q 926 18 933 8 l 671 349 q 611 398 643 385 q 515 411 579 411 l 304 411 l 304 31 q 274 0 304 0 l 124 0 q 92 31 92 0 l 92 942 q 124 972 92 972 l 274 972 z "},"L":{"ha":1113,"x_min":89,"x_max":1079,"o":"m 271 972 q 301 942 301 972 l 301 388 q 310 295 301 332 q 340 237 319 258 q 397 206 361 215 q 486 197 432 197 l 1049 197 q 1079 167 1079 197 l 1079 31 q 1049 0 1079 0 l 478 0 q 299 19 372 0 q 178 83 225 39 q 110 197 132 126 q 89 367 89 267 l 89 942 q 121 972 89 972 l 271 972 z "},"M":{"ha":1658,"x_min":92,"x_max":1567,"o":"m 367 972 q 419 968 397 972 q 458 952 442 964 q 488 920 475 940 q 515 867 501 900 l 804 200 q 824 188 810 188 l 840 188 q 860 200 854 188 l 1149 867 q 1176 920 1163 900 q 1206 952 1189 940 q 1244 968 1222 964 q 1296 972 1265 972 l 1444 972 q 1542 940 1517 972 q 1567 828 1567 907 l 1567 31 q 1535 0 1567 0 l 1393 0 q 1363 31 1363 0 l 1363 756 q 1351 769 1363 769 l 1339 769 q 1321 758 1325 769 l 1040 136 q 1006 73 1024 99 q 969 31 989 47 q 923 7 949 14 q 863 0 897 0 l 796 0 q 735 7 761 0 q 690 31 710 14 q 652 73 669 47 q 618 136 635 99 l 338 758 q 319 769 333 769 l 307 769 q 296 756 296 769 l 296 31 q 265 0 296 0 l 124 0 q 92 31 92 0 l 92 828 q 117 940 92 907 q 215 972 142 972 l 367 972 z "},"N":{"ha":1358,"x_min":92,"x_max":1265,"o":"m 339 972 q 394 969 372 972 q 433 958 417 967 q 465 933 450 949 q 500 890 481 917 l 1017 213 q 1035 203 1022 203 l 1047 203 q 1058 217 1058 203 l 1058 942 q 1089 972 1058 972 l 1235 972 q 1265 942 1265 972 l 1265 144 q 1235 30 1265 60 q 1140 0 1204 0 l 1021 0 q 967 3 989 0 q 929 14 946 6 q 897 38 913 22 q 860 82 881 54 l 342 760 q 324 769 333 769 l 311 769 q 300 756 300 769 l 300 31 q 269 0 300 0 l 124 0 q 92 31 92 0 l 92 828 q 122 942 92 913 q 217 972 153 972 l 339 972 z "},"O":{"ha":1368,"x_min":81,"x_max":1288,"o":"m 899 972 q 1078 952 1004 972 q 1199 888 1153 932 q 1267 775 1246 844 q 1288 606 1288 706 l 1288 367 q 1267 197 1288 267 q 1199 83 1246 126 q 1078 19 1153 39 q 899 0 1004 0 l 469 0 q 290 19 364 0 q 170 83 217 39 q 102 197 124 126 q 81 367 81 267 l 81 606 q 102 775 81 706 q 170 888 124 844 q 290 952 217 932 q 469 972 364 972 l 899 972 m 293 382 q 302 291 293 328 q 332 233 311 254 q 388 202 353 211 q 478 193 424 193 l 890 193 q 980 202 944 193 q 1036 233 1015 211 q 1066 291 1057 254 q 1075 382 1075 328 l 1075 590 q 1066 681 1075 644 q 1036 740 1057 718 q 980 770 1015 761 q 890 779 944 779 l 478 779 q 388 770 424 779 q 332 740 353 761 q 302 681 311 718 q 293 590 293 644 l 293 382 z "},"P":{"ha":1224,"x_min":92,"x_max":1178,"o":"m 879 972 q 1108 900 1039 972 q 1178 686 1178 828 l 1178 583 q 1108 369 1178 442 q 879 297 1039 297 l 304 297 l 304 31 q 274 0 304 0 l 124 0 q 92 31 92 0 l 92 931 q 133 972 92 972 l 879 972 m 304 481 l 836 481 q 936 511 907 481 q 965 604 965 542 l 965 657 q 936 750 965 719 q 836 781 907 781 l 322 781 q 304 764 304 781 l 304 481 z "},"Q":{"ha":1368,"x_min":81,"x_max":1288,"o":"m 899 972 q 1078 952 1004 972 q 1199 888 1153 932 q 1267 775 1246 844 q 1288 606 1288 706 l 1288 390 q 1224 135 1288 221 q 1014 31 1161 50 l 1174 -190 q 1177 -211 1179 -197 q 1156 -225 1175 -225 l 978 -225 q 953 -221 960 -225 q 939 -208 946 -217 l 779 24 l 469 24 q 290 43 364 24 q 170 106 217 63 q 102 220 124 150 q 81 390 81 290 l 81 606 q 102 775 81 706 q 170 888 124 844 q 290 952 217 932 q 469 972 364 972 l 899 972 m 293 406 q 302 315 293 351 q 332 256 311 278 q 388 226 353 235 q 478 217 424 217 l 890 217 q 980 226 944 217 q 1036 256 1015 235 q 1066 315 1057 278 q 1075 406 1075 351 l 1075 590 q 1066 681 1075 644 q 1036 740 1057 718 q 980 770 1015 761 q 890 779 944 779 l 478 779 q 388 770 424 779 q 332 740 353 761 q 302 681 311 718 q 293 590 293 644 l 293 406 z "},"R":{"ha":1257,"x_min":92,"x_max":1215,"o":"m 879 972 q 1108 900 1039 972 q 1178 686 1178 828 l 1178 607 q 1129 418 1178 488 q 971 329 1081 349 l 1208 35 q 1213 14 1215 28 q 1190 0 1210 0 l 1011 0 q 986 4 993 0 q 972 18 979 8 l 753 307 l 304 307 l 304 31 q 274 0 304 0 l 124 0 q 92 31 92 0 l 92 931 q 133 972 92 972 l 879 972 m 304 476 l 836 476 q 936 507 907 476 q 965 600 965 538 l 965 658 q 936 751 965 721 q 836 782 907 782 l 322 782 q 304 765 304 782 l 304 476 z "},"S":{"ha":1190,"x_min":75,"x_max":1124,"o":"m 1057 972 q 1088 942 1088 972 l 1088 810 q 1057 779 1088 779 l 361 779 q 304 758 321 779 q 288 701 288 738 l 288 654 q 360 576 288 576 l 881 576 q 1063 515 1001 576 q 1124 338 1124 453 l 1124 226 q 1064 63 1124 125 q 878 0 1004 0 l 108 0 q 76 31 76 0 l 76 163 q 108 193 76 193 l 838 193 q 894 214 878 193 q 911 271 911 235 l 911 328 q 839 406 911 406 l 318 406 q 136 467 197 406 q 75 644 75 529 l 75 746 q 135 910 75 847 q 321 972 194 972 l 1057 972 z "},"T":{"ha":1213,"x_min":32,"x_max":1181,"o":"m 1149 972 q 1181 942 1181 972 l 1181 806 q 1149 774 1181 774 l 713 774 l 713 31 q 682 0 713 0 l 531 0 q 500 31 500 0 l 500 774 l 64 774 q 32 806 32 774 l 32 942 q 64 972 32 972 l 1149 972 z "},"U":{"ha":1357,"x_min":89,"x_max":1267,"o":"m 271 972 q 301 942 301 972 l 301 388 q 310 295 301 332 q 340 237 319 258 q 397 206 361 215 q 486 197 432 197 l 871 197 q 960 206 925 197 q 1017 237 996 215 q 1046 295 1038 258 q 1054 388 1054 332 l 1054 942 q 1085 972 1054 972 l 1236 972 q 1267 942 1267 972 l 1267 367 q 1246 197 1267 267 q 1178 83 1225 126 q 1058 19 1132 39 q 878 0 983 0 l 478 0 q 299 19 372 0 q 178 83 225 39 q 110 197 132 126 q 89 367 89 267 l 89 942 q 121 972 89 972 l 271 972 z "},"V":{"ha":1354,"x_min":18,"x_max":1335,"o":"m 218 972 q 238 968 232 972 q 250 954 244 964 l 657 207 q 674 197 661 197 l 681 197 q 696 207 690 197 l 1097 954 q 1129 972 1106 972 l 1311 972 q 1331 963 1328 972 q 1328 940 1335 954 l 872 106 q 804 21 838 42 q 726 0 771 0 l 646 0 q 556 21 592 0 q 486 106 521 42 l 25 940 q 22 963 18 954 q 43 972 25 972 l 218 972 z "},"W":{"ha":1810,"x_min":26,"x_max":1782,"o":"m 228 972 q 247 954 242 972 l 472 207 q 483 197 474 197 l 490 197 q 501 207 499 197 l 726 892 q 767 956 742 939 q 829 972 792 972 l 967 972 q 1037 954 1013 972 q 1076 892 1061 936 l 1307 207 q 1318 197 1310 197 l 1326 197 q 1338 207 1335 197 l 1557 954 q 1566 969 1560 965 q 1579 972 1572 972 l 1767 972 q 1780 963 1778 972 q 1778 940 1782 953 l 1511 106 q 1468 22 1492 43 q 1404 0 1444 0 l 1242 0 q 1178 22 1201 0 q 1135 106 1156 44 l 917 765 q 906 775 915 775 l 900 775 q 889 765 890 775 l 668 106 q 624 22 647 44 q 561 0 601 0 l 403 0 q 362 4 379 0 q 331 20 344 8 q 306 53 317 32 q 286 106 296 74 l 31 940 q 28 963 26 954 q 42 972 31 972 l 228 972 z "},"X":{"ha":1238,"x_min":22,"x_max":1217,"o":"m 1174 972 q 1195 959 1193 972 q 1188 936 1197 946 l 761 504 l 1207 36 q 1215 13 1217 26 q 1193 0 1213 0 l 1003 0 q 976 4 986 0 q 958 19 967 8 l 615 379 l 271 19 q 252 4 261 8 q 225 0 243 0 l 44 0 q 24 13 26 0 q 32 36 22 26 l 489 511 l 76 936 q 69 959 68 946 q 90 972 71 972 l 281 972 q 307 967 297 972 q 325 953 317 963 l 628 631 l 949 953 q 967 967 957 963 q 993 972 976 972 l 1174 972 z "},"Y":{"ha":1244,"x_min":14,"x_max":1232,"o":"m 219 972 q 253 956 242 972 l 624 454 l 997 956 q 1031 972 1008 972 l 1213 972 q 1228 963 1224 972 q 1225 944 1232 954 l 726 297 l 726 31 q 696 0 726 0 l 546 0 q 514 31 514 0 l 514 297 l 21 944 q 17 963 14 954 q 33 972 21 972 l 219 972 z "},"Z":{"ha":1186,"x_min":67,"x_max":1115,"o":"m 1006 972 q 1115 867 1115 972 l 1115 740 q 1112 698 1115 715 q 1101 667 1108 681 q 1080 644 1093 654 q 1046 624 1067 635 l 311 236 q 299 215 299 229 l 299 206 q 313 193 299 193 l 1075 193 q 1107 163 1107 193 l 1107 31 q 1075 0 1107 0 l 176 0 q 92 26 118 0 q 67 104 67 51 l 67 231 q 69 273 67 256 q 79 303 72 290 q 99 326 86 317 q 132 347 111 336 l 864 736 q 876 757 876 743 l 876 767 q 863 779 876 779 l 107 779 q 75 810 75 779 l 75 942 q 107 972 75 972 l 1006 972 z "},"[":{"ha":629,"x_min":192,"x_max":572,"o":"m 556 1244 q 572 1225 572 1244 l 572 1131 q 556 1111 572 1111 l 357 1111 q 324 1074 324 1111 l 324 -136 q 357 -174 324 -174 l 556 -174 q 572 -193 572 -174 l 572 -287 q 556 -307 572 -307 l 304 -307 q 219 -276 246 -307 q 192 -181 192 -246 l 192 1118 q 219 1214 192 1183 q 304 1244 246 1244 l 556 1244 z "},"\\":{"ha":575,"x_min":-1,"x_max":574,"o":"m 122 1132 q 140 1126 136 1132 q 149 1108 144 1121 l 565 -179 q 549 -204 574 -204 l 451 -204 q 433 -199 438 -204 q 425 -182 429 -193 l 8 1107 q 25 1132 -1 1132 l 122 1132 z "},"]":{"ha":629,"x_min":57,"x_max":438,"o":"m 74 -307 q 57 -287 57 -307 l 57 -193 q 74 -174 57 -174 l 272 -174 q 306 -136 306 -174 l 306 1074 q 272 1111 306 1111 l 74 1111 q 57 1131 57 1111 l 57 1225 q 74 1244 57 1244 l 325 1244 q 410 1214 383 1244 q 438 1118 438 1183 l 438 -181 q 410 -276 438 -246 q 325 -307 383 -307 l 74 -307 z "},"^":{"ha":851,"x_min":63,"x_max":788,"o":"m 467 972 q 515 959 497 972 q 546 910 533 946 l 782 257 q 781 232 788 242 q 758 222 774 222 l 676 222 q 646 240 651 222 l 444 807 q 429 817 442 817 l 421 817 q 406 807 408 817 l 204 240 q 175 222 199 222 l 92 222 q 69 232 76 222 q 68 257 63 242 l 304 910 q 335 959 317 946 q 383 972 354 972 l 467 972 z "},"_":{"ha":892,"x_min":8,"x_max":885,"o":"m 860 -100 q 885 -125 885 -100 l 885 -208 q 860 -233 885 -233 l 33 -233 q 8 -208 8 -233 l 8 -125 q 33 -100 8 -100 l 860 -100 z "},"`":{"ha":546,"x_min":110,"x_max":438,"o":"m 261 1133 q 304 1101 289 1133 l 431 844 q 431 821 438 829 q 408 813 425 813 l 304 813 q 278 821 288 813 q 261 844 269 829 l 118 1101 q 117 1125 110 1117 q 139 1133 124 1133 l 261 1133 z "},"a":{"ha":1096,"x_min":57,"x_max":1035,"o":"m 704 763 q 861 747 797 763 q 963 697 925 731 q 1018 609 1001 663 q 1035 481 1035 556 l 1035 111 q 1030 56 1035 78 q 1013 22 1025 35 q 982 5 1001 10 q 932 0 963 0 l 271 0 q 169 12 210 0 q 103 47 128 24 q 67 108 78 71 q 57 197 57 146 l 57 264 q 67 341 57 307 q 103 399 78 375 q 169 434 128 422 q 271 446 210 446 l 836 446 l 836 472 q 829 529 836 506 q 806 567 822 553 q 760 589 789 582 q 685 596 731 596 l 104 596 q 79 621 79 596 l 79 738 q 104 763 79 763 l 704 763 m 796 153 q 827 163 818 153 q 836 200 836 174 l 836 322 l 328 322 q 267 305 285 322 q 250 254 250 288 l 250 225 q 267 170 250 188 q 328 153 285 153 l 796 153 z "},"b":{"ha":1210,"x_min":83,"x_max":1133,"o":"m 251 1042 q 282 1011 282 1042 l 282 763 l 803 763 q 960 747 896 763 q 1062 697 1024 731 q 1117 609 1100 663 q 1133 481 1133 556 l 1133 281 q 1117 152 1133 206 q 1062 65 1100 99 q 960 15 1024 31 q 803 0 896 0 l 414 0 q 256 15 319 0 q 155 65 193 31 q 100 152 117 99 q 83 281 83 206 l 83 1011 q 115 1042 83 1042 l 251 1042 m 282 596 l 282 319 q 289 246 282 275 q 313 199 296 217 q 360 174 331 182 q 433 167 389 167 l 783 167 q 858 174 829 167 q 905 199 888 182 q 929 246 922 217 q 936 319 936 275 l 936 443 q 929 516 936 486 q 905 563 922 546 q 858 588 888 581 q 783 596 829 596 l 282 596 z "},"c":{"ha":1013,"x_min":54,"x_max":968,"o":"m 943 763 q 968 738 968 763 l 968 621 q 943 596 968 596 l 404 596 q 329 588 358 596 q 283 563 300 581 q 260 516 267 546 q 253 443 253 486 l 253 319 q 260 246 253 275 q 283 199 267 217 q 329 174 300 182 q 404 167 358 167 l 943 167 q 968 142 968 167 l 968 25 q 943 0 968 0 l 385 0 q 227 15 290 0 q 126 65 164 31 q 71 152 88 99 q 54 281 54 206 l 54 481 q 71 609 54 556 q 126 697 88 663 q 227 747 164 731 q 385 763 290 763 l 943 763 z "},"d":{"ha":1210,"x_min":75,"x_max":1125,"o":"m 928 763 l 928 1011 q 958 1042 928 1042 l 1094 1042 q 1125 1011 1125 1042 l 1125 281 q 1108 152 1125 206 q 1053 65 1092 99 q 951 15 1015 31 q 794 0 888 0 l 406 0 q 248 15 311 0 q 147 65 185 31 q 92 152 108 99 q 75 281 75 206 l 75 481 q 92 609 75 556 q 147 697 108 663 q 248 747 185 731 q 406 763 311 763 l 928 763 m 775 167 q 850 174 821 167 q 897 199 879 182 q 921 246 914 217 q 928 319 928 275 l 928 596 l 425 596 q 351 588 381 596 q 305 563 322 581 q 281 516 288 546 q 274 443 274 486 l 274 319 q 281 246 274 275 q 305 199 288 217 q 351 174 322 182 q 425 167 381 167 l 775 167 z "},"e":{"ha":1096,"x_min":57,"x_max":1035,"o":"m 794 763 q 912 751 865 763 q 985 712 958 739 q 1024 641 1013 685 q 1035 535 1035 597 l 1035 403 q 1015 341 1035 358 q 956 324 996 324 l 254 324 l 254 290 q 285 196 254 225 q 407 167 317 167 l 986 167 q 1011 142 1011 167 l 1011 25 q 986 0 1011 0 l 388 0 q 230 15 293 0 q 128 65 167 31 q 74 152 90 99 q 57 281 57 206 l 57 481 q 74 609 57 556 q 128 697 90 663 q 230 747 167 731 q 388 763 293 763 l 794 763 m 254 447 l 817 447 q 840 471 840 447 l 840 529 q 822 590 840 572 q 756 608 804 608 l 407 608 q 285 580 317 608 q 254 485 254 551 l 254 447 z "},"f":{"ha":681,"x_min":24,"x_max":656,"o":"m 182 763 l 182 792 q 194 917 182 865 q 239 1003 207 969 q 325 1052 271 1036 q 463 1068 379 1068 l 631 1068 q 656 1043 656 1068 l 656 929 q 631 904 656 904 l 496 904 q 403 877 428 904 q 379 792 379 850 l 379 763 l 622 763 q 647 738 647 763 l 647 624 q 622 599 647 599 l 379 599 l 379 31 q 349 0 379 0 l 213 0 q 182 31 182 0 l 182 599 l 49 599 q 24 624 24 599 l 24 738 q 49 763 24 763 l 182 763 z "},"g":{"ha":1210,"x_min":75,"x_max":1125,"o":"m 794 763 q 952 747 889 763 q 1054 697 1015 731 q 1109 610 1093 664 q 1125 482 1125 557 l 1125 -24 q 1109 -153 1125 -100 q 1054 -241 1093 -207 q 952 -291 1015 -275 q 794 -307 889 -307 l 140 -307 q 115 -282 115 -307 l 115 -165 q 140 -140 115 -140 l 775 -140 q 850 -133 821 -140 q 897 -108 879 -125 q 921 -60 914 -90 q 928 14 928 -31 l 928 50 l 406 50 q 248 66 311 50 q 147 116 185 82 q 92 203 108 150 q 75 333 75 257 l 75 479 q 92 609 75 556 q 147 697 108 663 q 248 747 185 731 q 406 763 311 763 l 794 763 m 274 335 q 281 274 274 299 q 305 234 288 250 q 351 211 322 218 q 425 204 381 204 l 928 204 l 928 464 q 897 568 928 538 q 775 599 865 599 l 425 599 q 351 592 381 599 q 305 569 322 585 q 281 528 288 553 q 274 468 274 503 l 274 335 z "},"h":{"ha":1221,"x_min":89,"x_max":1136,"o":"m 256 1042 q 286 1011 286 1042 l 286 763 l 806 763 q 963 747 899 763 q 1065 697 1026 731 q 1119 609 1103 663 q 1136 481 1136 556 l 1136 31 q 1106 0 1136 0 l 969 0 q 939 31 939 0 l 939 433 q 933 506 939 476 q 912 553 928 536 q 868 578 896 571 q 796 586 840 586 l 286 586 l 286 31 q 256 0 286 0 l 119 0 q 89 31 89 0 l 89 1011 q 119 1042 89 1042 l 256 1042 z "},"i":{"ha":375,"x_min":88,"x_max":286,"o":"m 88 0 m 256 763 q 286 731 286 763 l 286 31 q 256 0 286 0 l 119 0 q 89 31 89 0 l 89 731 q 119 763 89 763 l 256 763 m 256 1044 q 286 1014 286 1044 l 286 882 q 256 850 286 850 l 119 850 q 88 882 88 850 l 88 1014 q 119 1044 88 1044 l 256 1044 z "},"j":{"ha":392,"x_min":-146,"x_max":306,"o":"m 0 0 m 275 763 q 306 731 306 763 l 306 -28 q 290 -156 306 -103 q 238 -242 275 -208 q 140 -292 201 -276 q -11 -307 79 -307 l -121 -307 q -146 -282 -146 -307 l -146 -165 q -121 -140 -146 -140 l -31 -140 q 38 -133 11 -140 q 80 -108 64 -125 q 101 -61 96 -90 q 107 11 107 -32 l 107 731 q 139 763 107 763 l 275 763 m 275 1044 q 306 1014 306 1044 l 306 882 q 275 850 306 850 l 139 850 q 107 882 107 850 l 107 1014 q 139 1044 107 1044 l 275 1044 z "},"k":{"ha":1103,"x_min":86,"x_max":1085,"o":"m 254 1042 q 285 1011 285 1042 l 285 461 l 540 461 q 590 463 569 461 q 625 472 610 465 q 652 489 640 478 q 678 519 664 500 l 833 739 q 851 757 842 751 q 875 763 860 763 l 1032 763 q 1051 751 1047 763 q 1046 725 1056 739 l 867 479 q 781 390 825 422 q 879 301 838 358 l 1076 35 q 1080 12 1085 24 q 1060 0 1075 0 l 904 0 q 878 4 886 0 q 861 19 869 8 l 692 253 q 638 299 667 286 q 553 311 610 311 l 285 311 l 285 31 q 254 0 285 0 l 118 0 q 86 31 86 0 l 86 1011 q 118 1042 86 1042 l 254 1042 z "},"l":{"ha":375,"x_min":89,"x_max":286,"o":"m 256 1042 q 286 1011 286 1042 l 286 31 q 256 0 286 0 l 119 0 q 89 31 89 0 l 89 1011 q 119 1042 89 1042 l 256 1042 z "},"m":{"ha":1538,"x_min":83,"x_max":1453,"o":"m 1124 763 q 1280 747 1217 763 q 1382 697 1343 731 q 1437 609 1421 663 q 1453 481 1453 556 l 1453 31 q 1422 0 1453 0 l 1286 0 q 1256 31 1256 0 l 1256 433 q 1250 506 1256 476 q 1229 553 1244 536 q 1186 578 1214 571 q 1113 586 1158 586 l 868 586 l 868 31 q 836 0 868 0 l 700 0 q 669 31 669 0 l 669 586 l 433 586 q 360 578 389 586 q 313 553 331 571 q 289 506 296 536 q 282 433 282 476 l 282 31 q 251 0 282 0 l 115 0 q 83 31 83 0 l 83 481 q 100 609 83 556 q 155 697 117 663 q 256 747 193 731 q 414 763 319 763 l 1124 763 z "},"n":{"ha":1228,"x_min":83,"x_max":1143,"o":"m 813 763 q 969 747 906 763 q 1072 697 1033 731 q 1126 609 1110 663 q 1143 481 1143 556 l 1143 31 q 1113 0 1143 0 l 976 0 q 946 31 946 0 l 946 433 q 940 506 946 476 q 919 553 935 536 q 875 578 903 571 q 803 586 847 586 l 433 586 q 360 578 389 586 q 313 553 331 571 q 289 506 296 536 q 282 433 282 476 l 282 31 q 251 0 282 0 l 115 0 q 83 31 83 0 l 83 481 q 100 609 83 556 q 155 697 117 663 q 256 747 193 731 q 414 763 319 763 l 813 763 z "},"o":{"ha":1206,"x_min":75,"x_max":1129,"o":"m 799 763 q 956 747 892 763 q 1058 697 1019 731 q 1113 609 1096 663 q 1129 481 1129 556 l 1129 281 q 1113 152 1129 206 q 1058 65 1096 99 q 956 15 1019 31 q 799 0 892 0 l 406 0 q 248 15 311 0 q 147 65 185 31 q 92 152 108 99 q 75 281 75 206 l 75 481 q 92 609 75 556 q 147 697 108 663 q 248 747 185 731 q 406 763 311 763 l 799 763 m 274 315 q 281 242 274 271 q 305 195 288 213 q 351 170 322 178 q 425 163 381 163 l 779 163 q 854 170 825 163 q 901 195 883 178 q 925 242 918 213 q 932 315 932 271 l 932 447 q 925 519 932 490 q 901 567 918 549 q 854 592 883 585 q 779 599 825 599 l 425 599 q 351 592 381 599 q 305 567 322 585 q 281 519 288 549 q 274 447 274 490 l 274 315 z "},"p":{"ha":1210,"x_min":83,"x_max":1133,"o":"m 803 763 q 960 747 896 763 q 1062 697 1024 731 q 1117 609 1100 663 q 1133 481 1133 556 l 1133 281 q 1117 152 1133 206 q 1062 65 1100 99 q 960 15 1024 31 q 803 0 896 0 l 282 0 l 282 -276 q 251 -307 282 -307 l 115 -307 q 83 -276 83 -307 l 83 481 q 100 609 83 556 q 155 697 117 663 q 256 747 193 731 q 414 763 319 763 l 803 763 m 282 167 l 783 167 q 858 174 829 167 q 905 199 888 181 q 929 246 922 217 q 936 319 936 275 l 936 443 q 929 516 936 486 q 905 563 922 546 q 858 588 888 581 q 783 596 829 596 l 433 596 q 360 588 389 596 q 313 563 331 581 q 289 516 296 546 q 282 443 282 486 l 282 167 z "},"q":{"ha":1210,"x_min":75,"x_max":1125,"o":"m 794 763 q 951 747 888 763 q 1053 697 1015 731 q 1108 609 1092 663 q 1125 481 1125 556 l 1125 -276 q 1094 -307 1125 -307 l 958 -307 q 928 -276 928 -307 l 928 0 l 406 0 q 248 15 311 0 q 147 65 185 31 q 92 152 108 99 q 75 281 75 206 l 75 481 q 92 609 75 556 q 147 697 108 663 q 248 747 185 731 q 406 763 311 763 l 794 763 m 274 319 q 281 246 274 275 q 305 199 288 217 q 351 174 322 181 q 425 167 381 167 l 928 167 l 928 443 q 921 516 928 486 q 897 563 914 546 q 850 588 879 581 q 775 596 821 596 l 425 596 q 351 588 381 596 q 305 563 322 581 q 281 516 288 546 q 274 443 274 486 l 274 319 z "},"r":{"ha":851,"x_min":83,"x_max":828,"o":"m 803 763 q 828 738 828 763 l 828 621 q 803 596 828 596 l 433 596 q 360 588 389 596 q 313 563 331 581 q 289 516 296 546 q 282 443 282 486 l 282 31 q 251 0 282 0 l 115 0 q 83 31 83 0 l 83 481 q 100 609 83 556 q 155 697 117 663 q 256 747 193 731 q 414 763 319 763 l 803 763 z "},"s":{"ha":1088,"x_min":71,"x_max":1025,"o":"m 967 763 q 992 738 992 763 l 992 626 q 967 601 992 601 l 340 601 q 281 585 297 601 q 264 539 264 569 l 264 518 q 281 474 264 490 q 340 458 297 458 l 808 458 q 975 410 925 458 q 1025 272 1025 361 l 1025 194 q 1014 113 1025 149 q 977 51 1003 76 q 910 13 951 26 q 807 0 868 0 l 96 0 q 71 25 71 0 l 71 136 q 96 161 71 161 l 754 161 q 815 176 797 161 q 832 228 832 192 l 832 265 q 815 308 832 293 q 754 324 797 324 l 288 324 q 121 372 171 324 q 71 511 71 419 l 71 572 q 82 651 71 615 q 119 711 93 686 q 186 749 144 736 q 289 763 228 763 l 967 763 z "},"t":{"ha":681,"x_min":24,"x_max":656,"o":"m 181 763 l 181 946 q 211 976 181 976 l 349 976 q 379 946 379 976 l 379 763 l 622 763 q 647 738 647 763 l 647 624 q 622 599 647 599 l 379 599 l 379 276 q 403 191 379 218 q 496 164 426 164 l 631 164 q 656 139 656 164 l 656 25 q 631 0 656 0 l 463 0 q 325 15 379 0 q 238 64 271 31 q 193 150 206 97 q 181 276 181 203 l 181 599 l 49 599 q 24 624 24 599 l 24 738 q 49 763 24 763 l 181 763 z "},"u":{"ha":1217,"x_min":83,"x_max":1132,"o":"m 251 763 q 282 731 282 763 l 282 329 q 288 256 282 285 q 308 209 293 226 q 351 184 324 192 q 425 176 379 176 l 782 176 q 857 184 828 176 q 903 209 886 192 q 928 256 921 226 q 935 329 935 285 l 935 731 q 965 763 935 763 l 1101 763 q 1132 731 1132 763 l 1132 281 q 1115 152 1132 206 q 1060 65 1099 99 q 958 15 1022 31 q 801 0 894 0 l 414 0 q 256 15 319 0 q 155 65 193 31 q 100 152 117 99 q 83 281 83 206 l 83 731 q 115 763 83 763 l 251 763 z "},"v":{"ha":1153,"x_min":17,"x_max":1138,"o":"m 201 763 q 235 743 225 763 l 561 169 q 576 161 567 161 l 582 161 q 597 169 592 161 l 925 743 q 938 758 931 753 q 958 763 944 763 l 1113 763 q 1133 752 1128 763 q 1131 728 1138 742 l 750 63 q 706 14 731 28 q 633 0 681 0 l 519 0 q 449 14 474 0 q 404 63 424 28 l 24 728 q 22 752 17 742 q 42 763 26 763 l 201 763 z "},"w":{"ha":1618,"x_min":21,"x_max":1597,"o":"m 206 763 q 238 740 231 763 l 417 169 q 431 160 421 160 l 436 160 q 450 169 449 160 l 638 696 q 670 748 651 733 q 726 763 689 763 l 892 763 q 948 748 929 763 q 981 696 967 733 l 1167 169 q 1181 160 1168 160 l 1186 160 q 1200 169 1196 160 l 1381 740 q 1413 763 1385 763 l 1569 763 q 1592 753 1588 763 q 1593 729 1597 744 l 1382 86 q 1342 17 1365 33 q 1275 0 1319 0 l 1100 0 q 1044 19 1064 0 q 1007 86 1025 38 l 824 593 q 811 601 821 601 l 803 601 q 790 593 792 601 l 608 86 q 571 19 590 38 q 515 0 551 0 l 340 0 q 273 17 296 0 q 233 86 250 33 l 25 729 q 25 753 21 744 q 49 763 29 763 l 206 763 z "},"x":{"ha":1099,"x_min":18,"x_max":1079,"o":"m 253 763 q 276 758 268 763 q 293 746 285 754 l 567 496 l 847 746 q 863 758 854 754 q 886 763 871 763 l 1043 763 q 1066 749 1063 763 q 1058 725 1069 736 l 688 385 l 1069 36 q 1076 13 1079 25 q 1054 0 1074 0 l 878 0 q 853 4 863 0 q 838 15 844 8 l 543 285 l 240 15 q 225 4 233 8 q 201 0 217 0 l 44 0 q 22 13 25 0 q 29 36 18 25 l 421 396 l 63 725 q 54 749 51 736 q 76 763 57 763 l 253 763 z "},"y":{"ha":1122,"x_min":17,"x_max":1117,"o":"m 1092 763 q 1112 752 1107 763 q 1110 728 1117 742 l 576 -212 q 498 -284 549 -261 q 357 -307 447 -307 l 260 -307 q 235 -282 235 -307 l 235 -168 q 260 -143 235 -143 l 342 -143 q 413 -111 394 -143 l 488 21 q 434 38 453 24 q 399 81 415 51 l 24 728 q 22 752 17 742 q 42 763 26 763 l 201 763 q 235 743 225 763 l 543 208 q 560 183 554 189 q 576 176 567 176 l 903 743 q 936 763 913 763 l 1092 763 z "},"z":{"ha":1018,"x_min":61,"x_max":957,"o":"m 861 763 q 934 741 911 763 q 957 675 957 719 l 957 572 q 954 535 957 550 q 944 510 951 521 q 925 490 938 499 q 894 474 913 482 l 278 203 q 269 195 271 200 q 267 183 267 190 l 267 174 q 279 164 267 164 l 925 164 q 950 139 950 164 l 950 25 q 925 0 950 0 l 157 0 q 84 21 107 0 q 61 86 61 42 l 61 189 q 74 252 61 232 q 124 289 86 272 l 740 560 q 751 578 751 564 l 751 588 q 739 599 751 599 l 93 599 q 68 624 68 599 l 68 738 q 93 763 68 763 l 861 763 z "},"{":{"ha":629,"x_min":74,"x_max":572,"o":"m 556 1244 q 572 1225 572 1244 l 572 1131 q 556 1111 572 1111 l 468 1111 q 387 1085 410 1111 q 364 993 364 1058 l 364 614 q 347 529 364 567 q 300 467 329 492 q 347 405 329 442 q 364 321 364 368 l 364 -56 q 387 -147 364 -121 q 468 -174 410 -174 l 556 -174 q 572 -193 572 -174 l 572 -287 q 556 -307 572 -307 l 463 -307 q 287 -248 342 -307 q 232 -56 232 -189 l 232 324 q 217 380 232 360 q 161 400 203 400 l 99 400 q 74 425 74 400 l 74 510 q 99 535 74 535 l 161 535 q 217 554 203 535 q 232 610 232 574 l 232 993 q 287 1185 232 1126 q 463 1244 342 1244 l 556 1244 z "},"|":{"ha":588,"x_min":226,"x_max":360,"o":"m 335 1132 q 360 1107 360 1132 l 360 -178 q 335 -203 360 -203 l 251 -203 q 226 -178 226 -203 l 226 1107 q 251 1132 226 1132 l 335 1132 z "},"}":{"ha":629,"x_min":57,"x_max":556,"o":"m 74 -307 q 57 -287 57 -307 l 57 -193 q 74 -174 57 -174 l 161 -174 q 242 -147 219 -174 q 265 -56 265 -121 l 265 324 q 283 408 265 371 q 329 471 300 446 q 283 533 300 496 q 265 617 265 569 l 265 993 q 242 1085 265 1058 q 161 1111 219 1111 l 74 1111 q 57 1131 57 1111 l 57 1225 q 74 1244 57 1244 l 167 1244 q 342 1185 288 1244 q 397 993 397 1126 l 397 614 q 412 558 397 578 q 468 538 426 538 l 531 538 q 556 513 556 538 l 556 428 q 531 403 556 403 l 468 403 q 412 383 426 403 q 397 328 397 364 l 397 -56 q 342 -248 397 -189 q 167 -307 288 -307 l 74 -307 z "},"~":{"ha":851,"x_min":58,"x_max":793,"o":"m 58 531 q 65 558 58 547 q 82 578 71 568 q 150 613 107 599 q 239 626 193 626 q 356 606 306 626 q 446 563 406 586 q 515 532 478 544 q 600 519 553 519 q 659 530 632 519 q 719 569 686 540 q 744 588 735 582 q 767 594 753 594 q 793 569 793 594 l 793 489 q 786 460 793 471 q 768 440 779 450 q 700 407 743 421 q 611 393 657 393 q 496 413 546 393 q 406 456 446 432 q 336 486 374 474 q 251 499 299 499 q 192 489 219 499 q 131 449 165 479 q 107 430 115 436 q 85 424 99 424 q 58 449 58 424 l 58 531 z "}," ":{"ha":465,"x_min":0,"x_max":0,"o":""},"¡":{"ha":369,"x_min":75,"x_max":294,"o":"m 107 -306 q 75 -274 75 -306 l 114 351 q 144 382 115 382 l 225 382 q 256 351 254 382 l 294 -274 q 263 -306 294 -306 l 107 -306 m 117 521 q 86 551 86 521 l 86 685 q 117 715 86 715 l 253 715 q 285 685 285 715 l 285 551 q 253 521 285 521 l 117 521 z "},"¢":{"ha":1133,"x_min":69,"x_max":1006,"o":"m 643 1056 q 668 1031 668 1056 l 668 926 l 981 926 q 1006 899 1006 926 l 1006 769 q 981 742 1006 742 l 668 742 l 668 238 l 981 238 q 1006 210 1006 238 l 1006 81 q 981 53 1006 53 l 668 53 l 668 -58 q 643 -83 668 -83 l 581 -83 q 556 -58 556 -83 l 556 53 l 406 53 q 245 69 310 53 q 142 123 181 86 q 86 217 103 160 q 69 357 69 275 l 69 622 q 86 762 69 704 q 142 856 103 819 q 245 910 181 893 q 406 926 310 926 l 556 926 l 556 1031 q 581 1056 556 1056 l 643 1056 m 272 399 q 279 322 272 353 q 303 272 286 290 q 351 245 321 253 q 426 238 381 238 l 556 238 l 556 742 l 426 742 q 351 734 381 742 q 303 708 321 726 q 279 658 286 689 q 272 581 272 626 l 272 399 z "},"£":{"ha":922,"x_min":32,"x_max":879,"o":"m 199 550 l 199 690 q 213 820 199 767 q 258 908 226 874 q 341 957 290 942 q 465 972 392 972 l 832 972 q 863 942 863 972 l 863 818 q 832 788 863 788 l 508 788 q 425 762 447 788 q 403 672 403 736 l 403 550 l 707 550 q 732 525 732 550 l 732 461 q 707 436 732 436 l 403 436 l 403 185 l 849 185 q 879 154 879 185 l 879 31 q 849 0 879 0 l 64 0 q 32 31 32 0 l 32 154 q 64 185 32 185 l 199 185 l 199 436 l 64 436 q 39 461 39 436 l 39 525 q 64 550 39 550 l 199 550 z "},"¤":{"ha":1033,"x_min":89,"x_max":944,"o":"m 164 896 q 200 896 182 914 l 276 818 q 358 826 310 826 l 672 826 q 756 818 719 826 l 833 896 q 869 896 851 914 l 928 839 q 928 803 944 819 l 850 725 q 856 668 856 703 l 856 301 q 850 244 856 267 l 928 168 q 928 133 944 151 l 869 75 q 835 75 851 58 l 757 151 q 672 143 721 143 l 358 143 q 313 144 333 143 q 275 150 293 146 l 200 75 q 164 75 182 58 l 106 133 q 106 168 89 151 l 181 244 q 176 301 176 269 l 176 668 q 181 726 176 701 l 106 803 q 106 839 89 819 l 164 896 m 306 343 q 320 278 306 294 q 381 263 335 263 l 651 263 q 711 278 696 263 q 726 343 726 294 l 726 628 q 711 690 726 674 q 651 707 696 707 l 381 707 q 320 690 335 707 q 306 628 306 674 l 306 343 z "},"¥":{"ha":1071,"x_min":50,"x_max":1017,"o":"m 361 529 l 57 944 q 53 963 50 954 q 68 972 57 972 l 243 972 q 274 956 263 972 l 535 592 l 799 956 q 829 972 810 972 l 999 972 q 1013 964 1010 972 q 1010 944 1017 956 l 704 529 l 917 529 q 942 504 942 529 l 942 440 q 917 415 942 415 l 635 415 l 635 275 l 917 275 q 942 250 942 275 l 942 188 q 917 163 942 163 l 635 163 l 635 31 q 606 0 635 0 l 458 0 q 431 31 431 0 l 431 163 l 153 163 q 128 188 128 163 l 128 250 q 153 275 128 275 l 431 275 l 431 415 l 153 415 q 128 440 128 415 l 128 504 q 153 529 128 529 l 361 529 z "},"¦":{"ha":588,"x_min":226,"x_max":360,"o":"m 335 1132 q 360 1107 360 1132 l 360 572 q 335 547 360 547 l 251 547 q 226 572 226 547 l 226 1107 q 251 1132 226 1132 l 335 1132 m 335 382 q 360 357 360 382 l 360 -178 q 335 -203 360 -203 l 251 -203 q 226 -178 226 -203 l 226 357 q 251 382 226 382 l 335 382 z "},"§":{"ha":1018,"x_min":61,"x_max":958,"o":"m 925 1043 q 950 1018 950 1043 l 950 904 q 925 879 950 879 l 278 879 q 267 868 267 879 l 267 858 q 278 840 267 843 l 894 572 q 945 538 933 558 q 957 472 957 517 l 957 369 q 860 283 957 283 l 281 283 q 268 274 268 283 l 268 264 q 279 244 268 249 l 896 -18 q 947 -53 935 -32 q 958 -118 958 -74 l 958 -221 q 935 -286 958 -265 q 863 -307 913 -307 l 94 -307 q 69 -282 69 -307 l 69 -168 q 94 -143 69 -143 l 740 -143 q 753 -133 753 -143 l 753 -124 q 742 -104 753 -110 l 125 158 q 74 193 86 172 q 63 258 63 214 l 63 361 q 85 426 63 406 q 158 447 108 447 l 739 447 q 751 457 751 447 l 751 467 q 740 486 751 481 l 122 754 q 73 788 85 768 q 61 853 61 808 l 61 956 q 84 1022 61 1000 q 157 1043 107 1043 l 925 1043 z "},"¨":{"ha":760,"x_min":86,"x_max":672,"o":"m 642 1044 q 672 1014 672 1044 l 672 882 q 642 850 672 850 l 506 850 q 475 882 475 850 l 475 1014 q 506 1044 475 1044 l 642 1044 m 254 1044 q 285 1014 285 1044 l 285 882 q 254 850 285 850 l 118 850 q 86 882 86 850 l 86 1014 q 118 1044 86 1044 l 254 1044 z "},"©":{"ha":1368,"x_min":81,"x_max":1288,"o":"m 899 972 q 1078 952 1004 972 q 1199 888 1153 932 q 1267 775 1246 844 q 1288 606 1288 706 l 1288 367 q 1267 197 1288 267 q 1199 83 1246 126 q 1078 19 1153 39 q 899 0 1004 0 l 469 0 q 290 19 364 0 q 170 83 217 39 q 102 197 124 126 q 81 367 81 267 l 81 606 q 102 775 81 706 q 170 888 124 844 q 290 952 217 932 q 469 972 364 972 l 899 972 m 185 367 q 200 245 185 296 q 250 163 215 194 q 338 117 285 132 q 469 103 392 103 l 899 103 q 1029 117 975 103 q 1118 163 1083 132 q 1168 245 1153 194 q 1183 367 1183 296 l 1183 606 q 1168 726 1183 676 q 1118 808 1153 776 q 1029 853 1083 839 q 899 868 975 868 l 469 868 q 338 853 392 868 q 250 808 285 839 q 200 726 215 776 q 185 606 185 676 l 185 367 m 917 744 q 932 729 932 744 l 932 660 q 917 643 932 643 l 597 643 q 522 623 542 643 q 503 546 503 603 l 503 444 q 522 367 503 388 q 597 346 542 346 l 917 346 q 932 331 932 346 l 932 260 q 917 244 932 244 l 593 244 q 439 288 485 244 q 393 433 393 331 l 393 556 q 439 701 393 658 q 593 744 485 744 l 917 744 z "},"ª":{"ha":650,"x_min":56,"x_max":593,"o":"m 411 972 q 553 935 514 972 q 593 814 593 899 l 593 493 q 581 442 593 454 q 538 431 569 431 l 174 431 q 80 457 104 431 q 56 542 56 483 l 56 647 q 80 722 56 696 q 174 749 104 749 l 471 749 l 471 789 q 455 842 471 826 q 392 858 439 858 l 82 858 q 68 872 68 858 l 68 958 q 82 972 68 972 l 411 972 m 451 538 q 471 561 471 538 l 471 658 l 214 658 q 184 649 192 658 q 176 622 176 640 l 176 576 q 184 547 176 557 q 214 538 192 538 l 451 538 z "},"«":{"ha":743,"x_min":44,"x_max":701,"o":"m 44 0 m 674 763 q 695 753 689 763 q 694 733 701 744 l 540 418 q 532 386 532 401 l 532 376 q 540 344 532 358 l 694 29 q 695 9 701 18 q 674 0 689 0 l 568 0 q 531 24 542 0 l 393 308 q 380 341 383 328 q 376 376 376 354 l 376 386 q 380 421 376 407 q 393 454 383 435 l 531 739 q 568 763 542 763 l 674 763 m 342 763 q 363 753 357 763 q 363 733 369 744 l 208 418 q 200 386 200 401 l 200 376 q 208 344 200 358 l 363 29 q 363 9 369 18 q 342 0 357 0 l 236 0 q 199 24 210 0 l 61 308 q 48 341 51 328 q 44 376 44 354 l 44 386 q 48 421 44 407 q 61 454 51 435 l 199 739 q 236 763 210 763 l 342 763 z "},"¬":{"ha":851,"x_min":58,"x_max":793,"o":"m 764 764 q 793 735 793 764 l 793 25 q 768 0 793 0 l 685 0 q 660 25 660 0 l 660 632 l 83 632 q 58 657 58 632 l 58 739 q 83 764 58 764 l 764 764 z "},"­":{"ha":531,"x_min":31,"x_max":499,"o":"m 31 403 m 474 553 q 499 528 499 553 l 499 428 q 474 403 499 403 l 56 403 q 31 428 31 403 l 31 528 q 56 553 31 553 l 474 553 z "},"®":{"ha":1368,"x_min":81,"x_max":1288,"o":"m 899 972 q 1078 952 1004 972 q 1199 888 1153 932 q 1267 775 1246 844 q 1288 606 1288 706 l 1288 367 q 1267 197 1288 267 q 1199 83 1246 126 q 1078 19 1153 39 q 899 0 1004 0 l 469 0 q 290 19 364 0 q 170 83 217 39 q 102 197 124 126 q 81 367 81 267 l 81 606 q 102 775 81 706 q 170 888 124 844 q 290 952 217 932 q 469 972 364 972 l 899 972 m 185 367 q 200 245 185 296 q 250 163 215 194 q 338 117 285 132 q 469 103 392 103 l 899 103 q 1029 117 975 103 q 1118 163 1083 132 q 1168 245 1153 194 q 1183 367 1183 296 l 1183 606 q 1168 726 1183 676 q 1118 808 1153 776 q 1029 853 1083 839 q 899 868 975 868 l 469 868 q 338 853 392 868 q 250 808 285 839 q 200 726 215 776 q 185 606 185 676 l 185 367 m 813 744 q 931 708 896 744 q 967 597 967 671 l 967 557 q 942 460 967 494 q 860 414 917 425 l 982 263 q 984 251 985 258 q 974 244 983 244 l 881 244 q 867 247 871 244 q 861 254 864 249 l 747 403 l 517 403 l 517 260 q 501 244 517 244 l 424 244 q 407 260 407 244 l 407 724 q 428 744 407 744 l 813 744 m 517 490 l 790 490 q 842 506 826 490 q 857 553 857 521 l 857 583 q 842 631 857 615 q 790 647 826 647 l 526 647 q 517 639 517 647 l 517 490 z "},"¯":{"ha":888,"x_min":86,"x_max":800,"o":"m 769 1019 q 800 989 800 1019 l 800 908 q 769 878 800 878 l 118 878 q 86 908 86 878 l 86 989 q 118 1019 86 1019 l 769 1019 z "},"°":{"ha":721,"x_min":74,"x_max":646,"o":"m 443 972 q 600 928 554 972 q 646 781 646 885 l 646 657 q 600 509 646 553 q 443 465 554 465 l 275 465 q 119 509 165 465 q 74 657 74 553 l 74 781 q 119 928 74 885 q 275 972 165 972 l 443 972 m 203 681 q 222 605 203 625 q 294 585 242 585 l 424 585 q 497 605 478 585 q 515 681 515 625 l 515 757 q 497 832 515 813 q 424 851 478 851 l 294 851 q 222 832 242 851 q 203 757 203 813 l 203 681 z "},"±":{"ha":851,"x_min":58,"x_max":793,"o":"m 58 0 m 467 931 q 492 906 492 931 l 492 631 l 768 631 q 793 606 793 631 l 793 522 q 768 497 793 497 l 492 497 l 492 221 q 467 196 492 196 l 383 196 q 358 221 358 196 l 358 497 l 83 497 q 58 522 58 497 l 58 606 q 83 631 58 631 l 358 631 l 358 906 q 383 931 358 931 l 467 931 m 768 133 q 793 108 793 133 l 793 25 q 768 0 793 0 l 83 0 q 58 25 58 0 l 58 108 q 83 133 58 133 l 768 133 z "},"²":{"ha":708,"x_min":67,"x_max":643,"o":"m 67 438 m 507 972 q 610 938 578 972 q 643 847 643 904 l 643 790 q 609 693 643 728 q 508 658 575 658 l 225 658 q 189 617 189 658 l 189 561 q 201 549 189 549 l 624 549 q 642 532 642 549 l 642 454 q 624 438 642 438 l 136 438 q 83 453 99 438 q 67 501 67 468 l 67 622 q 100 721 67 686 q 200 756 133 756 l 485 756 q 519 797 519 756 l 519 821 q 483 861 519 861 l 104 861 q 86 878 86 861 l 86 956 q 104 972 86 972 l 507 972 z "},"³":{"ha":693,"x_min":63,"x_max":624,"o":"m 63 438 m 481 972 q 588 942 557 972 q 619 846 619 911 l 619 810 q 578 714 619 749 q 624 614 624 678 l 624 569 q 596 472 624 507 q 496 438 568 438 l 79 438 q 63 454 63 438 l 63 532 q 79 549 63 549 l 454 549 q 491 559 482 549 q 500 592 500 569 l 500 611 q 491 647 500 635 q 454 660 482 660 l 85 660 q 67 676 67 660 l 67 740 q 85 757 67 757 l 454 757 q 491 768 482 757 q 500 800 500 779 l 500 818 q 491 851 500 840 q 454 861 482 861 l 79 861 q 63 878 63 861 l 63 956 q 79 972 63 972 l 481 972 z "},"´":{"ha":546,"x_min":107,"x_max":435,"o":"m 406 1133 q 428 1125 421 1133 q 426 1101 435 1117 l 283 844 q 266 821 275 829 q 242 813 257 813 l 136 813 q 114 821 121 813 q 114 844 107 829 l 240 1101 q 283 1133 256 1133 l 406 1133 z "},"¶":{"ha":1115,"x_min":83,"x_max":1028,"o":"m 585 1042 q 708 924 708 1042 l 708 -281 q 681 -307 708 -307 l 565 -307 q 540 -281 540 -307 l 540 388 l 360 388 q 228 401 282 388 q 143 443 175 414 q 97 518 111 472 q 83 629 83 564 l 83 801 q 97 913 83 867 q 143 987 111 958 q 228 1028 175 1015 q 360 1042 282 1042 l 585 1042 m 1001 1042 q 1028 1015 1028 1042 l 1028 -281 q 1001 -307 1028 -307 l 888 -307 q 861 -281 861 -307 l 861 1015 q 888 1042 861 1042 l 1001 1042 m 251 660 q 257 597 251 622 q 276 556 263 571 q 315 534 290 540 q 376 528 339 528 l 540 528 l 540 850 q 493 901 540 901 l 376 901 q 315 895 339 901 q 276 874 290 889 q 257 833 263 858 q 251 769 251 807 l 251 660 z "},"·":{"ha":371,"x_min":86,"x_max":285,"o":"m 86 390 m 254 585 q 285 554 285 585 l 285 421 q 254 390 285 390 l 118 390 q 86 421 86 390 l 86 554 q 118 585 86 585 l 254 585 z "},"¸":{"ha":439,"x_min":138,"x_max":356,"o":"m 321 -57 q 347 -93 356 -57 l 286 -346 q 251 -378 278 -378 l 172 -378 q 140 -346 138 -378 l 163 -89 q 196 -57 165 -57 l 321 -57 z "},"¹":{"ha":338,"x_min":42,"x_max":258,"o":"m 42 438 m 176 972 q 240 954 221 972 q 258 897 258 936 l 258 454 q 239 438 258 438 l 153 438 q 136 454 136 438 l 136 838 q 113 861 136 861 l 58 861 q 42 878 42 861 l 42 956 q 58 972 42 972 l 176 972 z "},"º":{"ha":711,"x_min":67,"x_max":646,"o":"m 464 972 q 606 935 565 972 q 646 814 646 899 l 646 589 q 637 516 646 546 q 606 467 628 486 q 550 440 585 449 q 464 431 515 431 l 247 431 q 161 440 196 431 q 106 467 126 449 q 76 516 85 486 q 67 589 67 546 l 67 814 q 106 935 67 899 q 247 972 144 972 l 464 972 m 189 628 q 204 561 189 579 q 268 543 219 543 l 443 543 q 506 561 490 543 q 522 628 522 579 l 522 776 q 506 842 522 825 q 443 860 490 860 l 268 860 q 204 842 219 860 q 189 776 189 825 l 189 628 z "},"»":{"ha":743,"x_min":42,"x_max":699,"o":"m 42 0 m 507 763 q 544 739 532 763 l 682 454 q 695 421 692 435 q 699 386 699 407 l 699 376 q 695 341 699 354 q 682 308 692 328 l 544 24 q 507 0 532 0 l 401 0 q 380 9 386 0 q 381 29 374 18 l 535 344 q 542 376 542 357 l 542 386 q 535 418 542 404 l 381 733 q 380 753 374 744 q 401 763 386 763 l 507 763 m 175 763 q 213 739 200 763 l 350 454 q 363 421 360 435 q 367 386 367 407 l 367 376 q 363 341 367 354 q 350 308 360 328 l 213 24 q 175 0 200 0 l 69 0 q 48 9 54 0 q 49 29 42 18 l 203 344 q 210 376 210 357 l 210 386 q 203 418 210 404 l 49 733 q 48 753 42 744 q 69 763 54 763 l 175 763 z "},"¼":{"ha":1306,"x_min":97,"x_max":1224,"o":"m 97 0 m 978 972 q 992 964 989 972 q 988 947 994 956 l 238 14 q 223 3 231 7 q 200 0 215 0 l 115 0 q 101 8 104 0 q 104 25 97 17 l 854 958 q 869 969 861 965 q 892 972 876 972 l 978 972 m 263 972 q 326 954 307 972 q 344 897 344 936 l 344 454 q 325 438 344 438 l 239 438 q 222 454 222 438 l 222 838 q 199 861 222 861 l 144 861 q 128 878 128 861 l 128 956 q 144 972 128 972 l 263 972 m 942 510 q 980 530 963 525 q 1025 535 997 535 l 1075 535 q 1128 518 1111 535 q 1146 453 1146 501 l 1146 201 l 1207 201 q 1224 185 1224 201 l 1224 114 q 1207 96 1224 96 l 1146 96 l 1146 17 q 1126 0 1146 0 l 1040 0 q 1024 17 1024 0 l 1024 96 l 635 96 q 594 110 607 96 q 581 146 581 125 l 581 210 q 586 247 581 229 q 614 279 592 264 l 942 510 m 715 208 q 722 201 715 201 l 1024 201 l 1024 415 q 1015 425 1024 425 l 1010 425 q 989 418 999 425 l 722 229 q 715 215 715 225 l 715 208 z "},"½":{"ha":1389,"x_min":97,"x_max":1308,"o":"m 97 0 m 978 972 q 992 964 989 972 q 988 947 994 956 l 238 14 q 223 3 231 7 q 200 0 215 0 l 115 0 q 101 8 104 0 q 104 25 97 17 l 854 958 q 869 969 861 965 q 892 972 876 972 l 978 972 m 263 972 q 326 954 307 972 q 344 897 344 936 l 344 454 q 325 438 344 438 l 239 438 q 222 454 222 438 l 222 838 q 199 861 222 861 l 144 861 q 128 878 128 861 l 128 956 q 144 972 128 972 l 263 972 m 1172 535 q 1276 501 1243 535 q 1308 410 1308 467 l 1308 353 q 1274 256 1308 290 q 1174 221 1240 221 l 890 221 q 854 179 854 221 l 854 124 q 867 111 854 111 l 1289 111 q 1307 94 1307 111 l 1307 17 q 1289 0 1307 0 l 801 0 q 748 15 764 0 q 732 64 732 31 l 732 185 q 765 283 732 249 q 865 318 799 318 l 1150 318 q 1185 360 1185 318 l 1185 383 q 1149 424 1185 424 l 769 424 q 751 440 751 424 l 751 518 q 769 535 751 535 l 1172 535 z "},"¾":{"ha":1593,"x_min":82,"x_max":1511,"o":"m 82 0 m 1265 972 q 1279 964 1276 972 q 1275 947 1282 956 l 525 14 q 510 3 518 7 q 488 0 503 0 l 403 0 q 388 8 392 0 q 392 25 385 17 l 1142 958 q 1156 969 1149 965 q 1179 972 1164 972 l 1265 972 m 1229 510 q 1267 530 1250 525 q 1313 535 1285 535 l 1363 535 q 1416 518 1399 535 q 1433 453 1433 501 l 1433 201 l 1494 201 q 1511 185 1511 201 l 1511 114 q 1494 96 1511 96 l 1433 96 l 1433 17 q 1414 0 1433 0 l 1328 0 q 1311 17 1311 0 l 1311 96 l 922 96 q 881 110 894 96 q 868 146 868 125 l 868 210 q 874 247 868 229 q 901 279 879 264 l 1229 510 m 1003 208 q 1010 201 1003 201 l 1311 201 l 1311 415 q 1303 425 1311 425 l 1297 425 q 1276 418 1286 425 l 1010 229 q 1003 215 1003 225 l 1003 208 m 500 972 q 608 942 576 972 q 639 846 639 911 l 639 810 q 597 714 639 749 q 643 614 643 678 l 643 569 q 615 472 643 507 q 515 438 588 438 l 99 438 q 82 454 82 438 l 82 532 q 99 549 82 549 l 474 549 q 510 559 501 549 q 519 592 519 569 l 519 611 q 510 647 519 635 q 474 660 501 660 l 104 660 q 86 676 86 660 l 86 740 q 104 757 86 757 l 474 757 q 510 768 501 757 q 519 800 519 779 l 519 818 q 510 851 519 840 q 474 861 501 861 l 99 861 q 82 878 82 861 l 82 956 q 99 972 82 972 l 500 972 z "},"¿":{"ha":876,"x_min":43,"x_max":833,"o":"m 446 521 q 414 551 414 521 l 414 685 q 446 715 414 715 l 582 715 q 613 685 613 715 l 613 551 q 582 521 613 521 l 446 521 m 232 -306 q 88 -258 133 -306 q 43 -118 43 -210 l 43 -60 q 49 13 43 -18 q 71 68 56 44 q 110 110 86 92 q 171 146 135 129 l 400 256 q 428 279 421 265 q 438 313 435 293 l 442 347 q 452 375 444 368 q 483 382 460 382 l 544 382 q 575 374 567 382 q 583 347 583 365 l 585 279 q 574 212 585 243 q 524 160 564 181 l 288 38 q 254 9 264 26 q 244 -36 244 -8 l 244 -72 q 304 -131 244 -131 l 803 -131 q 833 -161 833 -131 l 833 -275 q 803 -306 833 -306 l 232 -306 z "},"À":{"ha":1354,"x_min":18,"x_max":1335,"o":"m 18 0 m 708 972 q 797 951 761 972 q 868 867 833 929 l 1328 32 q 1331 9 1335 18 q 1311 0 1328 0 l 1135 0 q 1103 18 1111 0 l 1004 197 l 351 197 l 256 18 q 224 0 246 0 l 43 0 q 22 9 25 0 q 25 32 18 18 l 481 867 q 549 951 515 929 q 626 972 582 972 l 708 972 m 439 358 l 917 358 l 696 765 q 681 775 690 775 l 672 775 q 657 765 663 775 l 439 358 m 624 1272 q 667 1246 651 1272 l 792 1042 q 792 1022 799 1029 q 769 1015 786 1015 l 664 1015 q 640 1022 649 1015 q 622 1042 631 1028 l 481 1246 q 478 1265 471 1258 q 500 1272 486 1272 l 624 1272 z "},"Á":{"ha":1354,"x_min":18,"x_max":1335,"o":"m 18 0 m 708 972 q 797 951 761 972 q 868 867 833 929 l 1328 32 q 1331 9 1335 18 q 1311 0 1328 0 l 1135 0 q 1103 18 1111 0 l 1004 197 l 351 197 l 256 18 q 224 0 246 0 l 43 0 q 22 9 25 0 q 25 32 18 18 l 481 867 q 549 951 515 929 q 626 972 582 972 l 708 972 m 439 358 l 917 358 l 696 765 q 681 775 690 775 l 672 775 q 657 765 663 775 l 439 358 m 853 1272 q 875 1265 868 1272 q 872 1246 882 1258 l 731 1042 q 713 1022 722 1028 q 689 1015 704 1015 l 583 1015 q 561 1022 568 1015 q 563 1042 554 1029 l 686 1246 q 729 1272 701 1272 l 853 1272 z "},"Â":{"ha":1354,"x_min":18,"x_max":1335,"o":"m 18 0 m 708 972 q 797 951 761 972 q 868 867 833 929 l 1328 32 q 1331 9 1335 18 q 1311 0 1328 0 l 1135 0 q 1103 18 1111 0 l 1004 197 l 351 197 l 256 18 q 224 0 246 0 l 43 0 q 22 9 25 0 q 25 32 18 18 l 481 867 q 549 951 515 929 q 626 972 582 972 l 708 972 m 439 358 l 917 358 l 696 765 q 681 775 690 775 l 672 775 q 657 765 663 775 l 439 358 m 739 1272 q 776 1265 763 1272 q 800 1242 789 1257 l 946 1044 q 949 1024 956 1032 q 929 1015 943 1015 l 821 1015 q 778 1040 793 1015 l 699 1160 q 681 1171 693 1171 l 675 1171 q 657 1160 663 1171 l 576 1040 q 560 1021 569 1026 q 533 1015 550 1015 l 426 1015 q 405 1024 411 1015 q 408 1044 399 1032 l 556 1242 q 579 1265 567 1257 q 615 1272 592 1272 l 739 1272 z "},"Ã":{"ha":1354,"x_min":18,"x_max":1335,"o":"m 18 0 m 708 972 q 797 951 761 972 q 868 867 833 929 l 1328 32 q 1331 9 1335 18 q 1311 0 1328 0 l 1135 0 q 1103 18 1111 0 l 1004 197 l 351 197 l 256 18 q 224 0 246 0 l 43 0 q 22 9 25 0 q 25 32 18 18 l 481 867 q 549 951 515 929 q 626 972 582 972 l 708 972 m 439 358 l 917 358 l 696 765 q 681 775 690 775 l 672 775 q 657 765 663 775 l 439 358 m 344 1032 q 324 1041 328 1032 q 319 1072 319 1050 q 329 1167 319 1129 q 360 1226 339 1204 q 414 1258 381 1249 q 493 1267 447 1267 q 622 1247 568 1267 q 722 1189 675 1226 q 767 1158 746 1169 q 828 1146 788 1146 q 861 1150 849 1146 q 880 1165 874 1154 q 889 1195 886 1176 q 892 1242 892 1214 q 929 1272 893 1272 l 1008 1272 q 1028 1263 1024 1272 q 1033 1232 1033 1254 q 1024 1138 1033 1175 q 992 1078 1014 1100 q 938 1047 971 1056 q 858 1038 904 1038 q 731 1058 783 1038 q 631 1115 678 1078 q 585 1147 607 1135 q 524 1158 564 1158 q 472 1138 483 1158 q 461 1063 461 1118 q 422 1032 460 1032 l 344 1032 z "},"Ä":{"ha":1354,"x_min":18,"x_max":1335,"o":"m 18 0 m 708 972 q 797 951 761 972 q 868 867 833 929 l 1328 32 q 1331 9 1335 18 q 1311 0 1328 0 l 1135 0 q 1103 18 1111 0 l 1004 197 l 351 197 l 256 18 q 224 0 246 0 l 43 0 q 22 9 25 0 q 25 32 18 18 l 481 867 q 549 951 515 929 q 626 972 582 972 l 708 972 m 439 358 l 917 358 l 696 765 q 681 775 690 775 l 672 775 q 657 765 663 775 l 439 358 m 551 1229 q 582 1204 582 1229 l 582 1072 q 551 1047 582 1047 l 415 1047 q 385 1072 385 1047 l 385 1204 q 415 1229 385 1229 l 551 1229 m 939 1229 q 971 1204 971 1229 l 971 1072 q 939 1047 971 1047 l 803 1047 q 772 1072 772 1047 l 772 1204 q 803 1229 772 1229 l 939 1229 z "},"Å":{"ha":1354,"x_min":18,"x_max":1335,"o":"m 18 0 m 708 972 q 797 951 761 972 q 868 867 833 929 l 1328 32 q 1331 9 1335 18 q 1311 0 1328 0 l 1135 0 q 1103 18 1111 0 l 1004 197 l 351 197 l 256 18 q 224 0 246 0 l 43 0 q 22 9 25 0 q 25 32 18 18 l 481 867 q 549 951 515 929 q 626 972 582 972 l 708 972 m 439 358 l 917 358 l 696 765 q 681 775 690 775 l 672 775 q 657 765 663 775 l 439 358 m 743 1272 q 854 1247 822 1272 q 886 1164 886 1222 l 886 1094 q 854 1011 886 1036 q 743 986 822 986 l 608 986 q 499 1011 531 986 q 467 1094 467 1036 l 467 1164 q 499 1247 467 1222 q 608 1272 531 1272 l 743 1272 m 568 1108 q 580 1071 568 1081 q 628 1061 592 1061 l 725 1061 q 773 1071 761 1061 q 785 1108 785 1081 l 785 1149 q 773 1187 785 1176 q 725 1197 761 1197 l 628 1197 q 580 1187 592 1197 q 568 1149 568 1176 l 568 1108 z "},"Æ":{"ha":1875,"x_min":18,"x_max":1806,"o":"m 1775 972 q 1806 942 1806 972 l 1806 810 q 1775 779 1806 779 l 1049 779 l 1049 575 l 1767 575 q 1797 544 1797 575 l 1797 436 q 1767 404 1797 404 l 1049 404 l 1049 382 q 1058 291 1049 328 q 1088 233 1067 254 q 1144 202 1108 211 q 1233 193 1179 193 l 1775 193 q 1806 163 1806 193 l 1806 31 q 1775 0 1806 0 l 1231 0 q 983 45 1071 0 q 863 197 894 90 l 351 197 l 256 18 q 224 0 246 0 l 43 0 q 22 9 25 0 q 25 32 18 18 l 481 867 q 548 951 514 931 q 626 972 582 972 l 1775 972 m 438 358 l 842 358 l 842 779 l 675 779 q 658 769 667 779 l 438 358 z "},"Ç":{"ha":1183,"x_min":81,"x_max":1126,"o":"m 81 0 m 1096 972 q 1126 942 1126 972 l 1126 806 q 1096 774 1126 774 l 478 774 q 388 765 424 774 q 332 734 353 756 q 302 676 311 713 q 293 585 293 640 l 293 388 q 302 295 293 332 q 332 237 311 258 q 388 206 353 215 q 478 197 424 197 l 1096 197 q 1126 167 1126 197 l 1126 31 q 1096 0 1126 0 l 469 0 q 290 19 364 0 q 170 83 217 39 q 102 197 124 126 q 81 367 81 267 l 81 606 q 102 775 81 706 q 170 888 124 844 q 290 952 217 932 q 469 972 364 972 l 1096 972 m 713 -57 q 739 -93 747 -57 l 678 -346 q 643 -378 669 -378 l 564 -378 q 532 -346 529 -378 l 554 -89 q 588 -57 557 -57 l 713 -57 z "},"È":{"ha":1181,"x_min":81,"x_max":1113,"o":"m 81 0 m 1081 972 q 1113 942 1113 972 l 1113 810 q 1081 779 1113 779 l 474 779 q 384 770 419 779 q 327 740 349 761 q 297 681 306 718 q 289 590 289 644 l 289 576 l 1074 576 q 1104 546 1104 576 l 1104 436 q 1074 406 1104 406 l 289 406 l 289 382 q 297 291 289 328 q 327 233 306 254 q 384 202 349 211 q 474 193 419 193 l 1081 193 q 1113 163 1113 193 l 1113 31 q 1081 0 1113 0 l 469 0 q 290 19 364 0 q 170 83 217 39 q 102 197 124 126 q 81 367 81 267 l 81 606 q 102 775 81 706 q 170 888 124 844 q 290 952 217 932 q 469 972 364 972 l 1081 972 m 594 1272 q 638 1246 622 1272 l 763 1042 q 763 1022 769 1029 q 740 1015 757 1015 l 635 1015 q 610 1022 619 1015 q 593 1042 601 1028 l 451 1246 q 449 1265 442 1258 q 471 1272 457 1272 l 594 1272 z "},"É":{"ha":1181,"x_min":81,"x_max":1113,"o":"m 81 0 m 1081 972 q 1113 942 1113 972 l 1113 810 q 1081 779 1113 779 l 474 779 q 384 770 419 779 q 327 740 349 761 q 297 681 306 718 q 289 590 289 644 l 289 576 l 1074 576 q 1104 546 1104 576 l 1104 436 q 1074 406 1104 406 l 289 406 l 289 382 q 297 291 289 328 q 327 233 306 254 q 384 202 349 211 q 474 193 419 193 l 1081 193 q 1113 163 1113 193 l 1113 31 q 1081 0 1113 0 l 469 0 q 290 19 364 0 q 170 83 217 39 q 102 197 124 126 q 81 367 81 267 l 81 606 q 102 775 81 706 q 170 888 124 844 q 290 952 217 932 q 469 972 364 972 l 1081 972 m 824 1272 q 846 1265 839 1272 q 843 1246 853 1258 l 701 1042 q 684 1022 693 1028 q 660 1015 675 1015 l 554 1015 q 532 1022 539 1015 q 533 1042 525 1029 l 657 1246 q 700 1272 672 1272 l 824 1272 z "},"Ê":{"ha":1181,"x_min":81,"x_max":1113,"o":"m 81 0 m 1081 972 q 1113 942 1113 972 l 1113 810 q 1081 779 1113 779 l 474 779 q 384 770 419 779 q 327 740 349 761 q 297 681 306 718 q 289 590 289 644 l 289 576 l 1074 576 q 1104 546 1104 576 l 1104 436 q 1074 406 1104 406 l 289 406 l 289 382 q 297 291 289 328 q 327 233 306 254 q 384 202 349 211 q 474 193 419 193 l 1081 193 q 1113 163 1113 193 l 1113 31 q 1081 0 1113 0 l 469 0 q 290 19 364 0 q 170 83 217 39 q 102 197 124 126 q 81 367 81 267 l 81 606 q 102 775 81 706 q 170 888 124 844 q 290 952 217 932 q 469 972 364 972 l 1081 972 m 708 1272 q 745 1265 732 1272 q 769 1242 758 1257 l 915 1044 q 919 1024 925 1032 q 899 1015 913 1015 l 790 1015 q 747 1040 763 1015 l 668 1160 q 650 1171 663 1171 l 644 1171 q 626 1160 632 1171 l 546 1040 q 529 1021 539 1026 q 503 1015 519 1015 l 396 1015 q 374 1024 381 1015 q 378 1044 368 1032 l 525 1242 q 549 1265 536 1257 q 585 1272 561 1272 l 708 1272 z "},"Ë":{"ha":1181,"x_min":81,"x_max":1113,"o":"m 81 0 m 1081 972 q 1113 942 1113 972 l 1113 810 q 1081 779 1113 779 l 474 779 q 384 770 419 779 q 327 740 349 761 q 297 681 306 718 q 289 590 289 644 l 289 576 l 1074 576 q 1104 546 1104 576 l 1104 436 q 1074 406 1104 406 l 289 406 l 289 382 q 297 291 289 328 q 327 233 306 254 q 384 202 349 211 q 474 193 419 193 l 1081 193 q 1113 163 1113 193 l 1113 31 q 1081 0 1113 0 l 469 0 q 290 19 364 0 q 170 83 217 39 q 102 197 124 126 q 81 367 81 267 l 81 606 q 102 775 81 706 q 170 888 124 844 q 290 952 217 932 q 469 972 364 972 l 1081 972 m 519 1229 q 550 1204 550 1229 l 550 1072 q 519 1047 550 1047 l 383 1047 q 353 1072 353 1047 l 353 1204 q 383 1229 353 1229 l 519 1229 m 907 1229 q 939 1204 939 1229 l 939 1072 q 907 1047 939 1047 l 771 1047 q 740 1072 740 1047 l 740 1204 q 771 1229 740 1229 l 907 1229 z "},"Ì":{"ha":401,"x_min":-4,"x_max":324,"o":"m 0 0 m 276 972 q 307 942 307 972 l 307 31 q 276 0 307 0 l 126 0 q 94 31 94 0 l 94 942 q 126 972 94 972 l 276 972 m 149 1272 q 192 1246 176 1272 l 317 1042 q 317 1022 324 1029 q 294 1015 311 1015 l 189 1015 q 165 1022 174 1015 q 147 1042 156 1028 l 6 1246 q 3 1265 -4 1258 q 25 1272 11 1272 l 149 1272 z "},"Í":{"ha":401,"x_min":76,"x_max":404,"o":"m 76 0 m 274 972 q 304 942 304 972 l 304 31 q 274 0 304 0 l 124 0 q 92 31 92 0 l 92 942 q 124 972 92 972 l 274 972 m 375 1272 q 397 1265 390 1272 q 394 1246 404 1258 l 253 1042 q 235 1022 244 1028 q 211 1015 226 1015 l 106 1015 q 83 1022 90 1015 q 85 1042 76 1029 l 208 1246 q 251 1272 224 1272 l 375 1272 z "},"Î":{"ha":517,"x_min":-21,"x_max":536,"o":"m 0 0 m 333 972 q 364 942 364 972 l 364 31 q 333 0 364 0 l 183 0 q 151 31 151 0 l 151 942 q 183 972 151 972 l 333 972 m 319 1272 q 356 1265 343 1272 q 381 1242 369 1257 l 526 1044 q 530 1024 536 1032 q 510 1015 524 1015 l 401 1015 q 358 1040 374 1015 l 279 1160 q 261 1171 274 1171 l 256 1171 q 238 1160 243 1171 l 157 1040 q 140 1021 150 1026 q 114 1015 131 1015 l 7 1015 q -15 1024 -8 1015 q -11 1044 -21 1032 l 136 1242 q 160 1265 147 1257 q 196 1272 172 1272 l 319 1272 z "},"Ï":{"ha":529,"x_min":3,"x_max":526,"o":"m 3 0 m 339 972 q 369 942 369 972 l 369 31 q 339 0 369 0 l 189 0 q 157 31 157 0 l 157 942 q 189 972 157 972 l 339 972 m 496 1229 q 526 1204 526 1229 l 526 1072 q 496 1047 526 1047 l 360 1047 q 329 1072 329 1047 l 329 1204 q 360 1229 329 1229 l 496 1229 m 169 1229 q 200 1204 200 1229 l 200 1072 q 169 1047 200 1047 l 33 1047 q 3 1072 3 1047 l 3 1204 q 33 1229 3 1229 l 169 1229 z "},"Ð":{"ha":1365,"x_min":18,"x_max":1285,"o":"m 860 972 q 1053 949 972 972 q 1185 878 1133 926 q 1260 756 1236 831 q 1285 581 1285 682 l 1285 392 q 1260 216 1285 290 q 1185 94 1236 142 q 1053 23 1133 46 q 860 0 972 0 l 210 0 q 168 42 168 0 l 168 406 l 49 406 q 18 436 18 406 l 18 546 q 49 576 18 576 l 168 576 l 168 931 q 210 972 168 972 l 860 972 m 381 576 l 853 576 q 883 546 883 576 l 883 436 q 853 406 883 406 l 381 406 l 381 211 q 399 193 381 193 l 854 193 q 957 204 915 193 q 1024 240 999 215 q 1061 307 1050 265 q 1072 410 1072 349 l 1072 563 q 1061 665 1072 624 q 1024 732 1050 707 q 957 768 999 757 q 854 779 915 779 l 399 779 q 381 760 381 779 l 381 576 z "},"Ñ":{"ha":1358,"x_min":92,"x_max":1265,"o":"m 92 0 m 339 972 q 394 969 372 972 q 433 958 417 967 q 465 933 450 949 q 500 890 481 917 l 1017 213 q 1035 203 1022 203 l 1047 203 q 1058 217 1058 203 l 1058 942 q 1089 972 1058 972 l 1235 972 q 1265 942 1265 972 l 1265 144 q 1235 30 1265 60 q 1140 0 1204 0 l 1021 0 q 967 3 989 0 q 929 14 946 6 q 897 38 913 22 q 860 82 881 54 l 342 760 q 324 769 333 769 l 311 769 q 300 756 300 769 l 300 31 q 269 0 300 0 l 124 0 q 92 31 92 0 l 92 828 q 122 942 92 913 q 217 972 153 972 l 339 972 m 349 1032 q 328 1041 332 1032 q 324 1072 324 1050 q 333 1167 324 1129 q 364 1226 343 1204 q 418 1258 385 1249 q 497 1267 451 1267 q 626 1247 572 1267 q 726 1189 679 1226 q 771 1158 750 1169 q 832 1146 792 1146 q 865 1150 853 1146 q 884 1165 878 1154 q 893 1195 890 1176 q 896 1242 896 1214 q 933 1272 897 1272 l 1013 1272 q 1033 1263 1028 1272 q 1038 1232 1038 1254 q 1028 1138 1038 1175 q 997 1078 1018 1100 q 942 1047 975 1056 q 863 1038 908 1038 q 735 1058 788 1038 q 635 1115 682 1078 q 590 1147 611 1135 q 528 1158 568 1158 q 476 1138 488 1158 q 465 1063 465 1118 q 426 1032 464 1032 l 349 1032 z "},"Ò":{"ha":1368,"x_min":81,"x_max":1288,"o":"m 81 0 m 899 972 q 1078 952 1004 972 q 1199 888 1153 932 q 1267 775 1246 844 q 1288 606 1288 706 l 1288 367 q 1267 197 1288 267 q 1199 83 1246 126 q 1078 19 1153 39 q 899 0 1004 0 l 469 0 q 290 19 364 0 q 170 83 217 39 q 102 197 124 126 q 81 367 81 267 l 81 606 q 102 775 81 706 q 170 888 124 844 q 290 952 217 932 q 469 972 364 972 l 899 972 m 293 382 q 302 291 293 328 q 332 233 311 254 q 388 202 353 211 q 478 193 424 193 l 890 193 q 980 202 944 193 q 1036 233 1015 211 q 1066 291 1057 254 q 1075 382 1075 328 l 1075 590 q 1066 681 1075 644 q 1036 740 1057 718 q 980 770 1015 761 q 890 779 944 779 l 478 779 q 388 770 424 779 q 332 740 353 761 q 302 681 311 718 q 293 590 293 644 l 293 382 m 625 1272 q 668 1246 653 1272 l 793 1042 q 794 1022 800 1029 q 771 1015 788 1015 l 665 1015 q 641 1022 650 1015 q 624 1042 632 1028 l 482 1246 q 480 1265 472 1258 q 501 1272 488 1272 l 625 1272 z "},"Ó":{"ha":1368,"x_min":81,"x_max":1288,"o":"m 81 0 m 899 972 q 1078 952 1004 972 q 1199 888 1153 932 q 1267 775 1246 844 q 1288 606 1288 706 l 1288 367 q 1267 197 1288 267 q 1199 83 1246 126 q 1078 19 1153 39 q 899 0 1004 0 l 469 0 q 290 19 364 0 q 170 83 217 39 q 102 197 124 126 q 81 367 81 267 l 81 606 q 102 775 81 706 q 170 888 124 844 q 290 952 217 932 q 469 972 364 972 l 899 972 m 293 382 q 302 291 293 328 q 332 233 311 254 q 388 202 353 211 q 478 193 424 193 l 890 193 q 980 202 944 193 q 1036 233 1015 211 q 1066 291 1057 254 q 1075 382 1075 328 l 1075 590 q 1066 681 1075 644 q 1036 740 1057 718 q 980 770 1015 761 q 890 779 944 779 l 478 779 q 388 770 424 779 q 332 740 353 761 q 302 681 311 718 q 293 590 293 644 l 293 382 m 858 1272 q 881 1265 874 1272 q 878 1246 888 1258 l 736 1042 q 719 1022 728 1028 q 694 1015 710 1015 l 589 1015 q 567 1022 574 1015 q 568 1042 560 1029 l 692 1246 q 735 1272 707 1272 l 858 1272 z "},"Ô":{"ha":1368,"x_min":81,"x_max":1288,"o":"m 81 0 m 899 972 q 1078 952 1004 972 q 1199 888 1153 932 q 1267 775 1246 844 q 1288 606 1288 706 l 1288 367 q 1267 197 1288 267 q 1199 83 1246 126 q 1078 19 1153 39 q 899 0 1004 0 l 469 0 q 290 19 364 0 q 170 83 217 39 q 102 197 124 126 q 81 367 81 267 l 81 606 q 102 775 81 706 q 170 888 124 844 q 290 952 217 932 q 469 972 364 972 l 899 972 m 293 382 q 302 291 293 328 q 332 233 311 254 q 388 202 353 211 q 478 193 424 193 l 890 193 q 980 202 944 193 q 1036 233 1015 211 q 1066 291 1057 254 q 1075 382 1075 328 l 1075 590 q 1066 681 1075 644 q 1036 740 1057 718 q 980 770 1015 761 q 890 779 944 779 l 478 779 q 388 770 424 779 q 332 740 353 761 q 302 681 311 718 q 293 590 293 644 l 293 382 m 744 1272 q 781 1265 768 1272 q 806 1242 794 1257 l 951 1044 q 955 1024 961 1032 q 935 1015 949 1015 l 826 1015 q 783 1040 799 1015 l 704 1160 q 686 1171 699 1171 l 681 1171 q 663 1160 668 1171 l 582 1040 q 565 1021 575 1026 q 539 1015 556 1015 l 432 1015 q 410 1024 417 1015 q 414 1044 404 1032 l 561 1242 q 585 1265 572 1257 q 621 1272 597 1272 l 744 1272 z "},"Õ":{"ha":1368,"x_min":81,"x_max":1288,"o":"m 81 0 m 899 972 q 1078 952 1004 972 q 1199 888 1153 932 q 1267 775 1246 844 q 1288 606 1288 706 l 1288 367 q 1267 197 1288 267 q 1199 83 1246 126 q 1078 19 1153 39 q 899 0 1004 0 l 469 0 q 290 19 364 0 q 170 83 217 39 q 102 197 124 126 q 81 367 81 267 l 81 606 q 102 775 81 706 q 170 888 124 844 q 290 952 217 932 q 469 972 364 972 l 899 972 m 293 382 q 302 291 293 328 q 332 233 311 254 q 388 202 353 211 q 478 193 424 193 l 890 193 q 980 202 944 193 q 1036 233 1015 211 q 1066 291 1057 254 q 1075 382 1075 328 l 1075 590 q 1066 681 1075 644 q 1036 740 1057 718 q 980 770 1015 761 q 890 779 944 779 l 478 779 q 388 770 424 779 q 332 740 353 761 q 302 681 311 718 q 293 590 293 644 l 293 382 m 353 1032 q 332 1041 336 1032 q 328 1072 328 1050 q 338 1167 328 1129 q 368 1226 347 1204 q 422 1258 389 1249 q 501 1267 456 1267 q 630 1247 576 1267 q 731 1189 683 1226 q 775 1158 754 1169 q 836 1146 796 1146 q 869 1150 857 1146 q 888 1165 882 1154 q 897 1195 894 1176 q 900 1242 900 1214 q 938 1272 901 1272 l 1017 1272 q 1037 1263 1032 1272 q 1042 1232 1042 1254 q 1032 1138 1042 1175 q 1001 1078 1022 1100 q 946 1047 979 1056 q 867 1038 913 1038 q 739 1058 792 1038 q 639 1115 686 1078 q 594 1147 615 1135 q 532 1158 572 1158 q 481 1138 492 1158 q 469 1063 469 1118 q 431 1032 468 1032 l 353 1032 z "},"Ö":{"ha":1368,"x_min":81,"x_max":1288,"o":"m 81 0 m 899 972 q 1078 952 1004 972 q 1199 888 1153 932 q 1267 775 1246 844 q 1288 606 1288 706 l 1288 367 q 1267 197 1288 267 q 1199 83 1246 126 q 1078 19 1153 39 q 899 0 1004 0 l 469 0 q 290 19 364 0 q 170 83 217 39 q 102 197 124 126 q 81 367 81 267 l 81 606 q 102 775 81 706 q 170 888 124 844 q 290 952 217 932 q 469 972 364 972 l 899 972 m 293 382 q 302 291 293 328 q 332 233 311 254 q 388 202 353 211 q 478 193 424 193 l 890 193 q 980 202 944 193 q 1036 233 1015 211 q 1066 291 1057 254 q 1075 382 1075 328 l 1075 590 q 1066 681 1075 644 q 1036 740 1057 718 q 980 770 1015 761 q 890 779 944 779 l 478 779 q 388 770 424 779 q 332 740 353 761 q 302 681 311 718 q 293 590 293 644 l 293 382 m 558 1229 q 589 1204 589 1229 l 589 1072 q 558 1047 589 1047 l 422 1047 q 392 1072 392 1047 l 392 1204 q 422 1229 392 1229 l 558 1229 m 946 1229 q 978 1204 978 1229 l 978 1072 q 946 1047 978 1047 l 810 1047 q 779 1072 779 1047 l 779 1204 q 810 1229 779 1229 l 946 1229 z "},"×":{"ha":851,"x_min":68,"x_max":783,"o":"m 146 825 q 182 825 163 842 l 425 581 l 669 825 q 704 825 686 842 l 764 765 q 764 731 781 747 l 519 486 l 764 242 q 764 206 783 225 l 706 147 q 669 147 686 131 l 425 392 l 181 147 q 146 147 163 129 l 86 206 q 86 242 69 225 l 331 486 l 88 731 q 88 765 68 747 l 146 825 z "},"Ø":{"ha":1368,"x_min":81,"x_max":1288,"o":"m 899 972 q 937 972 918 972 q 974 969 956 971 l 1064 1089 q 1085 1108 1075 1104 q 1108 1111 1096 1111 l 1192 1111 q 1208 1103 1203 1111 q 1203 1085 1213 1096 l 1099 946 q 1243 831 1199 913 q 1288 606 1288 749 l 1288 367 q 1267 197 1288 267 q 1199 83 1246 126 q 1078 19 1153 39 q 899 0 1004 0 l 469 0 q 430 0 449 0 q 392 3 411 0 l 303 -117 q 281 -135 292 -132 q 258 -139 271 -139 l 175 -139 q 159 -131 164 -139 q 164 -112 154 -124 l 268 26 q 124 142 168 60 q 81 367 81 224 l 81 606 q 102 775 81 706 q 170 888 124 844 q 290 952 217 932 q 469 972 364 972 l 899 972 m 1075 590 q 1052 718 1075 676 q 968 772 1029 760 l 535 193 l 890 193 q 980 202 944 193 q 1036 233 1015 211 q 1066 291 1057 254 q 1075 382 1075 328 l 1075 590 m 293 382 q 315 253 293 296 q 397 199 338 211 l 832 779 l 478 779 q 388 770 424 779 q 332 740 353 761 q 302 681 311 718 q 293 590 293 644 l 293 382 z "},"Ù":{"ha":1357,"x_min":89,"x_max":1267,"o":"m 89 0 m 271 972 q 301 942 301 972 l 301 388 q 310 295 301 332 q 340 237 319 258 q 397 206 361 215 q 486 197 432 197 l 871 197 q 960 206 925 197 q 1017 237 996 215 q 1046 295 1038 258 q 1054 388 1054 332 l 1054 942 q 1085 972 1054 972 l 1236 972 q 1267 942 1267 972 l 1267 367 q 1246 197 1267 267 q 1178 83 1225 126 q 1058 19 1132 39 q 878 0 983 0 l 478 0 q 299 19 372 0 q 178 83 225 39 q 110 197 132 126 q 89 367 89 267 l 89 942 q 121 972 89 972 l 271 972 m 625 1272 q 668 1246 653 1272 l 793 1042 q 794 1022 800 1029 q 771 1015 788 1015 l 665 1015 q 641 1022 650 1015 q 624 1042 632 1028 l 482 1246 q 480 1265 472 1258 q 501 1272 488 1272 l 625 1272 z "},"Ú":{"ha":1357,"x_min":89,"x_max":1267,"o":"m 89 0 m 271 972 q 301 942 301 972 l 301 388 q 310 295 301 332 q 340 237 319 258 q 397 206 361 215 q 486 197 432 197 l 871 197 q 960 206 925 197 q 1017 237 996 215 q 1046 295 1038 258 q 1054 388 1054 332 l 1054 942 q 1085 972 1054 972 l 1236 972 q 1267 942 1267 972 l 1267 367 q 1246 197 1267 267 q 1178 83 1225 126 q 1058 19 1132 39 q 878 0 983 0 l 478 0 q 299 19 372 0 q 178 83 225 39 q 110 197 132 126 q 89 367 89 267 l 89 942 q 121 972 89 972 l 271 972 m 853 1272 q 875 1265 868 1272 q 872 1246 882 1258 l 731 1042 q 713 1022 722 1028 q 689 1015 704 1015 l 583 1015 q 561 1022 568 1015 q 563 1042 554 1029 l 686 1246 q 729 1272 701 1272 l 853 1272 z "},"Û":{"ha":1357,"x_min":89,"x_max":1267,"o":"m 89 0 m 271 972 q 301 942 301 972 l 301 388 q 310 295 301 332 q 340 237 319 258 q 397 206 361 215 q 486 197 432 197 l 871 197 q 960 206 925 197 q 1017 237 996 215 q 1046 295 1038 258 q 1054 388 1054 332 l 1054 942 q 1085 972 1054 972 l 1236 972 q 1267 942 1267 972 l 1267 367 q 1246 197 1267 267 q 1178 83 1225 126 q 1058 19 1132 39 q 878 0 983 0 l 478 0 q 299 19 372 0 q 178 83 225 39 q 110 197 132 126 q 89 367 89 267 l 89 942 q 121 972 89 972 l 271 972 m 739 1272 q 776 1265 763 1272 q 800 1242 789 1257 l 946 1044 q 949 1024 956 1032 q 929 1015 943 1015 l 821 1015 q 778 1040 793 1015 l 699 1160 q 681 1171 693 1171 l 675 1171 q 657 1160 663 1171 l 576 1040 q 560 1021 569 1026 q 533 1015 550 1015 l 426 1015 q 405 1024 411 1015 q 408 1044 399 1032 l 556 1242 q 579 1265 567 1257 q 615 1272 592 1272 l 739 1272 z "},"Ü":{"ha":1357,"x_min":89,"x_max":1267,"o":"m 89 0 m 271 972 q 301 942 301 972 l 301 388 q 310 295 301 332 q 340 237 319 258 q 397 206 361 215 q 486 197 432 197 l 871 197 q 960 206 925 197 q 1017 237 996 215 q 1046 295 1038 258 q 1054 388 1054 332 l 1054 942 q 1085 972 1054 972 l 1236 972 q 1267 942 1267 972 l 1267 367 q 1246 197 1267 267 q 1178 83 1225 126 q 1058 19 1132 39 q 878 0 983 0 l 478 0 q 299 19 372 0 q 178 83 225 39 q 110 197 132 126 q 89 367 89 267 l 89 942 q 121 972 89 972 l 271 972 m 551 1229 q 582 1204 582 1229 l 582 1072 q 551 1047 582 1047 l 415 1047 q 385 1072 385 1047 l 385 1204 q 415 1229 385 1229 l 551 1229 m 939 1229 q 971 1204 971 1229 l 971 1072 q 939 1047 971 1047 l 803 1047 q 772 1072 772 1047 l 772 1204 q 803 1229 772 1229 l 939 1229 z "},"Ý":{"ha":1244,"x_min":14,"x_max":1232,"o":"m 14 0 m 219 972 q 253 956 242 972 l 624 454 l 997 956 q 1031 972 1008 972 l 1213 972 q 1228 963 1224 972 q 1225 944 1232 954 l 726 297 l 726 31 q 696 0 726 0 l 546 0 q 514 31 514 0 l 514 297 l 21 944 q 17 963 14 954 q 33 972 21 972 l 219 972 m 799 1272 q 821 1265 814 1272 q 818 1246 828 1258 l 676 1042 q 659 1022 668 1028 q 635 1015 650 1015 l 529 1015 q 507 1022 514 1015 q 508 1042 500 1029 l 632 1246 q 675 1272 647 1272 l 799 1272 z "},"Þ":{"ha":1233,"x_min":92,"x_max":1178,"o":"m 274 972 q 304 942 304 972 l 304 793 l 885 793 q 1110 722 1042 793 q 1178 515 1178 651 l 1178 435 q 1110 228 1178 299 q 885 157 1042 157 l 304 157 l 304 31 q 274 0 304 0 l 124 0 q 92 31 92 0 l 92 942 q 124 972 92 972 l 274 972 m 304 340 l 843 340 q 938 369 911 340 q 965 457 965 397 l 965 493 q 938 581 965 553 q 843 610 911 610 l 304 610 l 304 340 z "},"ß":{"ha":1272,"x_min":88,"x_max":1196,"o":"m 522 1068 q 655 1052 603 1068 q 738 1003 707 1036 q 782 917 769 969 q 794 792 794 865 l 794 656 q 808 608 794 624 q 858 592 822 592 l 979 592 q 1145 541 1094 592 q 1196 375 1196 490 l 1196 225 q 1148 58 1196 115 q 978 0 1100 0 l 456 0 q 431 25 431 0 l 431 139 q 456 164 431 164 l 910 164 q 978 187 958 164 q 999 254 999 210 l 999 343 q 976 410 999 389 q 908 431 954 431 l 801 431 q 642 478 689 431 q 596 617 596 525 l 596 792 q 574 877 596 850 q 488 904 551 904 l 401 904 q 310 877 333 904 q 286 792 286 850 l 286 31 q 256 0 286 0 l 119 0 q 88 31 88 0 l 88 792 q 100 917 88 865 q 144 1003 113 969 q 231 1052 176 1036 q 368 1068 285 1068 l 522 1068 z "},"à":{"ha":1096,"x_min":57,"x_max":1035,"o":"m 57 0 m 704 763 q 861 747 797 763 q 963 697 925 731 q 1018 609 1001 663 q 1035 481 1035 556 l 1035 111 q 1030 56 1035 78 q 1013 22 1025 35 q 982 5 1001 10 q 932 0 963 0 l 271 0 q 169 12 210 0 q 103 47 128 24 q 67 108 78 71 q 57 197 57 146 l 57 264 q 67 341 57 307 q 103 399 78 375 q 169 434 128 422 q 271 446 210 446 l 836 446 l 836 472 q 829 529 836 506 q 806 567 822 553 q 760 589 789 582 q 685 596 731 596 l 104 596 q 79 621 79 596 l 79 738 q 104 763 79 763 l 704 763 m 796 153 q 827 163 818 153 q 836 200 836 174 l 836 322 l 328 322 q 267 305 285 322 q 250 254 250 288 l 250 225 q 267 170 250 188 q 328 153 285 153 l 796 153 m 499 1133 q 542 1101 526 1133 l 668 844 q 669 821 675 829 q 646 813 663 813 l 542 813 q 516 821 525 813 q 499 844 507 829 l 356 1101 q 354 1125 347 1117 q 376 1133 361 1133 l 499 1133 z "},"á":{"ha":1096,"x_min":57,"x_max":1035,"o":"m 57 0 m 704 763 q 861 747 797 763 q 963 697 925 731 q 1018 609 1001 663 q 1035 481 1035 556 l 1035 111 q 1030 56 1035 78 q 1013 22 1025 35 q 982 5 1001 10 q 932 0 963 0 l 271 0 q 169 12 210 0 q 103 47 128 24 q 67 108 78 71 q 57 197 57 146 l 57 264 q 67 341 57 307 q 103 399 78 375 q 169 434 128 422 q 271 446 210 446 l 836 446 l 836 472 q 829 529 836 506 q 806 567 822 553 q 760 589 789 582 q 685 596 731 596 l 104 596 q 79 621 79 596 l 79 738 q 104 763 79 763 l 704 763 m 796 153 q 827 163 818 153 q 836 200 836 174 l 836 322 l 328 322 q 267 305 285 322 q 250 254 250 288 l 250 225 q 267 170 250 188 q 328 153 285 153 l 796 153 m 725 1133 q 747 1125 740 1133 q 746 1101 754 1117 l 603 844 q 585 821 594 829 q 561 813 576 813 l 456 813 q 433 821 440 813 q 433 844 426 829 l 560 1101 q 603 1133 575 1133 l 725 1133 z "},"â":{"ha":1096,"x_min":57,"x_max":1035,"o":"m 57 0 m 704 763 q 861 747 797 763 q 963 697 925 731 q 1018 609 1001 663 q 1035 481 1035 556 l 1035 111 q 1030 56 1035 78 q 1013 22 1025 35 q 982 5 1001 10 q 932 0 963 0 l 271 0 q 169 12 210 0 q 103 47 128 24 q 67 108 78 71 q 57 197 57 146 l 57 264 q 67 341 57 307 q 103 399 78 375 q 169 434 128 422 q 271 446 210 446 l 836 446 l 836 472 q 829 529 836 506 q 806 567 822 553 q 760 589 789 582 q 685 596 731 596 l 104 596 q 79 621 79 596 l 79 738 q 104 763 79 763 l 704 763 m 796 153 q 827 163 818 153 q 836 200 836 174 l 836 322 l 328 322 q 267 305 285 322 q 250 254 250 288 l 250 225 q 267 170 250 188 q 328 153 285 153 l 796 153 m 608 1133 q 644 1125 632 1133 q 668 1099 657 1117 l 815 847 q 819 822 825 832 q 797 813 813 813 l 690 813 q 664 820 674 813 q 647 843 654 828 l 567 997 q 550 1010 560 1010 l 544 1010 q 526 997 532 1010 l 446 843 q 429 820 439 828 q 403 813 419 813 l 296 813 q 274 822 281 813 q 278 847 268 832 l 425 1099 q 449 1125 436 1117 q 485 1133 461 1133 l 608 1133 z "},"ã":{"ha":1096,"x_min":57,"x_max":1035,"o":"m 57 0 m 704 763 q 861 747 797 763 q 963 697 925 731 q 1018 609 1001 663 q 1035 481 1035 556 l 1035 111 q 1030 56 1035 78 q 1013 22 1025 35 q 982 5 1001 10 q 932 0 963 0 l 271 0 q 169 12 210 0 q 103 47 128 24 q 67 108 78 71 q 57 197 57 146 l 57 264 q 67 341 57 307 q 103 399 78 375 q 169 434 128 422 q 271 446 210 446 l 836 446 l 836 472 q 829 529 836 506 q 806 567 822 553 q 760 589 789 582 q 685 596 731 596 l 104 596 q 79 621 79 596 l 79 738 q 104 763 79 763 l 704 763 m 796 153 q 827 163 818 153 q 836 200 836 174 l 836 322 l 328 322 q 267 305 285 322 q 250 254 250 288 l 250 225 q 267 170 250 188 q 328 153 285 153 l 796 153 m 217 836 q 195 846 200 836 q 190 879 190 856 q 200 981 190 940 q 231 1047 210 1022 q 285 1081 253 1071 q 364 1090 318 1090 q 493 1069 440 1090 q 594 1007 546 1047 q 638 975 617 988 q 700 963 660 963 q 752 983 742 963 q 763 1061 763 1003 q 774 1088 764 1081 q 801 1094 783 1094 l 879 1094 q 900 1085 896 1094 q 904 1051 904 1075 q 894 949 904 990 q 864 884 885 908 q 810 850 843 860 q 732 840 778 840 q 603 862 656 840 q 501 924 550 883 q 458 956 479 943 q 396 968 436 968 q 344 948 354 968 q 332 869 333 928 q 322 843 332 850 q 294 836 313 836 l 217 836 z "},"ä":{"ha":1096,"x_min":57,"x_max":1035,"o":"m 57 0 m 704 763 q 861 747 797 763 q 963 697 925 731 q 1018 609 1001 663 q 1035 481 1035 556 l 1035 111 q 1030 56 1035 78 q 1013 22 1025 35 q 982 5 1001 10 q 932 0 963 0 l 271 0 q 169 12 210 0 q 103 47 128 24 q 67 108 78 71 q 57 197 57 146 l 57 264 q 67 341 57 307 q 103 399 78 375 q 169 434 128 422 q 271 446 210 446 l 836 446 l 836 472 q 829 529 836 506 q 806 567 822 553 q 760 589 789 582 q 685 596 731 596 l 104 596 q 79 621 79 596 l 79 738 q 104 763 79 763 l 704 763 m 796 153 q 827 163 818 153 q 836 200 836 174 l 836 322 l 328 322 q 267 305 285 322 q 250 254 250 288 l 250 225 q 267 170 250 188 q 328 153 285 153 l 796 153 m 810 1044 q 840 1014 840 1044 l 840 882 q 810 850 840 850 l 674 850 q 643 882 643 850 l 643 1014 q 674 1044 643 1044 l 810 1044 m 422 1044 q 453 1014 453 1044 l 453 882 q 422 850 453 850 l 286 850 q 254 882 254 850 l 254 1014 q 286 1044 254 1044 l 422 1044 z "},"å":{"ha":1096,"x_min":57,"x_max":1035,"o":"m 57 0 m 704 763 q 861 747 797 763 q 963 697 925 731 q 1018 609 1001 663 q 1035 481 1035 556 l 1035 111 q 1030 56 1035 78 q 1013 22 1025 35 q 982 5 1001 10 q 932 0 963 0 l 271 0 q 169 12 210 0 q 103 47 128 24 q 67 108 78 71 q 57 197 57 146 l 57 264 q 67 341 57 307 q 103 399 78 375 q 169 434 128 422 q 271 446 210 446 l 836 446 l 836 472 q 829 529 836 506 q 806 567 822 553 q 760 589 789 582 q 685 596 731 596 l 104 596 q 79 621 79 596 l 79 738 q 104 763 79 763 l 704 763 m 796 153 q 827 163 818 153 q 836 200 836 174 l 836 322 l 328 322 q 267 305 285 322 q 250 254 250 288 l 250 225 q 267 170 250 188 q 328 153 285 153 l 796 153 m 628 1133 q 738 1103 706 1133 q 771 999 771 1072 l 771 911 q 738 807 771 838 q 628 776 706 776 l 471 776 q 360 807 393 776 q 328 911 328 838 l 328 999 q 360 1103 328 1072 q 471 1133 393 1133 l 628 1133 m 431 929 q 442 881 431 893 q 490 868 454 868 l 610 868 q 656 881 644 868 q 668 929 668 893 l 668 981 q 656 1029 668 1017 q 610 1042 644 1042 l 490 1042 q 442 1029 454 1042 q 431 981 431 1017 l 431 929 z "},"æ":{"ha":1881,"x_min":57,"x_max":1821,"o":"m 1581 763 q 1698 751 1651 763 q 1772 712 1744 739 q 1810 641 1799 685 q 1821 535 1821 597 l 1821 403 q 1801 341 1821 358 q 1742 324 1782 324 l 1040 324 l 1040 290 q 1072 196 1040 225 q 1193 167 1103 167 l 1772 167 q 1797 142 1797 167 l 1797 25 q 1772 0 1797 0 l 1165 0 q 1000 17 1067 0 q 924 0 978 0 l 271 0 q 169 12 210 0 q 103 47 128 24 q 67 108 78 71 q 57 197 57 146 l 57 264 q 67 341 57 307 q 103 399 78 375 q 169 434 128 422 q 271 446 210 446 l 836 446 l 836 472 q 829 529 836 506 q 806 567 822 553 q 760 589 789 582 q 685 596 731 596 l 104 596 q 79 621 79 596 l 79 738 q 104 763 79 763 l 704 763 q 939 715 861 763 q 1174 763 1015 763 l 1581 763 m 796 153 q 827 163 818 153 q 836 200 836 174 l 836 322 l 328 322 q 267 305 285 322 q 250 254 250 288 l 250 225 q 267 170 250 188 q 328 153 285 153 l 796 153 m 1040 447 l 1603 447 q 1626 471 1626 447 l 1626 529 q 1608 590 1626 572 q 1542 608 1590 608 l 1193 608 q 1072 580 1103 608 q 1040 485 1040 551 l 1040 447 z "},"ç":{"ha":1013,"x_min":54,"x_max":968,"o":"m 54 0 m 943 763 q 968 738 968 763 l 968 621 q 943 596 968 596 l 404 596 q 329 588 358 596 q 283 563 300 581 q 260 516 267 546 q 253 443 253 486 l 253 319 q 260 246 253 275 q 283 199 267 217 q 329 174 300 182 q 404 167 358 167 l 943 167 q 968 142 968 167 l 968 25 q 943 0 968 0 l 385 0 q 227 15 290 0 q 126 65 164 31 q 71 152 88 99 q 54 281 54 206 l 54 481 q 71 609 54 556 q 126 697 88 663 q 227 747 164 731 q 385 763 290 763 l 943 763 m 608 -57 q 635 -93 643 -57 l 574 -346 q 539 -378 565 -378 l 460 -378 q 428 -346 425 -378 l 450 -89 q 483 -57 453 -57 l 608 -57 z "},"è":{"ha":1096,"x_min":57,"x_max":1035,"o":"m 57 0 m 794 763 q 912 751 865 763 q 985 712 958 739 q 1024 641 1013 685 q 1035 535 1035 597 l 1035 403 q 1015 341 1035 358 q 956 324 996 324 l 254 324 l 254 290 q 285 196 254 225 q 407 167 317 167 l 986 167 q 1011 142 1011 167 l 1011 25 q 986 0 1011 0 l 388 0 q 230 15 293 0 q 128 65 167 31 q 74 152 90 99 q 57 281 57 206 l 57 481 q 74 609 57 556 q 128 697 90 663 q 230 747 167 731 q 388 763 293 763 l 794 763 m 254 447 l 817 447 q 840 471 840 447 l 840 529 q 822 590 840 572 q 756 608 804 608 l 407 608 q 285 580 317 608 q 254 485 254 551 l 254 447 m 494 1133 q 538 1101 522 1133 l 664 844 q 665 821 671 829 q 642 813 658 813 l 538 813 q 512 821 521 813 q 494 844 503 829 l 351 1101 q 350 1125 343 1117 q 372 1133 357 1133 l 494 1133 z "},"é":{"ha":1096,"x_min":57,"x_max":1035,"o":"m 57 0 m 794 763 q 912 751 865 763 q 985 712 958 739 q 1024 641 1013 685 q 1035 535 1035 597 l 1035 403 q 1015 341 1035 358 q 956 324 996 324 l 254 324 l 254 290 q 285 196 254 225 q 407 167 317 167 l 986 167 q 1011 142 1011 167 l 1011 25 q 986 0 1011 0 l 388 0 q 230 15 293 0 q 128 65 167 31 q 74 152 90 99 q 57 281 57 206 l 57 481 q 74 609 57 556 q 128 697 90 663 q 230 747 167 731 q 388 763 293 763 l 794 763 m 254 447 l 817 447 q 840 471 840 447 l 840 529 q 822 590 840 572 q 756 608 804 608 l 407 608 q 285 580 317 608 q 254 485 254 551 l 254 447 m 724 1133 q 746 1125 739 1133 q 744 1101 753 1117 l 601 844 q 584 821 593 829 q 560 813 575 813 l 454 813 q 432 821 439 813 q 432 844 425 829 l 558 1101 q 601 1133 574 1133 l 724 1133 z "},"ê":{"ha":1096,"x_min":57,"x_max":1035,"o":"m 57 0 m 794 763 q 912 751 865 763 q 985 712 958 739 q 1024 641 1013 685 q 1035 535 1035 597 l 1035 403 q 1015 341 1035 358 q 956 324 996 324 l 254 324 l 254 290 q 285 196 254 225 q 407 167 317 167 l 986 167 q 1011 142 1011 167 l 1011 25 q 986 0 1011 0 l 388 0 q 230 15 293 0 q 128 65 167 31 q 74 152 90 99 q 57 281 57 206 l 57 481 q 74 609 57 556 q 128 697 90 663 q 230 747 167 731 q 388 763 293 763 l 794 763 m 254 447 l 817 447 q 840 471 840 447 l 840 529 q 822 590 840 572 q 756 608 804 608 l 407 608 q 285 580 317 608 q 254 485 254 551 l 254 447 m 608 1133 q 644 1125 632 1133 q 668 1099 657 1117 l 815 847 q 819 822 825 832 q 797 813 813 813 l 690 813 q 664 820 674 813 q 647 843 654 828 l 567 997 q 550 1010 560 1010 l 544 1010 q 526 997 532 1010 l 446 843 q 429 820 439 828 q 403 813 419 813 l 296 813 q 274 822 281 813 q 278 847 268 832 l 425 1099 q 449 1125 436 1117 q 485 1133 461 1133 l 608 1133 z "},"ë":{"ha":1096,"x_min":57,"x_max":1035,"o":"m 57 0 m 794 763 q 912 751 865 763 q 985 712 958 739 q 1024 641 1013 685 q 1035 535 1035 597 l 1035 403 q 1015 341 1035 358 q 956 324 996 324 l 254 324 l 254 290 q 285 196 254 225 q 407 167 317 167 l 986 167 q 1011 142 1011 167 l 1011 25 q 986 0 1011 0 l 388 0 q 230 15 293 0 q 128 65 167 31 q 74 152 90 99 q 57 281 57 206 l 57 481 q 74 609 57 556 q 128 697 90 663 q 230 747 167 731 q 388 763 293 763 l 794 763 m 254 447 l 817 447 q 840 471 840 447 l 840 529 q 822 590 840 572 q 756 608 804 608 l 407 608 q 285 580 317 608 q 254 485 254 551 l 254 447 m 810 1044 q 840 1014 840 1044 l 840 882 q 810 850 840 850 l 674 850 q 643 882 643 850 l 643 1014 q 674 1044 643 1044 l 810 1044 m 422 1044 q 453 1014 453 1044 l 453 882 q 422 850 453 850 l 286 850 q 254 882 254 850 l 254 1014 q 286 1044 254 1044 l 422 1044 z "},"ì":{"ha":389,"x_min":-4,"x_max":324,"o":"m 0 0 m 147 1133 q 190 1101 175 1133 l 317 844 q 317 821 324 829 q 294 813 311 813 l 190 813 q 165 821 174 813 q 147 844 156 829 l 4 1101 q 3 1125 -4 1117 q 25 1133 10 1133 l 147 1133 m 269 763 q 300 731 300 763 l 300 31 q 269 0 300 0 l 133 0 q 103 31 103 0 l 103 731 q 133 763 103 763 l 269 763 z "},"í":{"ha":390,"x_min":65,"x_max":393,"o":"m 65 0 m 364 1133 q 386 1125 379 1133 q 385 1101 393 1117 l 242 844 q 224 821 233 829 q 200 813 215 813 l 94 813 q 72 821 79 813 q 72 844 65 829 l 199 1101 q 242 1133 214 1133 l 364 1133 m 256 763 q 286 731 286 763 l 286 31 q 256 0 286 0 l 119 0 q 89 31 89 0 l 89 731 q 119 763 89 763 l 256 763 z "},"î":{"ha":507,"x_min":-25,"x_max":532,"o":"m 0 0 m 321 763 q 351 731 351 763 l 351 31 q 321 0 351 0 l 185 0 q 154 31 154 0 l 154 731 q 185 763 154 763 l 321 763 m 315 1133 q 351 1125 339 1133 q 375 1099 364 1117 l 522 847 q 526 822 532 832 q 504 813 519 813 l 397 813 q 371 820 381 813 q 354 843 361 828 l 274 997 q 257 1010 267 1010 l 251 1010 q 233 997 239 1010 l 153 843 q 136 820 146 828 q 110 813 126 813 l 3 813 q -19 822 -12 813 q -15 847 -25 832 l 132 1099 q 156 1125 143 1117 q 192 1133 168 1133 l 315 1133 z "},"ï":{"ha":533,"x_min":4,"x_max":526,"o":"m 4 0 m 335 763 q 365 731 365 763 l 365 31 q 335 0 365 0 l 199 0 q 168 31 168 0 l 168 731 q 199 763 168 763 l 335 763 m 496 1044 q 526 1014 526 1044 l 526 882 q 496 850 526 850 l 360 850 q 328 882 328 850 l 328 1014 q 360 1044 328 1044 l 496 1044 m 172 1044 q 203 1014 203 1044 l 203 882 q 172 850 203 850 l 36 850 q 4 882 4 850 l 4 1014 q 36 1044 4 1044 l 172 1044 z "},"ð":{"ha":1210,"x_min":75,"x_max":1125,"o":"m 664 1200 q 681 1175 690 1200 l 636 1079 l 794 1079 q 952 1063 889 1079 q 1054 1013 1015 1047 q 1109 924 1093 978 q 1125 794 1125 871 l 1125 285 q 1109 154 1125 208 q 1054 66 1093 100 q 952 16 1015 32 q 794 0 889 0 l 406 0 q 248 16 311 0 q 147 66 185 32 q 92 154 108 100 q 75 285 75 208 l 75 390 q 92 520 75 467 q 147 608 108 574 q 248 658 185 642 q 406 674 311 674 l 928 674 l 928 775 q 897 879 928 847 q 776 911 865 911 l 558 911 l 494 772 q 485 756 490 761 q 467 750 481 750 l 372 750 q 356 757 361 750 q 356 776 350 764 l 418 911 l 297 911 q 272 936 272 911 l 272 1054 q 297 1079 272 1079 l 496 1079 l 542 1178 q 551 1195 546 1190 q 569 1200 556 1200 l 664 1200 m 775 167 q 851 174 821 167 q 897 200 881 182 q 921 248 914 218 q 928 324 928 278 l 928 529 l 425 529 q 350 522 379 529 q 303 496 321 514 q 280 448 286 478 q 274 374 274 418 l 274 322 q 281 248 274 278 q 306 200 288 218 q 354 174 324 182 q 433 167 385 167 l 775 167 z "},"ñ":{"ha":1228,"x_min":83,"x_max":1143,"o":"m 83 0 m 813 763 q 969 747 906 763 q 1072 697 1033 731 q 1126 609 1110 663 q 1143 481 1143 556 l 1143 31 q 1113 0 1143 0 l 976 0 q 946 31 946 0 l 946 433 q 940 506 946 476 q 919 553 935 536 q 875 578 903 571 q 803 586 847 586 l 433 586 q 360 578 389 586 q 313 553 331 571 q 289 506 296 536 q 282 433 282 476 l 282 31 q 251 0 282 0 l 115 0 q 83 31 83 0 l 83 481 q 100 609 83 556 q 155 697 117 663 q 256 747 193 731 q 414 763 319 763 l 813 763 m 282 836 q 260 846 265 836 q 256 879 256 856 q 265 981 256 940 q 297 1047 275 1022 q 351 1081 318 1071 q 429 1090 383 1090 q 558 1069 506 1090 q 660 1007 611 1047 q 703 975 682 988 q 765 963 725 963 q 817 983 807 963 q 828 1061 828 1003 q 839 1088 829 1081 q 867 1094 849 1094 l 944 1094 q 965 1085 961 1094 q 969 1051 969 1075 q 960 949 969 990 q 929 884 950 908 q 876 850 908 860 q 797 840 843 840 q 668 862 721 840 q 567 924 615 883 q 523 956 544 943 q 461 968 501 968 q 409 948 419 968 q 397 869 399 928 q 388 843 397 850 q 360 836 378 836 l 282 836 z "},"ò":{"ha":1206,"x_min":75,"x_max":1129,"o":"m 75 0 m 799 763 q 956 747 892 763 q 1058 697 1019 731 q 1113 609 1096 663 q 1129 481 1129 556 l 1129 281 q 1113 152 1129 206 q 1058 65 1096 99 q 956 15 1019 31 q 799 0 892 0 l 406 0 q 248 15 311 0 q 147 65 185 31 q 92 152 108 99 q 75 281 75 206 l 75 481 q 92 609 75 556 q 147 697 108 663 q 248 747 185 731 q 406 763 311 763 l 799 763 m 274 315 q 281 242 274 271 q 305 195 288 213 q 351 170 322 178 q 425 163 381 163 l 779 163 q 854 170 825 163 q 901 195 883 178 q 925 242 918 213 q 932 315 932 271 l 932 447 q 925 519 932 490 q 901 567 918 549 q 854 592 883 585 q 779 599 825 599 l 425 599 q 351 592 381 599 q 305 567 322 585 q 281 519 288 549 q 274 447 274 490 l 274 315 m 550 1133 q 593 1101 578 1133 l 719 844 q 720 821 726 829 q 697 813 714 813 l 593 813 q 567 821 576 813 q 550 844 558 829 l 407 1101 q 406 1125 399 1117 q 428 1133 413 1133 l 550 1133 z "},"ó":{"ha":1206,"x_min":75,"x_max":1129,"o":"m 75 0 m 799 763 q 956 747 892 763 q 1058 697 1019 731 q 1113 609 1096 663 q 1129 481 1129 556 l 1129 281 q 1113 152 1129 206 q 1058 65 1096 99 q 956 15 1019 31 q 799 0 892 0 l 406 0 q 248 15 311 0 q 147 65 185 31 q 92 152 108 99 q 75 281 75 206 l 75 481 q 92 609 75 556 q 147 697 108 663 q 248 747 185 731 q 406 763 311 763 l 799 763 m 274 315 q 281 242 274 271 q 305 195 288 213 q 351 170 322 178 q 425 163 381 163 l 779 163 q 854 170 825 163 q 901 195 883 178 q 925 242 918 213 q 932 315 932 271 l 932 447 q 925 519 932 490 q 901 567 918 549 q 854 592 883 585 q 779 599 825 599 l 425 599 q 351 592 381 599 q 305 567 322 585 q 281 519 288 549 q 274 447 274 490 l 274 315 m 775 1133 q 797 1125 790 1133 q 796 1101 804 1117 l 653 844 q 635 821 644 829 q 611 813 626 813 l 506 813 q 483 821 490 813 q 483 844 476 829 l 610 1101 q 653 1133 625 1133 l 775 1133 z "},"ô":{"ha":1206,"x_min":75,"x_max":1129,"o":"m 75 0 m 799 763 q 956 747 892 763 q 1058 697 1019 731 q 1113 609 1096 663 q 1129 481 1129 556 l 1129 281 q 1113 152 1129 206 q 1058 65 1096 99 q 956 15 1019 31 q 799 0 892 0 l 406 0 q 248 15 311 0 q 147 65 185 31 q 92 152 108 99 q 75 281 75 206 l 75 481 q 92 609 75 556 q 147 697 108 663 q 248 747 185 731 q 406 763 311 763 l 799 763 m 274 315 q 281 242 274 271 q 305 195 288 213 q 351 170 322 178 q 425 163 381 163 l 779 163 q 854 170 825 163 q 901 195 883 178 q 925 242 918 213 q 932 315 932 271 l 932 447 q 925 519 932 490 q 901 567 918 549 q 854 592 883 585 q 779 599 825 599 l 425 599 q 351 592 381 599 q 305 567 322 585 q 281 519 288 549 q 274 447 274 490 l 274 315 m 663 1133 q 699 1125 686 1133 q 722 1099 711 1117 l 869 847 q 873 822 879 832 q 851 813 867 813 l 744 813 q 718 820 728 813 q 701 843 708 828 l 621 997 q 604 1010 614 1010 l 599 1010 q 581 997 586 1010 l 500 843 q 483 820 493 828 q 457 813 474 813 l 350 813 q 328 822 335 813 q 332 847 322 832 l 479 1099 q 503 1125 490 1117 q 539 1133 515 1133 l 663 1133 z "},"õ":{"ha":1206,"x_min":75,"x_max":1129,"o":"m 75 0 m 799 763 q 956 747 892 763 q 1058 697 1019 731 q 1113 609 1096 663 q 1129 481 1129 556 l 1129 281 q 1113 152 1129 206 q 1058 65 1096 99 q 956 15 1019 31 q 799 0 892 0 l 406 0 q 248 15 311 0 q 147 65 185 31 q 92 152 108 99 q 75 281 75 206 l 75 481 q 92 609 75 556 q 147 697 108 663 q 248 747 185 731 q 406 763 311 763 l 799 763 m 274 315 q 281 242 274 271 q 305 195 288 213 q 351 170 322 178 q 425 163 381 163 l 779 163 q 854 170 825 163 q 901 195 883 178 q 925 242 918 213 q 932 315 932 271 l 932 447 q 925 519 932 490 q 901 567 918 549 q 854 592 883 585 q 779 599 825 599 l 425 599 q 351 592 381 599 q 305 567 322 585 q 281 519 288 549 q 274 447 274 490 l 274 315 m 272 836 q 251 846 256 836 q 246 879 246 856 q 256 981 246 940 q 287 1047 265 1022 q 341 1081 308 1071 q 419 1090 374 1090 q 549 1069 496 1090 q 650 1007 601 1047 q 694 975 672 988 q 756 963 715 963 q 808 983 797 963 q 818 1061 818 1003 q 829 1088 819 1081 q 857 1094 839 1094 l 935 1094 q 956 1085 951 1094 q 960 1051 960 1075 q 950 949 960 990 q 919 884 940 908 q 866 850 899 860 q 788 840 833 840 q 658 862 711 840 q 557 924 606 883 q 513 956 535 943 q 451 968 492 968 q 399 948 410 968 q 388 869 389 928 q 378 843 388 850 q 350 836 368 836 l 272 836 z "},"ö":{"ha":1206,"x_min":75,"x_max":1129,"o":"m 75 0 m 799 763 q 956 747 892 763 q 1058 697 1019 731 q 1113 609 1096 663 q 1129 481 1129 556 l 1129 281 q 1113 152 1129 206 q 1058 65 1096 99 q 956 15 1019 31 q 799 0 892 0 l 406 0 q 248 15 311 0 q 147 65 185 31 q 92 152 108 99 q 75 281 75 206 l 75 481 q 92 609 75 556 q 147 697 108 663 q 248 747 185 731 q 406 763 311 763 l 799 763 m 274 315 q 281 242 274 271 q 305 195 288 213 q 351 170 322 178 q 425 163 381 163 l 779 163 q 854 170 825 163 q 901 195 883 178 q 925 242 918 213 q 932 315 932 271 l 932 447 q 925 519 932 490 q 901 567 918 549 q 854 592 883 585 q 779 599 825 599 l 425 599 q 351 592 381 599 q 305 567 322 585 q 281 519 288 549 q 274 447 274 490 l 274 315 m 864 1044 q 894 1014 894 1044 l 894 882 q 864 850 894 850 l 728 850 q 697 882 697 850 l 697 1014 q 728 1044 697 1044 l 864 1044 m 476 1044 q 507 1014 507 1044 l 507 882 q 476 850 507 850 l 340 850 q 308 882 308 850 l 308 1014 q 340 1044 308 1044 l 476 1044 z "},"÷":{"ha":851,"x_min":58,"x_max":793,"o":"m 58 74 m 768 553 q 793 528 793 553 l 793 444 q 768 419 793 419 l 83 419 q 58 444 58 419 l 58 528 q 83 553 58 553 l 768 553 m 494 268 q 525 238 525 268 l 525 104 q 494 74 525 74 l 358 74 q 326 104 326 74 l 326 238 q 358 268 326 268 l 494 268 m 494 899 q 525 868 525 899 l 525 735 q 494 704 525 704 l 358 704 q 326 735 326 704 l 326 868 q 358 899 326 899 l 494 899 z "},"ø":{"ha":1206,"x_min":75,"x_max":1129,"o":"m 799 763 q 878 758 840 763 l 979 869 q 999 888 990 883 q 1024 893 1007 893 l 1107 893 q 1124 884 1121 893 q 1119 865 1128 875 l 997 733 q 1099 642 1069 704 q 1129 481 1129 581 l 1129 281 q 1113 152 1129 206 q 1058 65 1096 99 q 956 15 1019 31 q 799 0 892 0 l 406 0 q 366 0 385 0 q 329 3 347 0 l 228 -108 q 208 -126 217 -121 q 183 -131 200 -131 l 100 -131 q 84 -122 88 -131 q 88 -104 81 -112 l 208 28 q 104 117 133 56 q 75 281 75 179 l 75 481 q 92 609 75 556 q 147 697 108 663 q 248 747 185 731 q 406 763 311 763 l 799 763 m 274 315 q 288 219 274 253 q 340 172 301 186 l 731 599 l 425 599 q 351 592 381 599 q 305 567 322 585 q 281 519 288 549 q 274 447 274 490 l 274 315 m 932 447 q 917 542 932 510 q 865 588 903 575 l 475 163 l 779 163 q 854 170 825 163 q 901 195 883 178 q 925 242 918 213 q 932 315 932 271 l 932 447 z "},"ù":{"ha":1217,"x_min":83,"x_max":1132,"o":"m 83 0 m 251 763 q 282 731 282 763 l 282 329 q 288 256 282 285 q 308 209 293 226 q 351 184 324 192 q 425 176 379 176 l 782 176 q 857 184 828 176 q 903 209 886 192 q 928 256 921 226 q 935 329 935 285 l 935 731 q 965 763 935 763 l 1101 763 q 1132 731 1132 763 l 1132 281 q 1115 152 1132 206 q 1060 65 1099 99 q 958 15 1022 31 q 801 0 894 0 l 414 0 q 256 15 319 0 q 155 65 193 31 q 100 152 117 99 q 83 281 83 206 l 83 731 q 115 763 83 763 l 251 763 m 556 1133 q 599 1101 583 1133 l 725 844 q 726 821 732 829 q 703 813 719 813 l 599 813 q 573 821 582 813 q 556 844 564 829 l 413 1101 q 411 1125 404 1117 q 433 1133 418 1133 l 556 1133 z "},"ú":{"ha":1217,"x_min":83,"x_max":1132,"o":"m 83 0 m 251 763 q 282 731 282 763 l 282 329 q 288 256 282 285 q 308 209 293 226 q 351 184 324 192 q 425 176 379 176 l 782 176 q 857 184 828 176 q 903 209 886 192 q 928 256 921 226 q 935 329 935 285 l 935 731 q 965 763 935 763 l 1101 763 q 1132 731 1132 763 l 1132 281 q 1115 152 1132 206 q 1060 65 1099 99 q 958 15 1022 31 q 801 0 894 0 l 414 0 q 256 15 319 0 q 155 65 193 31 q 100 152 117 99 q 83 281 83 206 l 83 731 q 115 763 83 763 l 251 763 m 783 1133 q 806 1125 799 1133 q 804 1101 813 1117 l 661 844 q 644 821 653 829 q 619 813 635 813 l 514 813 q 492 821 499 813 q 492 844 485 829 l 618 1101 q 661 1133 633 1133 l 783 1133 z "},"û":{"ha":1217,"x_min":83,"x_max":1132,"o":"m 83 0 m 251 763 q 282 731 282 763 l 282 329 q 288 256 282 285 q 308 209 293 226 q 351 184 324 192 q 425 176 379 176 l 782 176 q 857 184 828 176 q 903 209 886 192 q 928 256 921 226 q 935 329 935 285 l 935 731 q 965 763 935 763 l 1101 763 q 1132 731 1132 763 l 1132 281 q 1115 152 1132 206 q 1060 65 1099 99 q 958 15 1022 31 q 801 0 894 0 l 414 0 q 256 15 319 0 q 155 65 193 31 q 100 152 117 99 q 83 281 83 206 l 83 731 q 115 763 83 763 l 251 763 m 668 1133 q 704 1125 692 1133 q 728 1099 717 1117 l 875 847 q 878 822 885 832 q 857 813 872 813 l 750 813 q 724 820 733 813 q 707 843 714 828 l 626 997 q 610 1010 619 1010 l 604 1010 q 586 997 592 1010 l 506 843 q 489 820 499 828 q 463 813 479 813 l 356 813 q 334 822 340 813 q 338 847 328 832 l 485 1099 q 508 1125 496 1117 q 544 1133 521 1133 l 668 1133 z "},"ü":{"ha":1217,"x_min":83,"x_max":1132,"o":"m 83 0 m 251 763 q 282 731 282 763 l 282 329 q 288 256 282 285 q 308 209 293 226 q 351 184 324 192 q 425 176 379 176 l 782 176 q 857 184 828 176 q 903 209 886 192 q 928 256 921 226 q 935 329 935 285 l 935 731 q 965 763 935 763 l 1101 763 q 1132 731 1132 763 l 1132 281 q 1115 152 1132 206 q 1060 65 1099 99 q 958 15 1022 31 q 801 0 894 0 l 414 0 q 256 15 319 0 q 155 65 193 31 q 100 152 117 99 q 83 281 83 206 l 83 731 q 115 763 83 763 l 251 763 m 871 1044 q 901 1014 901 1044 l 901 882 q 871 850 901 850 l 735 850 q 704 882 704 850 l 704 1014 q 735 1044 704 1044 l 871 1044 m 483 1044 q 514 1014 514 1044 l 514 882 q 483 850 514 850 l 347 850 q 315 882 315 850 l 315 1014 q 347 1044 315 1044 l 483 1044 z "},"ý":{"ha":1153,"x_min":17,"x_max":1117,"o":"m 17 0 m 1092 763 q 1112 752 1107 763 q 1110 728 1117 742 l 576 -212 q 498 -284 549 -261 q 357 -307 447 -307 l 260 -307 q 235 -282 235 -307 l 235 -168 q 260 -143 235 -143 l 342 -143 q 413 -111 394 -143 l 488 21 q 434 38 453 24 q 399 81 415 51 l 24 728 q 22 752 17 742 q 42 763 26 763 l 201 763 q 235 743 225 763 l 543 208 q 560 183 554 189 q 576 176 567 176 l 903 743 q 936 763 913 763 l 1092 763 m 754 1133 q 776 1125 769 1133 q 775 1101 783 1117 l 632 844 q 615 821 624 829 q 590 813 606 813 l 485 813 q 463 821 469 813 q 463 844 456 829 l 589 1101 q 632 1133 604 1133 l 754 1133 z "},"þ":{"ha":1210,"x_min":83,"x_max":1133,"o":"m 251 1042 q 282 1011 282 1042 l 282 763 l 803 763 q 960 747 896 763 q 1062 697 1024 731 q 1117 609 1100 663 q 1133 481 1133 556 l 1133 281 q 1117 152 1133 206 q 1062 65 1100 99 q 960 15 1024 31 q 803 0 896 0 l 282 0 l 282 -276 q 251 -307 282 -307 l 115 -307 q 83 -276 83 -307 l 83 1011 q 115 1042 83 1042 l 251 1042 m 282 167 l 783 167 q 858 174 829 167 q 905 199 888 182 q 929 246 922 217 q 936 319 936 275 l 936 443 q 929 516 936 486 q 905 563 922 546 q 858 588 888 581 q 783 596 829 596 l 282 596 l 282 167 z "},"ÿ":{"ha":1153,"x_min":17,"x_max":1117,"o":"m 17 0 m 1092 763 q 1112 752 1107 763 q 1110 728 1117 742 l 576 -212 q 498 -284 549 -261 q 357 -307 447 -307 l 260 -307 q 235 -282 235 -307 l 235 -168 q 260 -143 235 -143 l 342 -143 q 413 -111 394 -143 l 488 21 q 434 38 453 24 q 399 81 415 51 l 24 728 q 22 752 17 742 q 42 763 26 763 l 201 763 q 235 743 225 763 l 543 208 q 560 183 554 189 q 576 176 567 176 l 903 743 q 936 763 913 763 l 1092 763 m 839 1044 q 869 1014 869 1044 l 869 882 q 839 850 869 850 l 703 850 q 672 882 672 850 l 672 1014 q 703 1044 672 1044 l 839 1044 m 451 1044 q 482 1014 482 1044 l 482 882 q 451 850 482 850 l 315 850 q 283 882 283 850 l 283 1014 q 315 1044 283 1044 l 451 1044 z "},"Ā":{"ha":1354,"x_min":18,"x_max":1335,"o":"m 18 0 m 708 972 q 797 951 761 972 q 868 867 833 929 l 1328 32 q 1331 9 1335 18 q 1311 0 1328 0 l 1135 0 q 1103 18 1111 0 l 1004 197 l 351 197 l 256 18 q 224 0 246 0 l 43 0 q 22 9 25 0 q 25 32 18 18 l 481 867 q 549 951 515 929 q 626 972 582 972 l 708 972 m 439 358 l 917 358 l 696 765 q 681 775 690 775 l 672 775 q 657 765 663 775 l 439 358 m 1004 1208 q 1035 1183 1035 1208 l 1035 1097 q 1004 1072 1035 1072 l 351 1072 q 321 1097 321 1072 l 321 1183 q 351 1208 321 1208 l 1004 1208 z "},"ā":{"ha":1096,"x_min":57,"x_max":1035,"o":"m 57 0 m 704 763 q 861 747 797 763 q 963 697 925 731 q 1018 609 1001 663 q 1035 481 1035 556 l 1035 111 q 1030 56 1035 78 q 1013 22 1025 35 q 982 5 1001 10 q 932 0 963 0 l 271 0 q 169 12 210 0 q 103 47 128 24 q 67 108 78 71 q 57 197 57 146 l 57 264 q 67 341 57 307 q 103 399 78 375 q 169 434 128 422 q 271 446 210 446 l 836 446 l 836 472 q 829 529 836 506 q 806 567 822 553 q 760 589 789 582 q 685 596 731 596 l 104 596 q 79 621 79 596 l 79 738 q 104 763 79 763 l 704 763 m 796 153 q 827 163 818 153 q 836 200 836 174 l 836 322 l 328 322 q 267 305 285 322 q 250 254 250 288 l 250 225 q 267 170 250 188 q 328 153 285 153 l 796 153 m 874 1019 q 904 989 904 1019 l 904 908 q 874 878 904 878 l 222 878 q 190 908 190 878 l 190 989 q 222 1019 190 1019 l 874 1019 z "},"Ă":{"ha":1354,"x_min":18,"x_max":1335,"o":"m 18 0 m 708 972 q 797 951 761 972 q 868 867 833 929 l 1328 32 q 1331 9 1335 18 q 1311 0 1328 0 l 1135 0 q 1103 18 1111 0 l 1004 197 l 351 197 l 256 18 q 224 0 246 0 l 43 0 q 22 9 25 0 q 25 32 18 18 l 481 867 q 549 951 515 929 q 626 972 582 972 l 708 972 m 439 358 l 917 358 l 696 765 q 681 775 690 775 l 672 775 q 657 765 663 775 l 439 358 m 344 1236 q 369 1263 344 1263 q 404 1249 385 1263 q 440 1225 415 1240 q 499 1194 464 1210 q 578 1167 533 1178 q 676 1156 624 1156 q 776 1167 731 1156 q 856 1194 821 1178 q 915 1225 890 1210 q 950 1249 939 1240 q 985 1263 969 1263 q 1010 1236 1010 1263 l 1010 1179 q 1006 1155 1010 1165 q 983 1132 1001 1144 q 933 1103 964 1118 q 861 1075 901 1088 q 774 1054 821 1063 q 676 1046 726 1046 q 580 1054 626 1046 q 493 1075 533 1063 q 422 1103 453 1088 q 371 1132 390 1118 q 349 1155 353 1144 q 344 1179 344 1165 l 344 1236 z "},"ă":{"ha":1096,"x_min":57,"x_max":1035,"o":"m 57 0 m 704 763 q 861 747 797 763 q 963 697 925 731 q 1018 609 1001 663 q 1035 481 1035 556 l 1035 111 q 1030 56 1035 78 q 1013 22 1025 35 q 982 5 1001 10 q 932 0 963 0 l 271 0 q 169 12 210 0 q 103 47 128 24 q 67 108 78 71 q 57 197 57 146 l 57 264 q 67 341 57 307 q 103 399 78 375 q 169 434 128 422 q 271 446 210 446 l 836 446 l 836 472 q 829 529 836 506 q 806 567 822 553 q 760 589 789 582 q 685 596 731 596 l 104 596 q 79 621 79 596 l 79 738 q 104 763 79 763 l 704 763 m 796 153 q 827 163 818 153 q 836 200 836 174 l 836 322 l 328 322 q 267 305 285 322 q 250 254 250 288 l 250 225 q 267 170 250 188 q 328 153 285 153 l 796 153 m 214 1076 q 221 1099 214 1089 q 240 1108 228 1108 q 275 1093 256 1108 q 310 1065 286 1083 q 369 1029 335 1047 q 449 998 404 1011 q 547 985 493 985 q 646 998 601 985 q 726 1029 690 1011 q 785 1065 761 1047 q 821 1093 808 1083 q 839 1105 831 1101 q 854 1108 847 1108 q 874 1099 867 1108 q 881 1076 881 1089 l 881 1004 q 876 976 881 989 q 854 947 872 963 q 803 915 835 932 q 731 883 772 897 q 644 859 690 868 q 547 850 597 850 q 450 859 497 850 q 363 883 403 868 q 292 915 324 897 q 242 947 260 932 q 218 976 222 963 q 214 1004 214 989 l 214 1076 z "},"Ą":{"ha":1354,"x_min":18,"x_max":1338,"o":"m 1115 -4 l 1004 197 l 351 197 l 256 18 q 224 0 246 0 l 43 0 q 22 9 25 0 q 25 32 18 18 l 481 867 q 549 951 515 929 q 626 972 582 972 l 708 972 q 797 951 761 972 q 868 867 833 929 l 1328 32 q 1321 1 1338 11 l 1147 -82 q 1090 -119 1103 -103 q 1078 -165 1078 -136 q 1093 -216 1078 -203 q 1153 -229 1108 -229 l 1269 -229 q 1294 -254 1294 -229 l 1294 -353 q 1269 -378 1294 -378 l 1093 -378 q 1006 -369 1040 -378 q 951 -342 972 -361 q 922 -290 931 -322 q 914 -208 914 -257 q 918 -149 914 -175 q 933 -103 922 -124 q 964 -69 944 -83 q 1014 -44 983 -56 l 1115 -4 m 439 358 l 917 358 l 696 765 q 681 775 690 775 l 672 775 q 657 765 663 775 l 439 358 z "},"ą":{"ha":1096,"x_min":57,"x_max":1035,"o":"m 790 0 l 271 0 q 169 12 210 0 q 103 47 128 24 q 67 108 78 71 q 57 197 57 146 l 57 264 q 67 341 57 307 q 103 399 78 375 q 169 434 128 422 q 271 446 210 446 l 836 446 l 836 472 q 829 529 836 506 q 806 567 822 553 q 760 589 789 582 q 685 596 731 596 l 104 596 q 79 621 79 596 l 79 738 q 104 763 79 763 l 704 763 q 861 747 797 763 q 963 697 925 731 q 1018 609 1001 663 q 1035 481 1035 556 l 1035 111 q 1027 47 1035 71 q 993 10 1019 22 l 808 -82 q 751 -120 764 -104 q 739 -165 739 -136 q 754 -216 739 -203 q 814 -229 769 -229 l 931 -229 q 956 -254 956 -229 l 956 -353 q 931 -378 956 -378 l 754 -378 q 667 -369 701 -378 q 613 -342 633 -361 q 583 -290 592 -322 q 575 -208 575 -257 q 579 -149 575 -175 q 594 -103 583 -124 q 625 -69 606 -83 q 675 -44 644 -56 l 790 0 m 796 153 q 827 163 818 153 q 836 200 836 174 l 836 322 l 328 322 q 267 305 285 322 q 250 254 250 288 l 250 225 q 267 170 250 188 q 328 153 285 153 l 796 153 z "},"Ć":{"ha":1183,"x_min":81,"x_max":1126,"o":"m 81 0 m 1096 972 q 1126 942 1126 972 l 1126 806 q 1096 774 1126 774 l 478 774 q 388 765 424 774 q 332 734 353 756 q 302 676 311 713 q 293 585 293 640 l 293 388 q 302 295 293 332 q 332 237 311 258 q 388 206 353 215 q 478 197 424 197 l 1096 197 q 1126 167 1126 197 l 1126 31 q 1096 0 1126 0 l 469 0 q 290 19 364 0 q 170 83 217 39 q 102 197 124 126 q 81 367 81 267 l 81 606 q 102 775 81 706 q 170 888 124 844 q 290 952 217 932 q 469 972 364 972 l 1096 972 m 824 1272 q 846 1265 839 1272 q 843 1246 853 1258 l 701 1042 q 684 1022 693 1028 q 660 1015 675 1015 l 554 1015 q 532 1022 539 1015 q 533 1042 525 1029 l 657 1246 q 700 1272 672 1272 l 824 1272 z "},"ć":{"ha":1013,"x_min":54,"x_max":968,"o":"m 54 0 m 943 763 q 968 738 968 763 l 968 621 q 943 596 968 596 l 404 596 q 329 588 358 596 q 283 563 300 581 q 260 516 267 546 q 253 443 253 486 l 253 319 q 260 246 253 275 q 283 199 267 217 q 329 174 300 182 q 404 167 358 167 l 943 167 q 968 142 968 167 l 968 25 q 943 0 968 0 l 385 0 q 227 15 290 0 q 126 65 164 31 q 71 152 88 99 q 54 281 54 206 l 54 481 q 71 609 54 556 q 126 697 88 663 q 227 747 164 731 q 385 763 290 763 l 943 763 m 728 1133 q 750 1125 743 1133 q 749 1101 757 1117 l 606 844 q 588 821 597 829 q 564 813 579 813 l 458 813 q 436 821 443 813 q 436 844 429 829 l 563 1101 q 606 1133 578 1133 l 728 1133 z "},"Ċ":{"ha":1183,"x_min":81,"x_max":1126,"o":"m 81 0 m 1096 972 q 1126 942 1126 972 l 1126 806 q 1096 774 1126 774 l 478 774 q 388 765 424 774 q 332 734 353 756 q 302 676 311 713 q 293 585 293 640 l 293 388 q 302 295 293 332 q 332 237 311 258 q 388 206 353 215 q 478 197 424 197 l 1096 197 q 1126 167 1126 197 l 1126 31 q 1096 0 1126 0 l 469 0 q 290 19 364 0 q 170 83 217 39 q 102 197 124 126 q 81 367 81 267 l 81 606 q 102 775 81 706 q 170 888 124 844 q 290 952 217 932 q 469 972 364 972 l 1096 972 m 715 1229 q 746 1204 746 1229 l 746 1072 q 715 1047 746 1047 l 579 1047 q 549 1072 549 1047 l 549 1204 q 579 1229 549 1229 l 715 1229 z "},"ċ":{"ha":1013,"x_min":54,"x_max":968,"o":"m 54 0 m 943 763 q 968 738 968 763 l 968 621 q 943 596 968 596 l 404 596 q 329 588 358 596 q 283 563 300 581 q 260 516 267 546 q 253 443 253 486 l 253 319 q 260 246 253 275 q 283 199 267 217 q 329 174 300 182 q 404 167 358 167 l 943 167 q 968 142 968 167 l 968 25 q 943 0 968 0 l 385 0 q 227 15 290 0 q 126 65 164 31 q 71 152 88 99 q 54 281 54 206 l 54 481 q 71 609 54 556 q 126 697 88 663 q 227 747 164 731 q 385 763 290 763 l 943 763 m 615 1044 q 646 1014 646 1044 l 646 882 q 615 850 646 850 l 479 850 q 447 882 447 850 l 447 1014 q 479 1044 447 1044 l 615 1044 z "},"Č":{"ha":1183,"x_min":81,"x_max":1126,"o":"m 81 0 m 1096 972 q 1126 942 1126 972 l 1126 806 q 1096 774 1126 774 l 478 774 q 388 765 424 774 q 332 734 353 756 q 302 676 311 713 q 293 585 293 640 l 293 388 q 302 295 293 332 q 332 237 311 258 q 388 206 353 215 q 478 197 424 197 l 1096 197 q 1126 167 1126 197 l 1126 31 q 1096 0 1126 0 l 469 0 q 290 19 364 0 q 170 83 217 39 q 102 197 124 126 q 81 367 81 267 l 81 606 q 102 775 81 706 q 170 888 124 844 q 290 952 217 932 q 469 972 364 972 l 1096 972 m 503 1272 q 529 1266 519 1272 q 546 1247 539 1260 l 626 1126 q 644 1115 633 1115 l 650 1115 q 668 1126 661 1115 l 747 1247 q 765 1266 756 1260 q 790 1272 775 1272 l 899 1272 q 919 1264 913 1272 q 915 1243 925 1256 l 769 1044 q 745 1022 758 1029 q 708 1015 732 1015 l 585 1015 q 549 1022 561 1015 q 525 1044 536 1029 l 378 1243 q 374 1264 368 1256 q 396 1272 381 1272 l 503 1272 z "},"č":{"ha":1013,"x_min":54,"x_max":968,"o":"m 54 0 m 943 763 q 968 738 968 763 l 968 621 q 943 596 968 596 l 404 596 q 329 588 358 596 q 283 563 300 581 q 260 516 267 546 q 253 443 253 486 l 253 319 q 260 246 253 275 q 283 199 267 217 q 329 174 300 182 q 404 167 358 167 l 943 167 q 968 142 968 167 l 968 25 q 943 0 968 0 l 385 0 q 227 15 290 0 q 126 65 164 31 q 71 152 88 99 q 54 281 54 206 l 54 481 q 71 609 54 556 q 126 697 88 663 q 227 747 164 731 q 385 763 290 763 l 943 763 m 403 1133 q 429 1126 419 1133 q 446 1101 439 1118 l 526 949 q 544 936 532 936 l 550 936 q 567 949 560 936 l 647 1101 q 664 1126 654 1118 q 690 1133 674 1133 l 797 1133 q 819 1124 813 1133 q 815 1099 825 1114 l 668 847 q 644 821 657 829 q 608 813 632 813 l 485 813 q 449 821 461 813 q 425 847 436 829 l 278 1099 q 274 1124 268 1114 q 296 1133 281 1133 l 403 1133 z "},"Ď":{"ha":1290,"x_min":92,"x_max":1208,"o":"m 92 0 m 783 972 q 976 949 896 972 q 1108 878 1057 926 q 1184 756 1160 831 q 1208 581 1208 682 l 1208 392 q 1184 216 1208 290 q 1108 94 1160 142 q 976 23 1057 46 q 783 0 896 0 l 133 0 q 92 42 92 0 l 92 931 q 133 972 92 972 l 783 972 m 304 211 q 322 193 304 193 l 778 193 q 881 204 839 193 q 948 240 922 215 q 985 307 974 265 q 996 410 996 349 l 996 563 q 985 665 996 624 q 948 732 974 707 q 881 768 922 757 q 778 779 839 779 l 322 779 q 304 760 304 779 l 304 211 m 458 1272 q 485 1266 475 1272 q 501 1247 494 1260 l 582 1126 q 600 1115 589 1115 l 606 1115 q 624 1126 617 1115 l 703 1247 q 721 1266 711 1260 q 746 1272 731 1272 l 854 1272 q 874 1264 868 1272 q 871 1243 881 1256 l 725 1044 q 701 1022 714 1029 q 664 1015 688 1015 l 540 1015 q 504 1022 517 1015 q 481 1044 492 1029 l 333 1243 q 330 1264 324 1256 q 351 1272 336 1272 l 458 1272 z "},"ď":{"ha":1364,"x_min":75,"x_max":1404,"o":"m 75 0 m 928 763 l 928 1011 q 958 1042 928 1042 l 1094 1042 q 1125 1011 1125 1042 l 1125 281 q 1108 152 1125 206 q 1053 65 1092 99 q 951 15 1015 31 q 794 0 888 0 l 406 0 q 248 15 311 0 q 147 65 185 31 q 92 152 108 99 q 75 281 75 206 l 75 481 q 92 609 75 556 q 147 697 108 663 q 248 747 185 731 q 406 763 311 763 l 928 763 m 775 167 q 850 174 821 167 q 897 199 879 182 q 921 246 914 217 q 928 319 928 275 l 928 596 l 425 596 q 351 588 381 596 q 305 563 322 581 q 281 516 288 546 q 274 443 274 486 l 274 319 q 281 246 274 275 q 305 199 288 217 q 351 174 322 182 q 425 167 381 167 l 775 167 m 1369 1036 q 1396 1000 1404 1036 l 1335 747 q 1300 715 1326 715 l 1221 715 q 1189 747 1186 715 l 1211 1004 q 1244 1036 1214 1036 l 1369 1036 z "},"Đ":{"ha":1365,"x_min":18,"x_max":1285,"o":"m 18 0 m 860 972 q 1053 949 972 972 q 1185 878 1133 926 q 1260 756 1236 831 q 1285 581 1285 682 l 1285 392 q 1260 216 1285 290 q 1185 94 1236 142 q 1053 23 1133 46 q 860 0 972 0 l 210 0 q 168 42 168 0 l 168 406 l 49 406 q 18 436 18 406 l 18 546 q 49 576 18 576 l 168 576 l 168 931 q 210 972 168 972 l 860 972 m 381 576 l 853 576 q 883 546 883 576 l 883 436 q 853 406 883 406 l 381 406 l 381 211 q 399 193 381 193 l 854 193 q 957 204 915 193 q 1024 240 999 215 q 1061 307 1050 265 q 1072 410 1072 349 l 1072 563 q 1061 665 1072 624 q 1024 732 1050 707 q 957 768 999 757 q 854 779 915 779 l 399 779 q 381 760 381 779 l 381 576 z "},"đ":{"ha":1210,"x_min":75,"x_max":1201,"o":"m 928 1019 q 958 1042 932 1042 l 1094 1042 q 1124 1019 1119 1042 l 1171 1019 q 1201 989 1201 1019 l 1201 908 q 1171 878 1201 878 l 1125 878 l 1125 281 q 1108 152 1125 206 q 1053 65 1092 99 q 951 15 1015 31 q 794 0 888 0 l 406 0 q 248 15 311 0 q 147 65 185 31 q 92 152 108 99 q 75 281 75 206 l 75 481 q 92 609 75 556 q 147 697 108 663 q 248 747 185 731 q 406 763 311 763 l 928 763 l 928 878 l 519 878 q 488 908 488 878 l 488 989 q 519 1019 488 1019 l 928 1019 m 775 167 q 850 174 821 167 q 897 199 879 182 q 921 246 914 217 q 928 319 928 275 l 928 596 l 425 596 q 351 588 381 596 q 305 563 322 581 q 281 516 288 546 q 274 443 274 486 l 274 319 q 281 246 274 275 q 305 199 288 217 q 351 174 322 182 q 425 167 381 167 l 775 167 z "},"Ē":{"ha":1181,"x_min":81,"x_max":1113,"o":"m 81 0 m 1081 972 q 1113 942 1113 972 l 1113 810 q 1081 779 1113 779 l 474 779 q 384 770 419 779 q 327 740 349 761 q 297 681 306 718 q 289 590 289 644 l 289 576 l 1074 576 q 1104 546 1104 576 l 1104 436 q 1074 406 1104 406 l 289 406 l 289 382 q 297 291 289 328 q 327 233 306 254 q 384 202 349 211 q 474 193 419 193 l 1081 193 q 1113 163 1113 193 l 1113 31 q 1081 0 1113 0 l 469 0 q 290 19 364 0 q 170 83 217 39 q 102 197 124 126 q 81 367 81 267 l 81 606 q 102 775 81 706 q 170 888 124 844 q 290 952 217 932 q 469 972 364 972 l 1081 972 m 972 1208 q 1003 1183 1003 1208 l 1003 1097 q 972 1072 1003 1072 l 319 1072 q 289 1097 289 1072 l 289 1183 q 319 1208 289 1208 l 972 1208 z "},"ē":{"ha":1096,"x_min":57,"x_max":1035,"o":"m 57 0 m 794 763 q 912 751 865 763 q 985 712 958 739 q 1024 641 1013 685 q 1035 535 1035 597 l 1035 403 q 1015 341 1035 358 q 956 324 996 324 l 254 324 l 254 290 q 285 196 254 225 q 407 167 317 167 l 986 167 q 1011 142 1011 167 l 1011 25 q 986 0 1011 0 l 388 0 q 230 15 293 0 q 128 65 167 31 q 74 152 90 99 q 57 281 57 206 l 57 481 q 74 609 57 556 q 128 697 90 663 q 230 747 167 731 q 388 763 293 763 l 794 763 m 254 447 l 817 447 q 840 471 840 447 l 840 529 q 822 590 840 572 q 756 608 804 608 l 407 608 q 285 580 317 608 q 254 485 254 551 l 254 447 m 872 1019 q 903 989 903 1019 l 903 908 q 872 878 903 878 l 221 878 q 189 908 189 878 l 189 989 q 221 1019 189 1019 l 872 1019 z "},"Ĕ":{"ha":1181,"x_min":81,"x_max":1113,"o":"m 81 0 m 1081 972 q 1113 942 1113 972 l 1113 810 q 1081 779 1113 779 l 474 779 q 384 770 419 779 q 327 740 349 761 q 297 681 306 718 q 289 590 289 644 l 289 576 l 1074 576 q 1104 546 1104 576 l 1104 436 q 1074 406 1104 406 l 289 406 l 289 382 q 297 291 289 328 q 327 233 306 254 q 384 202 349 211 q 474 193 419 193 l 1081 193 q 1113 163 1113 193 l 1113 31 q 1081 0 1113 0 l 469 0 q 290 19 364 0 q 170 83 217 39 q 102 197 124 126 q 81 367 81 267 l 81 606 q 102 775 81 706 q 170 888 124 844 q 290 952 217 932 q 469 972 364 972 l 1081 972 m 314 1236 q 339 1263 314 1263 q 374 1249 354 1263 q 409 1225 385 1240 q 468 1194 433 1210 q 548 1167 503 1178 q 646 1156 593 1156 q 745 1167 700 1156 q 825 1194 790 1178 q 884 1225 860 1210 q 919 1249 908 1240 q 954 1263 939 1263 q 979 1236 979 1263 l 979 1179 q 975 1155 979 1165 q 953 1132 971 1144 q 902 1103 933 1118 q 831 1075 871 1088 q 743 1054 790 1063 q 646 1046 696 1046 q 549 1054 596 1046 q 463 1075 503 1063 q 391 1103 422 1088 q 340 1132 360 1118 q 318 1155 322 1144 q 314 1179 314 1165 l 314 1236 z "},"ĕ":{"ha":1096,"x_min":57,"x_max":1035,"o":"m 57 0 m 794 763 q 912 751 865 763 q 985 712 958 739 q 1024 641 1013 685 q 1035 535 1035 597 l 1035 403 q 1015 341 1035 358 q 956 324 996 324 l 254 324 l 254 290 q 285 196 254 225 q 407 167 317 167 l 986 167 q 1011 142 1011 167 l 1011 25 q 986 0 1011 0 l 388 0 q 230 15 293 0 q 128 65 167 31 q 74 152 90 99 q 57 281 57 206 l 57 481 q 74 609 57 556 q 128 697 90 663 q 230 747 167 731 q 388 763 293 763 l 794 763 m 254 447 l 817 447 q 840 471 840 447 l 840 529 q 822 590 840 572 q 756 608 804 608 l 407 608 q 285 580 317 608 q 254 485 254 551 l 254 447 m 214 1076 q 221 1099 214 1089 q 240 1108 228 1108 q 275 1093 256 1108 q 310 1065 286 1083 q 369 1029 335 1047 q 449 998 404 1011 q 547 985 493 985 q 646 998 601 985 q 726 1029 690 1011 q 785 1065 761 1047 q 821 1093 808 1083 q 839 1105 831 1101 q 854 1108 847 1108 q 874 1099 867 1108 q 881 1076 881 1089 l 881 1004 q 876 976 881 989 q 854 947 872 963 q 803 915 835 932 q 731 883 772 897 q 644 859 690 868 q 547 850 597 850 q 450 859 497 850 q 363 883 403 868 q 292 915 324 897 q 242 947 260 932 q 218 976 222 963 q 214 1004 214 989 l 214 1076 z "},"Ė":{"ha":1181,"x_min":81,"x_max":1113,"o":"m 81 0 m 1081 972 q 1113 942 1113 972 l 1113 810 q 1081 779 1113 779 l 474 779 q 384 770 419 779 q 327 740 349 761 q 297 681 306 718 q 289 590 289 644 l 289 576 l 1074 576 q 1104 546 1104 576 l 1104 436 q 1074 406 1104 406 l 289 406 l 289 382 q 297 291 289 328 q 327 233 306 254 q 384 202 349 211 q 474 193 419 193 l 1081 193 q 1113 163 1113 193 l 1113 31 q 1081 0 1113 0 l 469 0 q 290 19 364 0 q 170 83 217 39 q 102 197 124 126 q 81 367 81 267 l 81 606 q 102 775 81 706 q 170 888 124 844 q 290 952 217 932 q 469 972 364 972 l 1081 972 m 715 1229 q 746 1204 746 1229 l 746 1072 q 715 1047 746 1047 l 579 1047 q 549 1072 549 1047 l 549 1204 q 579 1229 549 1229 l 715 1229 z "},"ė":{"ha":1096,"x_min":57,"x_max":1035,"o":"m 57 0 m 794 763 q 912 751 865 763 q 985 712 958 739 q 1024 641 1013 685 q 1035 535 1035 597 l 1035 403 q 1015 341 1035 358 q 956 324 996 324 l 254 324 l 254 290 q 285 196 254 225 q 407 167 317 167 l 986 167 q 1011 142 1011 167 l 1011 25 q 986 0 1011 0 l 388 0 q 230 15 293 0 q 128 65 167 31 q 74 152 90 99 q 57 281 57 206 l 57 481 q 74 609 57 556 q 128 697 90 663 q 230 747 167 731 q 388 763 293 763 l 794 763 m 254 447 l 817 447 q 840 471 840 447 l 840 529 q 822 590 840 572 q 756 608 804 608 l 407 608 q 285 580 317 608 q 254 485 254 551 l 254 447 m 615 1044 q 646 1014 646 1044 l 646 882 q 615 850 646 850 l 479 850 q 447 882 447 850 l 447 1014 q 479 1044 447 1044 l 615 1044 z "},"Ę":{"ha":1181,"x_min":81,"x_max":1113,"o":"m 901 0 l 469 0 q 290 19 364 0 q 170 83 217 39 q 102 197 124 126 q 81 367 81 267 l 81 606 q 102 775 81 706 q 170 888 124 844 q 290 952 217 932 q 469 972 364 972 l 1081 972 q 1113 942 1113 972 l 1113 810 q 1081 779 1113 779 l 474 779 q 384 770 419 779 q 327 740 349 761 q 297 681 306 718 q 289 590 289 644 l 289 576 l 1074 576 q 1104 546 1104 576 l 1104 436 q 1074 406 1104 406 l 289 406 l 289 382 q 297 291 289 328 q 327 233 306 254 q 384 202 349 211 q 474 193 419 193 l 1081 193 q 1113 163 1113 193 l 1113 31 q 1094 1 1113 10 l 919 -82 q 863 -119 875 -103 q 850 -165 850 -136 q 865 -216 850 -203 q 925 -229 881 -229 l 1042 -229 q 1067 -254 1067 -229 l 1067 -353 q 1042 -378 1067 -378 l 865 -378 q 778 -369 813 -378 q 724 -342 744 -361 q 694 -290 703 -322 q 686 -208 686 -257 q 690 -149 686 -175 q 706 -103 694 -124 q 736 -69 717 -83 q 786 -44 756 -56 l 901 0 z "},"ę":{"ha":1096,"x_min":57,"x_max":1035,"o":"m 804 0 l 388 0 q 230 15 293 0 q 128 65 167 31 q 74 152 90 99 q 57 281 57 206 l 57 481 q 74 609 57 556 q 128 697 90 663 q 230 747 167 731 q 388 763 293 763 l 794 763 q 912 751 865 763 q 985 712 958 739 q 1024 641 1013 685 q 1035 535 1035 597 l 1035 403 q 1015 341 1035 358 q 956 324 996 324 l 254 324 l 254 290 q 285 196 254 225 q 407 167 317 167 l 986 167 q 1011 142 1011 167 l 1011 25 q 1000 3 1011 7 l 822 -82 q 765 -119 778 -103 q 753 -165 753 -136 q 768 -216 753 -203 q 828 -229 783 -229 l 944 -229 q 969 -254 969 -229 l 969 -353 q 944 -378 969 -378 l 768 -378 q 681 -369 715 -378 q 626 -342 647 -361 q 597 -290 606 -322 q 589 -208 589 -257 q 593 -149 589 -175 q 608 -103 597 -124 q 639 -69 619 -83 q 689 -44 658 -56 l 804 0 m 254 447 l 817 447 q 840 471 840 447 l 840 529 q 822 590 840 572 q 756 608 804 608 l 407 608 q 285 580 317 608 q 254 485 254 551 l 254 447 z "},"Ě":{"ha":1181,"x_min":81,"x_max":1113,"o":"m 81 0 m 1081 972 q 1113 942 1113 972 l 1113 810 q 1081 779 1113 779 l 474 779 q 384 770 419 779 q 327 740 349 761 q 297 681 306 718 q 289 590 289 644 l 289 576 l 1074 576 q 1104 546 1104 576 l 1104 436 q 1074 406 1104 406 l 289 406 l 289 382 q 297 291 289 328 q 327 233 306 254 q 384 202 349 211 q 474 193 419 193 l 1081 193 q 1113 163 1113 193 l 1113 31 q 1081 0 1113 0 l 469 0 q 290 19 364 0 q 170 83 217 39 q 102 197 124 126 q 81 367 81 267 l 81 606 q 102 775 81 706 q 170 888 124 844 q 290 952 217 932 q 469 972 364 972 l 1081 972 m 501 1272 q 528 1266 518 1272 q 544 1247 538 1260 l 625 1126 q 643 1115 632 1115 l 649 1115 q 667 1126 660 1115 l 746 1247 q 764 1266 754 1260 q 789 1272 774 1272 l 897 1272 q 917 1264 911 1272 q 914 1243 924 1256 l 768 1044 q 744 1022 757 1029 q 707 1015 731 1015 l 583 1015 q 547 1022 560 1015 q 524 1044 535 1029 l 376 1243 q 373 1264 367 1256 q 394 1272 379 1272 l 501 1272 z "},"ě":{"ha":1096,"x_min":57,"x_max":1035,"o":"m 57 0 m 794 763 q 912 751 865 763 q 985 712 958 739 q 1024 641 1013 685 q 1035 535 1035 597 l 1035 403 q 1015 341 1035 358 q 956 324 996 324 l 254 324 l 254 290 q 285 196 254 225 q 407 167 317 167 l 986 167 q 1011 142 1011 167 l 1011 25 q 986 0 1011 0 l 388 0 q 230 15 293 0 q 128 65 167 31 q 74 152 90 99 q 57 281 57 206 l 57 481 q 74 609 57 556 q 128 697 90 663 q 230 747 167 731 q 388 763 293 763 l 794 763 m 254 447 l 817 447 q 840 471 840 447 l 840 529 q 822 590 840 572 q 756 608 804 608 l 407 608 q 285 580 317 608 q 254 485 254 551 l 254 447 m 404 1133 q 431 1126 421 1133 q 447 1101 440 1118 l 528 949 q 546 936 533 936 l 551 936 q 568 949 561 936 l 649 1101 q 665 1126 656 1118 q 692 1133 675 1133 l 799 1133 q 820 1124 814 1133 q 817 1099 826 1114 l 669 847 q 646 821 658 829 q 610 813 633 813 l 486 813 q 450 821 463 813 q 426 847 438 829 l 279 1099 q 276 1124 269 1114 q 297 1133 282 1133 l 404 1133 z "},"Ğ":{"ha":1286,"x_min":81,"x_max":1204,"o":"m 81 0 m 1174 972 q 1204 942 1204 972 l 1204 806 q 1174 774 1204 774 l 478 774 q 388 765 424 774 q 332 734 353 756 q 302 676 311 713 q 293 585 293 640 l 293 385 q 302 292 293 329 q 332 234 311 256 q 388 203 353 213 q 478 194 424 194 l 936 194 q 989 213 972 194 q 1006 279 1006 232 l 1006 392 q 989 410 1006 410 l 582 410 q 551 442 551 410 l 551 546 q 582 578 551 578 l 1161 578 q 1203 536 1203 578 l 1203 213 q 1158 48 1203 96 q 1031 0 1114 0 l 469 0 q 290 19 364 0 q 170 83 217 39 q 102 197 124 126 q 81 367 81 267 l 81 606 q 102 775 81 706 q 170 888 124 844 q 290 952 217 932 q 469 972 364 972 l 1174 972 m 336 1236 q 361 1263 336 1263 q 396 1249 376 1263 q 431 1225 407 1240 q 490 1194 456 1210 q 570 1167 525 1178 q 668 1156 615 1156 q 767 1167 722 1156 q 847 1194 813 1178 q 906 1225 882 1210 q 942 1249 931 1240 q 976 1263 961 1263 q 1001 1236 1001 1263 l 1001 1179 q 997 1155 1001 1165 q 975 1132 993 1144 q 924 1103 956 1118 q 853 1075 893 1088 q 765 1054 813 1063 q 668 1046 718 1046 q 572 1054 618 1046 q 485 1075 525 1063 q 413 1103 444 1088 q 363 1132 382 1118 q 340 1155 344 1144 q 336 1179 336 1165 l 336 1236 z "},"ğ":{"ha":1210,"x_min":75,"x_max":1125,"o":"m 75 0 m 794 763 q 952 747 889 763 q 1054 697 1015 731 q 1109 610 1093 664 q 1125 482 1125 557 l 1125 -24 q 1109 -153 1125 -100 q 1054 -241 1093 -207 q 952 -291 1015 -275 q 794 -307 889 -307 l 140 -307 q 115 -282 115 -307 l 115 -165 q 140 -140 115 -140 l 775 -140 q 850 -133 821 -140 q 897 -108 879 -125 q 921 -60 914 -90 q 928 14 928 -31 l 928 50 l 406 50 q 248 66 311 50 q 147 116 185 82 q 92 203 108 150 q 75 333 75 257 l 75 479 q 92 609 75 556 q 147 697 108 663 q 248 747 185 731 q 406 763 311 763 l 794 763 m 274 335 q 281 274 274 299 q 305 234 288 250 q 351 211 322 218 q 425 204 381 204 l 928 204 l 928 464 q 897 568 928 538 q 775 599 865 599 l 425 599 q 351 592 381 599 q 305 569 322 585 q 281 528 288 553 q 274 468 274 503 l 274 335 m 271 1076 q 278 1099 271 1089 q 297 1108 285 1108 q 332 1093 313 1108 q 367 1065 343 1083 q 426 1029 392 1047 q 506 998 461 1011 q 604 985 550 985 q 703 998 658 985 q 783 1029 747 1011 q 842 1065 818 1047 q 878 1093 865 1083 q 896 1105 888 1101 q 911 1108 904 1108 q 931 1099 924 1108 q 938 1076 938 1089 l 938 1004 q 933 976 938 989 q 911 947 929 963 q 860 915 892 932 q 788 883 829 897 q 701 859 747 868 q 604 850 654 850 q 507 859 554 850 q 420 883 460 868 q 349 915 381 897 q 299 947 317 932 q 275 976 279 963 q 271 1004 271 989 l 271 1076 z "},"Ġ":{"ha":1286,"x_min":81,"x_max":1204,"o":"m 81 0 m 1174 972 q 1204 942 1204 972 l 1204 806 q 1174 774 1204 774 l 478 774 q 388 765 424 774 q 332 734 353 756 q 302 676 311 713 q 293 585 293 640 l 293 385 q 302 292 293 329 q 332 234 311 256 q 388 203 353 213 q 478 194 424 194 l 936 194 q 989 213 972 194 q 1006 279 1006 232 l 1006 392 q 989 410 1006 410 l 582 410 q 551 442 551 410 l 551 546 q 582 578 551 578 l 1161 578 q 1203 536 1203 578 l 1203 213 q 1158 48 1203 96 q 1031 0 1114 0 l 469 0 q 290 19 364 0 q 170 83 217 39 q 102 197 124 126 q 81 367 81 267 l 81 606 q 102 775 81 706 q 170 888 124 844 q 290 952 217 932 q 469 972 364 972 l 1174 972 m 749 1229 q 779 1204 779 1229 l 779 1072 q 749 1047 779 1047 l 613 1047 q 582 1072 582 1047 l 582 1204 q 613 1229 582 1229 l 749 1229 z "},"ġ":{"ha":1210,"x_min":75,"x_max":1125,"o":"m 75 0 m 794 763 q 952 747 889 763 q 1054 697 1015 731 q 1109 610 1093 664 q 1125 482 1125 557 l 1125 -24 q 1109 -153 1125 -100 q 1054 -241 1093 -207 q 952 -291 1015 -275 q 794 -307 889 -307 l 140 -307 q 115 -282 115 -307 l 115 -165 q 140 -140 115 -140 l 775 -140 q 850 -133 821 -140 q 897 -108 879 -125 q 921 -60 914 -90 q 928 14 928 -31 l 928 50 l 406 50 q 248 66 311 50 q 147 116 185 82 q 92 203 108 150 q 75 333 75 257 l 75 479 q 92 609 75 556 q 147 697 108 663 q 248 747 185 731 q 406 763 311 763 l 794 763 m 274 335 q 281 274 274 299 q 305 234 288 250 q 351 211 322 218 q 425 204 381 204 l 928 204 l 928 464 q 897 568 928 538 q 775 599 865 599 l 425 599 q 351 592 381 599 q 305 569 322 585 q 281 528 288 553 q 274 468 274 503 l 274 335 m 668 1044 q 699 1014 699 1044 l 699 882 q 668 850 699 850 l 532 850 q 500 882 500 850 l 500 1014 q 532 1044 500 1044 l 668 1044 z "},"Ģ":{"ha":1286,"x_min":81,"x_max":1204,"o":"m 81 0 m 1174 972 q 1204 942 1204 972 l 1204 806 q 1174 774 1204 774 l 478 774 q 388 765 424 774 q 332 734 353 756 q 302 676 311 713 q 293 585 293 640 l 293 385 q 302 292 293 329 q 332 234 311 256 q 388 203 353 213 q 478 194 424 194 l 936 194 q 989 213 972 194 q 1006 279 1006 232 l 1006 392 q 989 410 1006 410 l 582 410 q 551 442 551 410 l 551 546 q 582 578 551 578 l 1161 578 q 1203 536 1203 578 l 1203 213 q 1158 48 1203 96 q 1031 0 1114 0 l 469 0 q 290 19 364 0 q 170 83 217 39 q 102 197 124 126 q 81 367 81 267 l 81 606 q 102 775 81 706 q 170 888 124 844 q 290 952 217 932 q 469 972 364 972 l 1174 972 m 714 -57 q 740 -93 749 -57 l 679 -346 q 644 -378 671 -378 l 565 -378 q 533 -346 531 -378 l 556 -89 q 589 -57 558 -57 l 714 -57 z "},"ģ":{"ha":1210,"x_min":75,"x_max":1125,"o":"m 75 0 m 794 763 q 952 747 889 763 q 1054 697 1015 731 q 1109 610 1093 664 q 1125 482 1125 557 l 1125 -24 q 1109 -153 1125 -100 q 1054 -241 1093 -207 q 952 -291 1015 -275 q 794 -307 889 -307 l 140 -307 q 115 -282 115 -307 l 115 -165 q 140 -140 115 -140 l 775 -140 q 850 -133 821 -140 q 897 -108 879 -125 q 921 -60 914 -90 q 928 14 928 -31 l 928 50 l 406 50 q 248 66 311 50 q 147 116 185 82 q 92 203 108 150 q 75 333 75 257 l 75 479 q 92 609 75 556 q 147 697 108 663 q 248 747 185 731 q 406 763 311 763 l 794 763 m 274 335 q 281 274 274 299 q 305 234 288 250 q 351 211 322 218 q 425 204 381 204 l 928 204 l 928 464 q 897 568 928 538 q 775 599 865 599 l 425 599 q 351 592 381 599 q 305 569 322 585 q 281 528 288 553 q 274 468 274 503 l 274 335 m 657 1133 q 689 1101 692 1133 l 667 844 q 635 813 664 813 l 508 813 q 483 847 472 813 l 543 1101 q 578 1133 551 1133 l 657 1133 z "},"Ħ":{"ha":1258,"x_min":7,"x_max":1250,"o":"m 92 854 l 92 942 q 124 972 92 972 l 274 972 q 304 942 304 972 l 304 854 l 954 854 l 954 942 q 985 972 954 972 l 1135 972 q 1167 942 1167 972 l 1167 854 l 1219 854 q 1250 824 1250 854 l 1250 743 q 1219 713 1250 713 l 1167 713 l 1167 31 q 1135 0 1167 0 l 985 0 q 954 31 954 0 l 954 400 l 304 400 l 304 31 q 274 0 304 0 l 124 0 q 92 31 92 0 l 92 713 l 39 713 q 7 743 7 713 l 7 824 q 39 854 7 854 l 92 854 m 954 581 l 954 713 l 304 713 l 304 581 l 954 581 z "},"ħ":{"ha":1221,"x_min":7,"x_max":1136,"o":"m 89 1019 q 119 1042 93 1042 l 256 1042 q 285 1019 281 1042 l 690 1019 q 721 989 721 1019 l 721 908 q 690 878 721 878 l 286 878 l 286 763 l 806 763 q 963 747 899 763 q 1065 697 1026 731 q 1119 609 1103 663 q 1136 481 1136 556 l 1136 31 q 1106 0 1136 0 l 969 0 q 939 31 939 0 l 939 433 q 933 506 939 476 q 912 553 928 536 q 868 578 896 571 q 796 586 840 586 l 286 586 l 286 31 q 256 0 286 0 l 119 0 q 89 31 89 0 l 89 878 l 39 878 q 7 908 7 878 l 7 989 q 39 1019 7 1019 l 89 1019 z "},"Ĩ":{"ha":674,"x_min":-19,"x_max":694,"o":"m 0 0 m 413 972 q 443 942 443 972 l 443 31 q 413 0 443 0 l 263 0 q 231 31 231 0 l 231 942 q 263 972 231 972 l 413 972 m 6 1032 q -15 1041 -11 1032 q -19 1072 -19 1050 q -10 1167 -19 1129 q 21 1226 0 1204 q 75 1258 42 1249 q 154 1267 108 1267 q 283 1247 229 1267 q 383 1189 336 1226 q 428 1158 407 1169 q 489 1146 449 1146 q 522 1150 510 1146 q 541 1165 535 1154 q 550 1195 547 1176 q 553 1242 553 1214 q 590 1272 554 1272 l 669 1272 q 690 1263 685 1272 q 694 1232 694 1254 q 685 1138 694 1175 q 653 1078 675 1100 q 599 1047 632 1056 q 519 1038 565 1038 q 392 1058 444 1038 q 292 1115 339 1078 q 247 1147 268 1135 q 185 1158 225 1158 q 133 1138 144 1158 q 122 1063 122 1118 q 83 1032 121 1032 l 6 1032 z "},"ĩ":{"ha":714,"x_min":-1,"x_max":713,"o":"m 0 0 m 25 836 q 3 846 8 836 q -1 879 -1 856 q 8 981 -1 940 q 40 1047 18 1022 q 94 1081 61 1071 q 172 1090 126 1090 q 301 1069 249 1090 q 403 1007 354 1047 q 447 975 425 988 q 508 963 468 963 q 560 983 550 963 q 571 1061 571 1003 q 582 1088 572 1081 q 610 1094 592 1094 l 688 1094 q 708 1085 704 1094 q 713 1051 713 1075 q 703 949 713 990 q 672 884 693 908 q 619 850 651 860 q 540 840 586 840 q 411 862 464 840 q 310 924 358 883 q 266 956 288 943 q 204 968 244 968 q 152 948 163 968 q 140 869 142 928 q 131 843 140 850 q 103 836 121 836 l 25 836 m 425 763 q 456 731 456 763 l 456 31 q 425 0 456 0 l 289 0 q 258 31 258 0 l 258 731 q 289 763 258 763 l 425 763 z "},"Ī":{"ha":636,"x_min":-39,"x_max":675,"o":"m 0 0 m 393 972 q 424 942 424 972 l 424 31 q 393 0 424 0 l 243 0 q 211 31 211 0 l 211 942 q 243 972 211 972 l 393 972 m 644 1208 q 675 1183 675 1208 l 675 1097 q 644 1072 675 1072 l -8 1072 q -39 1097 -39 1072 l -39 1183 q -8 1208 -39 1208 l 644 1208 z "},"ī":{"ha":689,"x_min":-12,"x_max":701,"o":"m 0 0 m 671 1019 q 701 989 701 1019 l 701 908 q 671 878 701 878 l 19 878 q -12 908 -12 878 l -12 989 q 19 1019 -12 1019 l 671 1019 m 413 763 q 443 731 443 763 l 443 31 q 413 0 443 0 l 276 0 q 246 31 246 0 l 246 731 q 276 763 246 763 l 413 763 z "},"Ĭ":{"ha":607,"x_min":-28,"x_max":638,"o":"m 0 0 m 379 972 q 410 942 410 972 l 410 31 q 379 0 410 0 l 229 0 q 197 31 197 0 l 197 942 q 229 972 197 972 l 379 972 m -28 1236 q -3 1263 -28 1263 q 32 1249 13 1263 q 67 1225 43 1240 q 126 1194 92 1210 q 206 1167 161 1178 q 304 1156 251 1156 q 403 1167 358 1156 q 483 1194 449 1178 q 542 1225 518 1210 q 578 1249 567 1240 q 613 1263 597 1263 q 638 1236 638 1263 l 638 1179 q 633 1155 638 1165 q 611 1132 629 1144 q 560 1103 592 1118 q 489 1075 529 1088 q 401 1054 449 1063 q 304 1046 354 1046 q 208 1054 254 1046 q 121 1075 161 1063 q 49 1103 81 1088 q -1 1132 18 1118 q -24 1155 -19 1144 q -28 1179 -28 1165 l -28 1236 z "},"ĭ":{"ha":651,"x_min":-8,"x_max":658,"o":"m 0 0 m -8 1076 q -1 1099 -8 1089 q 18 1108 6 1108 q 53 1093 33 1108 q 88 1065 64 1083 q 147 1029 113 1047 q 226 998 182 1011 q 325 985 271 985 q 424 998 379 985 q 503 1029 468 1011 q 563 1065 539 1047 q 599 1093 586 1083 q 617 1105 608 1101 q 632 1108 625 1108 q 651 1099 644 1108 q 658 1076 658 1089 l 658 1004 q 654 976 658 989 q 632 947 650 963 q 581 915 613 932 q 509 883 550 897 q 422 859 468 868 q 325 850 375 850 q 228 859 275 850 q 141 883 181 868 q 69 915 101 897 q 19 947 38 932 q -4 976 0 963 q -8 1004 -8 989 l -8 1076 m 393 763 q 424 731 424 763 l 424 31 q 393 0 424 0 l 257 0 q 226 31 226 0 l 226 731 q 257 763 226 763 l 393 763 z "},"Į":{"ha":467,"x_min":-50,"x_max":374,"o":"m 161 -1 l 161 942 q 193 972 161 972 l 343 972 q 374 942 374 972 l 374 31 q 361 4 374 10 l 183 -82 q 126 -120 139 -104 q 114 -165 114 -136 q 129 -216 114 -203 q 189 -229 144 -229 l 306 -229 q 331 -254 331 -229 l 331 -353 q 306 -378 331 -378 l 129 -378 q 42 -369 76 -378 q -12 -342 8 -361 q -42 -290 -33 -322 q -50 -208 -50 -257 q -46 -149 -50 -175 q -31 -103 -42 -124 q 0 -69 -19 -83 q 50 -44 19 -56 l 161 -1 z "},"į":{"ha":450,"x_min":-60,"x_max":363,"o":"m 331 763 q 361 731 361 763 l 361 31 q 346 1 361 8 l 174 -82 q 117 -120 129 -104 q 104 -165 104 -136 q 119 -216 104 -203 q 179 -229 135 -229 l 296 -229 q 321 -254 321 -229 l 321 -353 q 296 -378 321 -378 l 119 -378 q 33 -369 67 -378 q -22 -342 -1 -361 q -51 -290 -43 -322 q -60 -208 -60 -257 q -56 -149 -60 -175 q -40 -104 -51 -124 q -10 -70 -29 -85 q 40 -44 10 -56 l 164 3 l 164 731 q 194 763 164 763 l 331 763 m 332 1044 q 363 1014 363 1044 l 363 882 q 332 850 363 850 l 196 850 q 164 882 164 850 l 164 1014 q 196 1044 164 1044 l 332 1044 z "},"İ":{"ha":397,"x_min":92,"x_max":304,"o":"m 92 0 m 274 972 q 304 942 304 972 l 304 31 q 274 0 304 0 l 124 0 q 92 31 92 0 l 92 942 q 124 972 92 972 l 274 972 m 265 1229 q 296 1204 296 1229 l 296 1072 q 265 1047 296 1047 l 129 1047 q 99 1072 99 1047 l 99 1204 q 129 1229 99 1229 l 265 1229 z "},"ı":{"ha":375,"x_min":89,"x_max":286,"o":"m 256 763 q 286 731 286 763 l 286 31 q 256 0 286 0 l 119 0 q 89 31 89 0 l 89 731 q 119 763 89 763 l 256 763 z "},"Ĳ":{"ha":1482,"x_min":92,"x_max":1392,"o":"m 92 0 m 274 972 q 304 942 304 972 l 304 31 q 274 0 304 0 l 124 0 q 92 31 92 0 l 92 942 q 124 972 92 972 l 274 972 m 1361 972 q 1392 942 1392 972 l 1392 367 q 1371 197 1392 267 q 1303 83 1350 126 q 1183 19 1257 39 q 1003 0 1108 0 l 461 0 q 429 31 429 0 l 429 167 q 461 197 429 197 l 996 197 q 1085 206 1050 197 q 1142 237 1121 215 q 1171 295 1163 258 q 1179 388 1179 332 l 1179 942 q 1211 972 1179 972 l 1361 972 z "},"ĳ":{"ha":767,"x_min":88,"x_max":681,"o":"m 88 0 m 256 763 q 286 731 286 763 l 286 31 q 256 0 286 0 l 119 0 q 89 31 89 0 l 89 731 q 119 763 89 763 l 256 763 m 650 763 q 681 731 681 763 l 681 -28 q 665 -156 681 -103 q 613 -242 650 -208 q 515 -292 576 -276 q 364 -307 454 -307 l 254 -307 q 229 -282 229 -307 l 229 -165 q 254 -140 229 -140 l 344 -140 q 413 -133 386 -140 q 455 -108 439 -125 q 476 -61 471 -90 q 482 11 482 -32 l 482 731 q 514 763 482 763 l 650 763 m 650 1044 q 681 1014 681 1044 l 681 882 q 650 850 681 850 l 514 850 q 482 882 482 850 l 482 1014 q 514 1044 482 1044 l 650 1044 m 256 1044 q 286 1014 286 1044 l 286 882 q 256 850 286 850 l 119 850 q 88 882 88 850 l 88 1014 q 119 1044 88 1044 l 256 1044 z "},"Ķ":{"ha":1186,"x_min":92,"x_max":1167,"o":"m 92 0 m 274 972 q 304 942 304 972 l 304 572 l 500 572 q 556 574 533 572 q 594 583 578 576 q 625 603 611 590 q 654 635 639 615 l 893 954 q 907 968 900 964 q 933 972 914 972 l 1106 972 q 1127 960 1124 972 q 1124 939 1131 949 l 854 590 q 810 536 831 558 q 771 497 790 514 q 876 397 825 464 l 1161 36 q 1165 15 1167 29 q 1143 0 1164 0 l 965 0 q 940 4 947 0 q 926 18 933 8 l 671 349 q 611 398 643 385 q 515 411 579 411 l 304 411 l 304 31 q 274 0 304 0 l 124 0 q 92 31 92 0 l 92 942 q 124 972 92 972 l 274 972 m 644 -57 q 671 -93 679 -57 l 610 -346 q 575 -378 601 -378 l 496 -378 q 464 -346 461 -378 l 486 -89 q 519 -57 489 -57 l 644 -57 z "},"ķ":{"ha":1103,"x_min":86,"x_max":1085,"o":"m 86 0 m 254 1042 q 285 1011 285 1042 l 285 461 l 540 461 q 590 463 569 461 q 625 472 610 465 q 652 489 640 478 q 678 519 664 500 l 833 739 q 851 757 842 751 q 875 763 860 763 l 1032 763 q 1051 751 1047 763 q 1046 725 1056 739 l 867 479 q 781 390 825 422 q 879 301 838 358 l 1076 35 q 1080 12 1085 24 q 1060 0 1075 0 l 904 0 q 878 4 886 0 q 861 19 869 8 l 692 253 q 638 299 667 286 q 553 311 610 311 l 285 311 l 285 31 q 254 0 285 0 l 118 0 q 86 31 86 0 l 86 1011 q 118 1042 86 1042 l 254 1042 m 611 -57 q 638 -93 646 -57 l 576 -346 q 542 -378 568 -378 l 463 -378 q 431 -346 428 -378 l 453 -89 q 486 -57 456 -57 l 611 -57 z "},"Ĺ":{"ha":1113,"x_min":89,"x_max":1079,"o":"m 89 0 m 271 972 q 301 942 301 972 l 301 388 q 310 295 301 332 q 340 237 319 258 q 397 206 361 215 q 486 197 432 197 l 1049 197 q 1079 167 1079 197 l 1079 31 q 1049 0 1079 0 l 478 0 q 299 19 372 0 q 178 83 225 39 q 110 197 132 126 q 89 367 89 267 l 89 942 q 121 972 89 972 l 271 972 m 431 1272 q 453 1265 446 1272 q 450 1246 460 1258 l 308 1042 q 291 1022 300 1028 q 267 1015 282 1015 l 161 1015 q 139 1022 146 1015 q 140 1042 132 1029 l 264 1246 q 307 1272 279 1272 l 431 1272 z "},"ĺ":{"ha":393,"x_min":89,"x_max":439,"o":"m 410 1272 q 432 1265 425 1272 q 429 1246 439 1258 l 281 1031 q 286 1011 286 1022 l 286 31 q 256 0 286 0 l 119 0 q 89 31 89 0 l 89 1011 q 119 1042 89 1042 l 243 1246 q 286 1272 258 1272 l 410 1272 z "},"Ļ":{"ha":1113,"x_min":89,"x_max":1079,"o":"m 89 0 m 271 972 q 301 942 301 972 l 301 388 q 310 295 301 332 q 340 237 319 258 q 397 206 361 215 q 486 197 432 197 l 1049 197 q 1079 167 1079 197 l 1079 31 q 1049 0 1079 0 l 478 0 q 299 19 372 0 q 178 83 225 39 q 110 197 132 126 q 89 367 89 267 l 89 942 q 121 972 89 972 l 271 972 m 668 -57 q 694 -93 703 -57 l 633 -346 q 599 -378 625 -378 l 519 -378 q 488 -346 485 -378 l 510 -89 q 543 -57 513 -57 l 668 -57 z "},"ļ":{"ha":375,"x_min":63,"x_max":286,"o":"m 63 0 m 256 1042 q 286 1011 286 1042 l 286 31 q 256 0 286 0 l 119 0 q 89 31 89 0 l 89 1011 q 119 1042 89 1042 l 256 1042 m 246 -57 q 272 -93 281 -57 l 211 -346 q 176 -378 203 -378 l 97 -378 q 65 -346 63 -378 l 88 -89 q 121 -57 90 -57 l 246 -57 z "},"Ľ":{"ha":1113,"x_min":89,"x_max":1079,"o":"m 89 0 m 271 972 q 301 942 301 972 l 301 388 q 310 295 301 332 q 340 237 319 258 q 397 206 361 215 q 486 197 432 197 l 1049 197 q 1079 167 1079 197 l 1079 31 q 1049 0 1079 0 l 478 0 q 299 19 372 0 q 178 83 225 39 q 110 197 132 126 q 89 367 89 267 l 89 942 q 121 972 89 972 l 271 972 m 758 1036 q 785 1000 793 1036 l 724 747 q 689 715 715 715 l 610 715 q 578 747 575 715 l 600 1004 q 633 1036 603 1036 l 758 1036 z "},"ľ":{"ha":521,"x_min":89,"x_max":561,"o":"m 89 0 m 256 1042 q 286 1011 286 1042 l 286 31 q 256 0 286 0 l 119 0 q 89 31 89 0 l 89 1011 q 119 1042 89 1042 l 256 1042 m 526 1036 q 553 1000 561 1036 l 492 747 q 457 715 483 715 l 378 715 q 346 747 343 715 l 368 1004 q 401 1036 371 1036 l 526 1036 z "},"Ł":{"ha":1142,"x_min":8,"x_max":1108,"o":"m 300 972 q 331 942 331 972 l 331 713 l 565 792 q 590 776 590 800 l 590 679 q 585 662 590 667 q 568 653 579 657 l 331 572 l 331 388 q 340 295 331 332 q 369 237 349 258 q 426 206 390 215 q 515 197 461 197 l 1078 197 q 1108 167 1108 197 l 1108 31 q 1078 0 1108 0 l 507 0 q 328 19 401 0 q 208 83 254 39 q 140 197 161 126 q 118 367 118 267 l 118 500 l 33 471 q 8 488 8 461 l 8 585 q 14 602 8 597 q 32 611 19 607 l 118 640 l 118 942 q 150 972 118 972 l 300 972 z "},"ł":{"ha":594,"x_min":6,"x_max":588,"o":"m 365 1042 q 396 1011 396 1042 l 396 824 l 563 881 q 588 865 588 889 l 588 768 q 582 751 588 756 q 565 742 576 746 l 396 683 l 396 31 q 365 0 396 0 l 229 0 q 199 31 199 0 l 199 617 l 31 560 q 6 576 6 550 l 6 674 q 11 691 6 686 q 29 700 17 696 l 199 757 l 199 1011 q 229 1042 199 1042 l 365 1042 z "},"Ń":{"ha":1358,"x_min":92,"x_max":1265,"o":"m 92 0 m 339 972 q 394 969 372 972 q 433 958 417 967 q 465 933 450 949 q 500 890 481 917 l 1017 213 q 1035 203 1022 203 l 1047 203 q 1058 217 1058 203 l 1058 942 q 1089 972 1058 972 l 1235 972 q 1265 942 1265 972 l 1265 144 q 1235 30 1265 60 q 1140 0 1204 0 l 1021 0 q 967 3 989 0 q 929 14 946 6 q 897 38 913 22 q 860 82 881 54 l 342 760 q 324 769 333 769 l 311 769 q 300 756 300 769 l 300 31 q 269 0 300 0 l 124 0 q 92 31 92 0 l 92 828 q 122 942 92 913 q 217 972 153 972 l 339 972 m 858 1272 q 881 1265 874 1272 q 878 1246 888 1258 l 736 1042 q 719 1022 728 1028 q 694 1015 710 1015 l 589 1015 q 567 1022 574 1015 q 568 1042 560 1029 l 692 1246 q 735 1272 707 1272 l 858 1272 z "},"ń":{"ha":1228,"x_min":83,"x_max":1143,"o":"m 83 0 m 813 763 q 969 747 906 763 q 1072 697 1033 731 q 1126 609 1110 663 q 1143 481 1143 556 l 1143 31 q 1113 0 1143 0 l 976 0 q 946 31 946 0 l 946 433 q 940 506 946 476 q 919 553 935 536 q 875 578 903 571 q 803 586 847 586 l 433 586 q 360 578 389 586 q 313 553 331 571 q 289 506 296 536 q 282 433 282 476 l 282 31 q 251 0 282 0 l 115 0 q 83 31 83 0 l 83 481 q 100 609 83 556 q 155 697 117 663 q 256 747 193 731 q 414 763 319 763 l 813 763 m 786 1133 q 808 1125 801 1133 q 807 1101 815 1117 l 664 844 q 647 821 656 829 q 622 813 638 813 l 517 813 q 494 821 501 813 q 494 844 488 829 l 621 1101 q 664 1133 636 1133 l 786 1133 z "},"Ņ":{"ha":1358,"x_min":92,"x_max":1265,"o":"m 92 0 m 339 972 q 394 969 372 972 q 433 958 417 967 q 465 933 450 949 q 500 890 481 917 l 1017 213 q 1035 203 1022 203 l 1047 203 q 1058 217 1058 203 l 1058 942 q 1089 972 1058 972 l 1235 972 q 1265 942 1265 972 l 1265 144 q 1235 30 1265 60 q 1140 0 1204 0 l 1021 0 q 967 3 989 0 q 929 14 946 6 q 897 38 913 22 q 860 82 881 54 l 342 760 q 324 769 333 769 l 311 769 q 300 756 300 769 l 300 31 q 269 0 300 0 l 124 0 q 92 31 92 0 l 92 828 q 122 942 92 913 q 217 972 153 972 l 339 972 m 710 -57 q 736 -93 744 -57 l 675 -346 q 640 -378 667 -378 l 561 -378 q 529 -346 526 -378 l 551 -89 q 585 -57 554 -57 l 710 -57 z "},"ņ":{"ha":1228,"x_min":83,"x_max":1143,"o":"m 83 0 m 813 763 q 969 747 906 763 q 1072 697 1033 731 q 1126 609 1110 663 q 1143 481 1143 556 l 1143 31 q 1113 0 1143 0 l 976 0 q 946 31 946 0 l 946 433 q 940 506 946 476 q 919 553 935 536 q 875 578 903 571 q 803 586 847 586 l 433 586 q 360 578 389 586 q 313 553 331 571 q 289 506 296 536 q 282 433 282 476 l 282 31 q 251 0 282 0 l 115 0 q 83 31 83 0 l 83 481 q 100 609 83 556 q 155 697 117 663 q 256 747 193 731 q 414 763 319 763 l 813 763 m 685 -57 q 711 -93 719 -57 l 650 -346 q 615 -378 642 -378 l 536 -378 q 504 -346 501 -378 l 526 -89 q 560 -57 529 -57 l 685 -57 z "},"Ň":{"ha":1358,"x_min":92,"x_max":1265,"o":"m 92 0 m 339 972 q 394 969 372 972 q 433 958 417 967 q 465 933 450 949 q 500 890 481 917 l 1017 213 q 1035 203 1022 203 l 1047 203 q 1058 217 1058 203 l 1058 942 q 1089 972 1058 972 l 1235 972 q 1265 942 1265 972 l 1265 144 q 1235 30 1265 60 q 1140 0 1204 0 l 1021 0 q 967 3 989 0 q 929 14 946 6 q 897 38 913 22 q 860 82 881 54 l 342 760 q 324 769 333 769 l 311 769 q 300 756 300 769 l 300 31 q 269 0 300 0 l 124 0 q 92 31 92 0 l 92 828 q 122 942 92 913 q 217 972 153 972 l 339 972 m 536 1272 q 563 1266 553 1272 q 579 1247 572 1260 l 660 1126 q 678 1115 667 1115 l 683 1115 q 701 1126 694 1115 l 781 1247 q 799 1266 789 1260 q 824 1272 808 1272 l 932 1272 q 952 1264 946 1272 q 949 1243 958 1256 l 803 1044 q 778 1022 792 1029 q 742 1015 765 1015 l 618 1015 q 582 1022 594 1015 q 558 1044 569 1029 l 411 1243 q 408 1264 401 1256 q 429 1272 414 1272 l 536 1272 z "},"ň":{"ha":1228,"x_min":83,"x_max":1143,"o":"m 83 0 m 813 763 q 969 747 906 763 q 1072 697 1033 731 q 1126 609 1110 663 q 1143 481 1143 556 l 1143 31 q 1113 0 1143 0 l 976 0 q 946 31 946 0 l 946 433 q 940 506 946 476 q 919 553 935 536 q 875 578 903 571 q 803 586 847 586 l 433 586 q 360 578 389 586 q 313 553 331 571 q 289 506 296 536 q 282 433 282 476 l 282 31 q 251 0 282 0 l 115 0 q 83 31 83 0 l 83 481 q 100 609 83 556 q 155 697 117 663 q 256 747 193 731 q 414 763 319 763 l 813 763 m 469 1133 q 496 1126 486 1133 q 513 1101 506 1118 l 593 949 q 611 936 599 936 l 617 936 q 633 949 626 936 l 714 1101 q 731 1126 721 1118 q 757 1133 740 1133 l 864 1133 q 885 1124 879 1133 q 882 1099 892 1114 l 735 847 q 711 821 724 829 q 675 813 699 813 l 551 813 q 515 821 528 813 q 492 847 503 829 l 344 1099 q 341 1124 335 1114 q 363 1133 347 1133 l 469 1133 z "},"Ŋ":{"ha":1357,"x_min":89,"x_max":1267,"o":"m 1054 585 q 1046 676 1054 640 q 1017 734 1038 713 q 960 765 996 756 q 871 774 925 774 l 486 774 q 397 765 432 774 q 340 734 361 756 q 310 676 319 713 q 301 585 301 640 l 301 31 q 271 0 301 0 l 121 0 q 89 31 89 0 l 89 606 q 110 775 89 706 q 178 888 132 844 q 299 952 225 932 q 478 972 372 972 l 878 972 q 1058 952 983 972 q 1178 888 1132 932 q 1246 775 1225 844 q 1267 606 1267 706 l 1267 -28 q 1249 -156 1267 -103 q 1192 -242 1232 -208 q 1090 -292 1153 -276 q 936 -307 1026 -307 l 826 -307 q 801 -282 801 -307 l 801 -165 q 826 -140 801 -140 l 917 -140 q 985 -133 958 -140 q 1027 -108 1011 -125 q 1049 -61 1043 -90 q 1054 11 1054 -32 l 1054 585 z "},"ŋ":{"ha":1228,"x_min":83,"x_max":1143,"o":"m 1143 -28 q 1128 -156 1143 -103 q 1076 -242 1113 -208 q 978 -292 1039 -276 q 828 -307 918 -307 l 718 -307 q 693 -282 693 -307 l 693 -165 q 718 -140 693 -140 l 808 -140 q 876 -133 850 -140 q 919 -108 903 -125 q 940 -61 935 -90 q 946 11 946 -32 l 946 433 q 940 506 946 476 q 919 553 935 536 q 875 578 903 571 q 803 586 847 586 l 433 586 q 360 578 389 586 q 313 553 331 571 q 289 506 296 536 q 282 433 282 476 l 282 31 q 251 0 282 0 l 115 0 q 83 31 83 0 l 83 481 q 100 609 83 556 q 155 697 117 663 q 256 747 193 731 q 414 763 319 763 l 813 763 q 969 747 906 763 q 1072 697 1033 731 q 1126 609 1110 663 q 1143 481 1143 556 l 1143 -28 z "},"Ō":{"ha":1368,"x_min":81,"x_max":1288,"o":"m 81 0 m 899 972 q 1078 952 1004 972 q 1199 888 1153 932 q 1267 775 1246 844 q 1288 606 1288 706 l 1288 367 q 1267 197 1288 267 q 1199 83 1246 126 q 1078 19 1153 39 q 899 0 1004 0 l 469 0 q 290 19 364 0 q 170 83 217 39 q 102 197 124 126 q 81 367 81 267 l 81 606 q 102 775 81 706 q 170 888 124 844 q 290 952 217 932 q 469 972 364 972 l 899 972 m 293 382 q 302 291 293 328 q 332 233 311 254 q 388 202 353 211 q 478 193 424 193 l 890 193 q 980 202 944 193 q 1036 233 1015 211 q 1066 291 1057 254 q 1075 382 1075 328 l 1075 590 q 1066 681 1075 644 q 1036 740 1057 718 q 980 770 1015 761 q 890 779 944 779 l 478 779 q 388 770 424 779 q 332 740 353 761 q 302 681 311 718 q 293 590 293 644 l 293 382 m 1010 1208 q 1040 1183 1040 1208 l 1040 1097 q 1010 1072 1040 1072 l 357 1072 q 326 1097 326 1072 l 326 1183 q 357 1208 326 1208 l 1010 1208 z "},"ō":{"ha":1206,"x_min":75,"x_max":1129,"o":"m 75 0 m 799 763 q 956 747 892 763 q 1058 697 1019 731 q 1113 609 1096 663 q 1129 481 1129 556 l 1129 281 q 1113 152 1129 206 q 1058 65 1096 99 q 956 15 1019 31 q 799 0 892 0 l 406 0 q 248 15 311 0 q 147 65 185 31 q 92 152 108 99 q 75 281 75 206 l 75 481 q 92 609 75 556 q 147 697 108 663 q 248 747 185 731 q 406 763 311 763 l 799 763 m 274 315 q 281 242 274 271 q 305 195 288 213 q 351 170 322 178 q 425 163 381 163 l 779 163 q 854 170 825 163 q 901 195 883 178 q 925 242 918 213 q 932 315 932 271 l 932 447 q 925 519 932 490 q 901 567 918 549 q 854 592 883 585 q 779 599 825 599 l 425 599 q 351 592 381 599 q 305 567 322 585 q 281 519 288 549 q 274 447 274 490 l 274 315 m 929 1019 q 960 989 960 1019 l 960 908 q 929 878 960 878 l 278 878 q 246 908 246 878 l 246 989 q 278 1019 246 1019 l 929 1019 z "},"Ŏ":{"ha":1368,"x_min":81,"x_max":1288,"o":"m 81 0 m 899 972 q 1078 952 1004 972 q 1199 888 1153 932 q 1267 775 1246 844 q 1288 606 1288 706 l 1288 367 q 1267 197 1288 267 q 1199 83 1246 126 q 1078 19 1153 39 q 899 0 1004 0 l 469 0 q 290 19 364 0 q 170 83 217 39 q 102 197 124 126 q 81 367 81 267 l 81 606 q 102 775 81 706 q 170 888 124 844 q 290 952 217 932 q 469 972 364 972 l 899 972 m 293 382 q 302 291 293 328 q 332 233 311 254 q 388 202 353 211 q 478 193 424 193 l 890 193 q 980 202 944 193 q 1036 233 1015 211 q 1066 291 1057 254 q 1075 382 1075 328 l 1075 590 q 1066 681 1075 644 q 1036 740 1057 718 q 980 770 1015 761 q 890 779 944 779 l 478 779 q 388 770 424 779 q 332 740 353 761 q 302 681 311 718 q 293 590 293 644 l 293 382 m 350 1236 q 375 1263 350 1263 q 410 1249 390 1263 q 445 1225 421 1240 q 504 1194 469 1210 q 584 1167 539 1178 q 682 1156 629 1156 q 781 1167 736 1156 q 861 1194 826 1178 q 920 1225 896 1210 q 956 1249 944 1240 q 990 1263 975 1263 q 1015 1236 1015 1263 l 1015 1179 q 1011 1155 1015 1165 q 989 1132 1007 1144 q 938 1103 969 1118 q 867 1075 907 1088 q 779 1054 826 1063 q 682 1046 732 1046 q 585 1054 632 1046 q 499 1075 539 1063 q 427 1103 458 1088 q 376 1132 396 1118 q 354 1155 358 1144 q 350 1179 350 1165 l 350 1236 z "},"ŏ":{"ha":1206,"x_min":75,"x_max":1129,"o":"m 75 0 m 799 763 q 956 747 892 763 q 1058 697 1019 731 q 1113 609 1096 663 q 1129 481 1129 556 l 1129 281 q 1113 152 1129 206 q 1058 65 1096 99 q 956 15 1019 31 q 799 0 892 0 l 406 0 q 248 15 311 0 q 147 65 185 31 q 92 152 108 99 q 75 281 75 206 l 75 481 q 92 609 75 556 q 147 697 108 663 q 248 747 185 731 q 406 763 311 763 l 799 763 m 274 315 q 281 242 274 271 q 305 195 288 213 q 351 170 322 178 q 425 163 381 163 l 779 163 q 854 170 825 163 q 901 195 883 178 q 925 242 918 213 q 932 315 932 271 l 932 447 q 925 519 932 490 q 901 567 918 549 q 854 592 883 585 q 779 599 825 599 l 425 599 q 351 592 381 599 q 305 567 322 585 q 281 519 288 549 q 274 447 274 490 l 274 315 m 268 1076 q 275 1099 268 1089 q 294 1108 282 1108 q 329 1093 310 1108 q 365 1065 340 1083 q 424 1029 389 1047 q 503 998 458 1011 q 601 985 547 985 q 700 998 656 985 q 780 1029 744 1011 q 839 1065 815 1047 q 875 1093 863 1083 q 893 1105 885 1101 q 908 1108 901 1108 q 928 1099 921 1108 q 935 1076 935 1089 l 935 1004 q 931 976 935 989 q 908 947 926 963 q 858 915 889 932 q 785 883 826 897 q 698 859 744 868 q 601 850 651 850 q 504 859 551 850 q 417 883 457 868 q 346 915 378 897 q 296 947 314 932 q 272 976 276 963 q 268 1004 268 989 l 268 1076 z "},"Ő":{"ha":1368,"x_min":81,"x_max":1288,"o":"m 81 0 m 899 972 q 1078 952 1004 972 q 1199 888 1153 932 q 1267 775 1246 844 q 1288 606 1288 706 l 1288 367 q 1267 197 1288 267 q 1199 83 1246 126 q 1078 19 1153 39 q 899 0 1004 0 l 469 0 q 290 19 364 0 q 170 83 217 39 q 102 197 124 126 q 81 367 81 267 l 81 606 q 102 775 81 706 q 170 888 124 844 q 290 952 217 932 q 469 972 364 972 l 899 972 m 293 382 q 302 291 293 328 q 332 233 311 254 q 388 202 353 211 q 478 193 424 193 l 890 193 q 980 202 944 193 q 1036 233 1015 211 q 1066 291 1057 254 q 1075 382 1075 328 l 1075 590 q 1066 681 1075 644 q 1036 740 1057 718 q 980 770 1015 761 q 890 779 944 779 l 478 779 q 388 770 424 779 q 332 740 353 761 q 302 681 311 718 q 293 590 293 644 l 293 382 m 700 1272 q 722 1265 715 1272 q 721 1246 729 1258 l 579 1042 q 561 1022 571 1028 q 536 1015 551 1015 l 431 1015 q 409 1022 415 1015 q 410 1042 403 1029 l 535 1246 q 578 1272 547 1272 l 700 1272 m 1018 1272 q 1040 1265 1032 1272 q 1038 1246 1047 1258 l 896 1042 q 878 1022 888 1028 q 854 1015 869 1015 l 749 1015 q 726 1022 732 1015 q 726 1042 719 1029 l 851 1246 q 894 1272 867 1272 l 1018 1272 z "},"ő":{"ha":1206,"x_min":75,"x_max":1129,"o":"m 75 0 m 799 763 q 956 747 892 763 q 1058 697 1019 731 q 1113 609 1096 663 q 1129 481 1129 556 l 1129 281 q 1113 152 1129 206 q 1058 65 1096 99 q 956 15 1019 31 q 799 0 892 0 l 406 0 q 248 15 311 0 q 147 65 185 31 q 92 152 108 99 q 75 281 75 206 l 75 481 q 92 609 75 556 q 147 697 108 663 q 248 747 185 731 q 406 763 311 763 l 799 763 m 274 315 q 281 242 274 271 q 305 195 288 213 q 351 170 322 178 q 425 163 381 163 l 779 163 q 854 170 825 163 q 901 195 883 178 q 925 242 918 213 q 932 315 932 271 l 932 447 q 925 519 932 490 q 901 567 918 549 q 854 592 883 585 q 779 599 825 599 l 425 599 q 351 592 381 599 q 305 567 322 585 q 281 519 288 549 q 274 447 274 490 l 274 315 m 933 1133 q 956 1125 949 1133 q 954 1101 963 1117 l 811 844 q 794 821 803 829 q 769 813 785 813 l 664 813 q 641 821 647 813 q 642 844 635 829 l 768 1101 q 811 1133 783 1133 l 933 1133 m 617 1133 q 639 1125 632 1133 q 638 1101 646 1117 l 494 844 q 476 821 485 829 q 451 813 467 813 l 346 813 q 324 821 331 813 q 325 844 318 829 l 450 1101 q 467 1125 457 1117 q 494 1133 478 1133 l 617 1133 z "},"Œ":{"ha":2182,"x_min":81,"x_max":2114,"o":"m 899 972 q 1067 955 997 972 q 1185 900 1138 938 q 1302 955 1232 938 q 1471 972 1372 972 l 2082 972 q 2114 942 2114 972 l 2114 810 q 2082 779 2114 779 l 1475 779 q 1385 770 1421 779 q 1328 740 1350 761 q 1299 681 1307 718 q 1290 590 1290 644 l 1290 576 l 2075 576 q 2106 546 2106 576 l 2106 436 q 2075 406 2106 406 l 1290 406 l 1290 382 q 1299 291 1290 328 q 1328 233 1307 254 q 1385 202 1350 211 q 1475 193 1421 193 l 2082 193 q 2114 163 2114 193 l 2114 31 q 2082 0 2114 0 l 1471 0 q 1302 17 1372 0 q 1185 71 1232 33 q 1067 17 1138 33 q 899 0 997 0 l 469 0 q 290 19 364 0 q 170 83 217 39 q 102 197 124 126 q 81 367 81 267 l 81 606 q 102 775 81 706 q 170 888 124 844 q 290 952 217 932 q 469 972 364 972 l 899 972 m 293 382 q 302 291 293 328 q 332 233 311 254 q 388 202 353 211 q 478 193 424 193 l 890 193 q 980 202 944 193 q 1036 233 1015 211 q 1066 291 1057 254 q 1075 382 1075 328 l 1075 590 q 1066 681 1075 644 q 1036 740 1057 718 q 980 770 1015 761 q 890 779 944 779 l 478 779 q 388 770 424 779 q 332 740 353 761 q 302 681 311 718 q 293 590 293 644 l 293 382 z "},"œ":{"ha":1976,"x_min":75,"x_max":1915,"o":"m 799 763 q 1033 715 956 763 q 1268 763 1110 763 l 1675 763 q 1792 751 1746 763 q 1866 712 1839 739 q 1904 641 1893 685 q 1915 535 1915 597 l 1915 403 q 1896 341 1915 358 q 1836 324 1876 324 l 1135 324 l 1135 290 q 1166 196 1135 225 q 1288 167 1197 167 l 1867 167 q 1892 142 1892 167 l 1892 25 q 1867 0 1892 0 l 1268 0 q 1033 47 1110 0 q 799 0 956 0 l 406 0 q 248 15 311 0 q 147 65 185 31 q 92 152 108 99 q 75 281 75 206 l 75 481 q 92 609 75 556 q 147 697 108 663 q 248 747 185 731 q 406 763 311 763 l 799 763 m 274 315 q 281 242 274 271 q 305 195 288 213 q 351 170 322 178 q 425 163 381 163 l 779 163 q 854 170 825 163 q 901 195 883 178 q 925 242 918 213 q 932 315 932 271 l 932 447 q 925 519 932 490 q 901 567 918 549 q 854 592 883 585 q 779 599 825 599 l 425 599 q 351 592 381 599 q 305 567 322 585 q 281 519 288 549 q 274 447 274 490 l 274 315 m 1135 447 l 1697 447 q 1721 471 1721 447 l 1721 529 q 1703 590 1721 572 q 1636 608 1685 608 l 1288 608 q 1166 580 1197 608 q 1135 485 1135 551 l 1135 447 z "},"Ŕ":{"ha":1257,"x_min":92,"x_max":1215,"o":"m 92 0 m 879 972 q 1108 900 1039 972 q 1178 686 1178 828 l 1178 607 q 1129 418 1178 488 q 971 329 1081 349 l 1208 35 q 1213 14 1215 28 q 1190 0 1210 0 l 1011 0 q 986 4 993 0 q 972 18 979 8 l 753 307 l 304 307 l 304 31 q 274 0 304 0 l 124 0 q 92 31 92 0 l 92 931 q 133 972 92 972 l 879 972 m 304 476 l 836 476 q 936 507 907 476 q 965 600 965 538 l 965 658 q 936 751 965 721 q 836 782 907 782 l 322 782 q 304 765 304 782 l 304 476 m 769 1272 q 792 1265 785 1272 q 789 1246 799 1258 l 647 1042 q 630 1022 639 1028 q 606 1015 621 1015 l 500 1015 q 478 1022 485 1015 q 479 1042 471 1029 l 603 1246 q 646 1272 618 1272 l 769 1272 z "},"ŕ":{"ha":851,"x_min":83,"x_max":828,"o":"m 83 0 m 803 763 q 828 738 828 763 l 828 621 q 803 596 828 596 l 433 596 q 360 588 389 596 q 313 563 331 581 q 289 516 296 546 q 282 443 282 486 l 282 31 q 251 0 282 0 l 115 0 q 83 31 83 0 l 83 481 q 100 609 83 556 q 155 697 117 663 q 256 747 193 731 q 414 763 319 763 l 803 763 m 657 1133 q 679 1125 672 1133 q 678 1101 686 1117 l 535 844 q 517 821 526 829 q 493 813 508 813 l 388 813 q 365 821 372 813 q 365 844 358 829 l 492 1101 q 535 1133 507 1133 l 657 1133 z "},"Ŗ":{"ha":1257,"x_min":92,"x_max":1215,"o":"m 92 0 m 879 972 q 1108 900 1039 972 q 1178 686 1178 828 l 1178 607 q 1129 418 1178 488 q 971 329 1081 349 l 1208 35 q 1213 14 1215 28 q 1190 0 1210 0 l 1011 0 q 986 4 993 0 q 972 18 979 8 l 753 307 l 304 307 l 304 31 q 274 0 304 0 l 124 0 q 92 31 92 0 l 92 931 q 133 972 92 972 l 879 972 m 304 476 l 836 476 q 936 507 907 476 q 965 600 965 538 l 965 658 q 936 751 965 721 q 836 782 907 782 l 322 782 q 304 765 304 782 l 304 476 m 674 -57 q 700 -93 708 -57 l 639 -346 q 604 -378 631 -378 l 525 -378 q 493 -346 490 -378 l 515 -89 q 549 -57 518 -57 l 674 -57 z "},"ŗ":{"ha":851,"x_min":64,"x_max":828,"o":"m 64 0 m 803 763 q 828 738 828 763 l 828 621 q 803 596 828 596 l 433 596 q 360 588 389 596 q 313 563 331 581 q 289 516 296 546 q 282 443 282 486 l 282 31 q 251 0 282 0 l 115 0 q 83 31 83 0 l 83 481 q 100 609 83 556 q 155 697 117 663 q 256 747 193 731 q 414 763 319 763 l 803 763 m 247 -57 q 274 -93 282 -57 l 213 -346 q 178 -378 204 -378 l 99 -378 q 67 -346 64 -378 l 89 -89 q 122 -57 92 -57 l 247 -57 z "},"Ř":{"ha":1257,"x_min":92,"x_max":1215,"o":"m 92 0 m 879 972 q 1108 900 1039 972 q 1178 686 1178 828 l 1178 607 q 1129 418 1178 488 q 971 329 1081 349 l 1208 35 q 1213 14 1215 28 q 1190 0 1210 0 l 1011 0 q 986 4 993 0 q 972 18 979 8 l 753 307 l 304 307 l 304 31 q 274 0 304 0 l 124 0 q 92 31 92 0 l 92 931 q 133 972 92 972 l 879 972 m 304 476 l 836 476 q 936 507 907 476 q 965 600 965 538 l 965 658 q 936 751 965 721 q 836 782 907 782 l 322 782 q 304 765 304 782 l 304 476 m 443 1272 q 469 1266 460 1272 q 486 1247 479 1260 l 567 1126 q 585 1115 574 1115 l 590 1115 q 608 1126 601 1115 l 688 1247 q 706 1266 696 1260 q 731 1272 715 1272 l 839 1272 q 859 1264 853 1272 q 856 1243 865 1256 l 710 1044 q 685 1022 699 1029 q 649 1015 672 1015 l 525 1015 q 489 1022 501 1015 q 465 1044 476 1029 l 318 1243 q 315 1264 308 1256 q 336 1272 321 1272 l 443 1272 z "},"ř":{"ha":851,"x_min":83,"x_max":828,"o":"m 83 0 m 803 763 q 828 738 828 763 l 828 621 q 803 596 828 596 l 433 596 q 360 588 389 596 q 313 563 331 581 q 289 516 296 546 q 282 443 282 486 l 282 31 q 251 0 282 0 l 115 0 q 83 31 83 0 l 83 481 q 100 609 83 556 q 155 697 117 663 q 256 747 193 731 q 414 763 319 763 l 803 763 m 322 1133 q 349 1126 339 1133 q 365 1101 358 1118 l 446 949 q 464 936 451 936 l 469 936 q 486 949 479 936 l 567 1101 q 583 1126 574 1118 q 610 1133 593 1133 l 717 1133 q 738 1124 732 1133 q 735 1099 744 1114 l 588 847 q 564 821 576 829 q 528 813 551 813 l 404 813 q 368 821 381 813 q 344 847 356 829 l 197 1099 q 194 1124 188 1114 q 215 1133 200 1133 l 322 1133 z "},"Ś":{"ha":1190,"x_min":75,"x_max":1124,"o":"m 75 0 m 1057 972 q 1088 942 1088 972 l 1088 810 q 1057 779 1088 779 l 361 779 q 304 758 321 779 q 288 701 288 738 l 288 654 q 360 576 288 576 l 881 576 q 1063 515 1001 576 q 1124 338 1124 453 l 1124 226 q 1064 63 1124 125 q 878 0 1004 0 l 108 0 q 76 31 76 0 l 76 163 q 108 193 76 193 l 838 193 q 894 214 878 193 q 911 271 911 235 l 911 328 q 839 406 911 406 l 318 406 q 136 467 197 406 q 75 644 75 529 l 75 746 q 135 910 75 847 q 321 972 194 972 l 1057 972 m 769 1272 q 792 1265 785 1272 q 789 1246 799 1258 l 647 1042 q 630 1022 639 1028 q 606 1015 621 1015 l 500 1015 q 478 1022 485 1015 q 479 1042 471 1029 l 603 1246 q 646 1272 618 1272 l 769 1272 z "},"ś":{"ha":1088,"x_min":71,"x_max":1025,"o":"m 71 0 m 967 763 q 992 738 992 763 l 992 626 q 967 601 992 601 l 340 601 q 281 585 297 601 q 264 539 264 569 l 264 518 q 281 474 264 490 q 340 458 297 458 l 808 458 q 975 410 925 458 q 1025 272 1025 361 l 1025 194 q 1014 113 1025 149 q 977 51 1003 76 q 910 13 951 26 q 807 0 868 0 l 96 0 q 71 25 71 0 l 71 136 q 96 161 71 161 l 754 161 q 815 176 797 161 q 832 228 832 192 l 832 265 q 815 308 832 293 q 754 324 797 324 l 288 324 q 121 372 171 324 q 71 511 71 419 l 71 572 q 82 651 71 615 q 119 711 93 686 q 186 749 144 736 q 289 763 228 763 l 967 763 m 719 1133 q 742 1125 735 1133 q 740 1101 749 1117 l 597 844 q 580 821 589 829 q 556 813 571 813 l 450 813 q 428 821 435 813 q 428 844 421 829 l 554 1101 q 597 1133 569 1133 l 719 1133 z "},"Ş":{"ha":1190,"x_min":75,"x_max":1124,"o":"m 75 0 m 1057 972 q 1088 942 1088 972 l 1088 810 q 1057 779 1088 779 l 361 779 q 304 758 321 779 q 288 701 288 738 l 288 654 q 360 576 288 576 l 881 576 q 1063 515 1001 576 q 1124 338 1124 453 l 1124 226 q 1064 63 1124 125 q 878 0 1004 0 l 108 0 q 76 31 76 0 l 76 163 q 108 193 76 193 l 838 193 q 894 214 878 193 q 911 271 911 235 l 911 328 q 839 406 911 406 l 318 406 q 136 467 197 406 q 75 644 75 529 l 75 746 q 135 910 75 847 q 321 972 194 972 l 1057 972 m 667 -57 q 693 -93 701 -57 l 632 -346 q 597 -378 624 -378 l 518 -378 q 486 -346 483 -378 l 508 -89 q 542 -57 511 -57 l 667 -57 z "},"ş":{"ha":1088,"x_min":71,"x_max":1025,"o":"m 71 0 m 967 763 q 992 738 992 763 l 992 626 q 967 601 992 601 l 340 601 q 281 585 297 601 q 264 539 264 569 l 264 518 q 281 474 264 490 q 340 458 297 458 l 808 458 q 975 410 925 458 q 1025 272 1025 361 l 1025 194 q 1014 113 1025 149 q 977 51 1003 76 q 910 13 951 26 q 807 0 868 0 l 96 0 q 71 25 71 0 l 71 136 q 96 161 71 161 l 754 161 q 815 176 797 161 q 832 228 832 192 l 832 265 q 815 308 832 293 q 754 324 797 324 l 288 324 q 121 372 171 324 q 71 511 71 419 l 71 572 q 82 651 71 615 q 119 711 93 686 q 186 749 144 736 q 289 763 228 763 l 967 763 m 614 -57 q 640 -93 649 -57 l 579 -346 q 544 -378 571 -378 l 465 -378 q 433 -346 431 -378 l 456 -89 q 489 -57 458 -57 l 614 -57 z "},"Š":{"ha":1190,"x_min":75,"x_max":1124,"o":"m 75 0 m 1057 972 q 1088 942 1088 972 l 1088 810 q 1057 779 1088 779 l 361 779 q 304 758 321 779 q 288 701 288 738 l 288 654 q 360 576 288 576 l 881 576 q 1063 515 1001 576 q 1124 338 1124 453 l 1124 226 q 1064 63 1124 125 q 878 0 1004 0 l 108 0 q 76 31 76 0 l 76 163 q 108 193 76 193 l 838 193 q 894 214 878 193 q 911 271 911 235 l 911 328 q 839 406 911 406 l 318 406 q 136 467 197 406 q 75 644 75 529 l 75 746 q 135 910 75 847 q 321 972 194 972 l 1057 972 m 454 1272 q 481 1266 471 1272 q 497 1247 490 1260 l 578 1126 q 596 1115 585 1115 l 601 1115 q 619 1126 613 1115 l 699 1247 q 717 1266 707 1260 q 742 1272 726 1272 l 850 1272 q 870 1264 864 1272 q 867 1243 876 1256 l 721 1044 q 697 1022 710 1029 q 660 1015 683 1015 l 536 1015 q 500 1022 513 1015 q 476 1044 488 1029 l 329 1243 q 326 1264 319 1256 q 347 1272 332 1272 l 454 1272 z "},"š":{"ha":1088,"x_min":71,"x_max":1025,"o":"m 71 0 m 967 763 q 992 738 992 763 l 992 626 q 967 601 992 601 l 340 601 q 281 585 297 601 q 264 539 264 569 l 264 518 q 281 474 264 490 q 340 458 297 458 l 808 458 q 975 410 925 458 q 1025 272 1025 361 l 1025 194 q 1014 113 1025 149 q 977 51 1003 76 q 910 13 951 26 q 807 0 868 0 l 96 0 q 71 25 71 0 l 71 136 q 96 161 71 161 l 754 161 q 815 176 797 161 q 832 228 832 192 l 832 265 q 815 308 832 293 q 754 324 797 324 l 288 324 q 121 372 171 324 q 71 511 71 419 l 71 572 q 82 651 71 615 q 119 711 93 686 q 186 749 144 736 q 289 763 228 763 l 967 763 m 401 1133 q 428 1126 418 1133 q 444 1101 438 1118 l 525 949 q 543 936 531 936 l 549 936 q 565 949 558 936 l 646 1101 q 663 1126 653 1118 q 689 1133 672 1133 l 796 1133 q 817 1124 811 1133 q 814 1099 824 1114 l 667 847 q 643 821 656 829 q 607 813 631 813 l 483 813 q 447 821 460 813 q 424 847 435 829 l 276 1099 q 273 1124 267 1114 q 294 1133 279 1133 l 401 1133 z "},"Ţ":{"ha":1213,"x_min":32,"x_max":1181,"o":"m 32 0 m 1149 972 q 1181 942 1181 972 l 1181 806 q 1149 774 1181 774 l 713 774 l 713 31 q 682 0 713 0 l 531 0 q 500 31 500 0 l 500 774 l 64 774 q 32 806 32 774 l 32 942 q 64 972 32 972 l 1149 972 m 663 -57 q 689 -93 697 -57 l 628 -346 q 593 -378 619 -378 l 514 -378 q 482 -346 479 -378 l 504 -89 q 538 -57 507 -57 l 663 -57 z "},"ţ":{"ha":701,"x_min":24,"x_max":656,"o":"m 24 0 m 181 763 l 181 946 q 211 976 181 976 l 349 976 q 379 946 379 976 l 379 763 l 622 763 q 647 738 647 763 l 647 624 q 622 599 647 599 l 379 599 l 379 276 q 403 191 379 218 q 496 164 426 164 l 631 164 q 656 139 656 164 l 656 25 q 631 0 656 0 l 463 0 q 325 15 379 0 q 238 64 271 31 q 193 150 206 97 q 181 276 181 203 l 181 599 l 49 599 q 24 624 24 599 l 24 738 q 49 763 24 763 l 181 763 m 463 -57 q 489 -93 497 -57 l 428 -346 q 393 -378 419 -378 l 314 -378 q 282 -346 279 -378 l 304 -89 q 338 -57 307 -57 l 463 -57 z "},"Ť":{"ha":1213,"x_min":32,"x_max":1181,"o":"m 32 0 m 1149 972 q 1181 942 1181 972 l 1181 806 q 1149 774 1181 774 l 713 774 l 713 31 q 682 0 713 0 l 531 0 q 500 31 500 0 l 500 774 l 64 774 q 32 806 32 774 l 32 942 q 64 972 32 972 l 1149 972 m 463 1272 q 489 1266 479 1272 q 506 1247 499 1260 l 586 1126 q 604 1115 593 1115 l 610 1115 q 628 1126 621 1115 l 707 1247 q 725 1266 715 1260 q 750 1272 735 1272 l 858 1272 q 878 1264 872 1272 q 875 1243 885 1256 l 729 1044 q 705 1022 718 1029 q 668 1015 692 1015 l 544 1015 q 508 1022 521 1015 q 485 1044 496 1029 l 338 1243 q 334 1264 328 1256 q 356 1272 340 1272 l 463 1272 z "},"ť":{"ha":860,"x_min":24,"x_max":900,"o":"m 24 0 m 181 763 l 181 946 q 211 976 181 976 l 349 976 q 379 946 379 976 l 379 763 l 622 763 q 647 738 647 763 l 647 624 q 622 599 647 599 l 379 599 l 379 276 q 403 191 379 218 q 496 164 426 164 l 631 164 q 656 139 656 164 l 656 25 q 631 0 656 0 l 463 0 q 325 15 379 0 q 238 64 271 31 q 193 150 206 97 q 181 276 181 203 l 181 599 l 49 599 q 24 624 24 599 l 24 738 q 49 763 24 763 l 181 763 m 865 1036 q 892 1000 900 1036 l 831 747 q 796 715 822 715 l 717 715 q 685 747 682 715 l 707 1004 q 740 1036 710 1036 l 865 1036 z "},"Ŧ":{"ha":1213,"x_min":32,"x_max":1181,"o":"m 500 485 l 500 774 l 64 774 q 32 806 32 774 l 32 942 q 64 972 32 972 l 1149 972 q 1181 942 1181 972 l 1181 806 q 1149 774 1181 774 l 713 774 l 713 485 l 932 485 q 963 454 963 485 l 963 374 q 932 343 963 343 l 713 343 l 713 31 q 682 0 713 0 l 531 0 q 500 31 500 0 l 500 343 l 281 343 q 249 374 249 343 l 249 454 q 281 485 249 485 l 500 485 z "},"ŧ":{"ha":746,"x_min":17,"x_max":731,"o":"m 201 468 l 201 599 l 69 599 q 44 624 44 599 l 44 738 q 69 763 44 763 l 201 763 l 201 946 q 232 976 201 976 l 369 976 q 400 946 400 976 l 400 763 l 643 763 q 668 738 668 763 l 668 624 q 643 599 668 599 l 400 599 l 400 468 l 700 468 q 731 438 731 468 l 731 357 q 700 326 731 326 l 400 326 l 400 276 q 424 191 400 218 q 517 164 447 164 l 651 164 q 676 139 676 164 l 676 25 q 651 0 676 0 l 483 0 q 346 15 400 0 q 259 64 292 31 q 214 150 226 97 q 201 276 201 203 l 201 326 l 49 326 q 17 357 17 326 l 17 438 q 49 468 17 468 l 201 468 z "},"Ũ":{"ha":1357,"x_min":89,"x_max":1267,"o":"m 89 0 m 271 972 q 301 942 301 972 l 301 388 q 310 295 301 332 q 340 237 319 258 q 397 206 361 215 q 486 197 432 197 l 871 197 q 960 206 925 197 q 1017 237 996 215 q 1046 295 1038 258 q 1054 388 1054 332 l 1054 942 q 1085 972 1054 972 l 1236 972 q 1267 942 1267 972 l 1267 367 q 1246 197 1267 267 q 1178 83 1225 126 q 1058 19 1132 39 q 878 0 983 0 l 478 0 q 299 19 372 0 q 178 83 225 39 q 110 197 132 126 q 89 367 89 267 l 89 942 q 121 972 89 972 l 271 972 m 346 1032 q 325 1041 329 1032 q 321 1072 321 1050 q 331 1167 321 1129 q 361 1226 340 1204 q 415 1258 382 1249 q 494 1267 449 1267 q 623 1247 569 1267 q 724 1189 676 1226 q 768 1158 747 1169 q 829 1146 789 1146 q 863 1150 850 1146 q 881 1165 875 1154 q 890 1195 888 1176 q 893 1242 893 1214 q 931 1272 894 1272 l 1010 1272 q 1030 1263 1025 1272 q 1035 1232 1035 1254 q 1025 1138 1035 1175 q 994 1078 1015 1100 q 939 1047 972 1056 q 860 1038 906 1038 q 732 1058 785 1038 q 632 1115 679 1078 q 587 1147 608 1135 q 525 1158 565 1158 q 474 1138 485 1158 q 463 1063 463 1118 q 424 1032 461 1032 l 346 1032 z "},"ũ":{"ha":1217,"x_min":83,"x_max":1132,"o":"m 83 0 m 251 763 q 282 731 282 763 l 282 329 q 288 256 282 285 q 308 209 293 226 q 351 184 324 192 q 425 176 379 176 l 782 176 q 857 184 828 176 q 903 209 886 192 q 928 256 921 226 q 935 329 935 285 l 935 731 q 965 763 935 763 l 1101 763 q 1132 731 1132 763 l 1132 281 q 1115 152 1132 206 q 1060 65 1099 99 q 958 15 1022 31 q 801 0 894 0 l 414 0 q 256 15 319 0 q 155 65 193 31 q 100 152 117 99 q 83 281 83 206 l 83 731 q 115 763 83 763 l 251 763 m 278 836 q 256 846 261 836 q 251 879 251 856 q 261 981 251 940 q 292 1047 271 1022 q 347 1081 314 1071 q 425 1090 379 1090 q 554 1069 501 1090 q 656 1007 607 1047 q 699 975 678 988 q 761 963 721 963 q 813 983 803 963 q 824 1061 824 1003 q 835 1088 825 1081 q 863 1094 844 1094 l 940 1094 q 961 1085 957 1094 q 965 1051 965 1075 q 956 949 965 990 q 925 884 946 908 q 872 850 904 860 q 793 840 839 840 q 664 862 717 840 q 563 924 611 883 q 519 956 540 943 q 457 968 497 968 q 405 948 415 968 q 393 869 394 928 q 383 843 393 850 q 356 836 374 836 l 278 836 z "},"Ū":{"ha":1357,"x_min":89,"x_max":1267,"o":"m 89 0 m 271 972 q 301 942 301 972 l 301 388 q 310 295 301 332 q 340 237 319 258 q 397 206 361 215 q 486 197 432 197 l 871 197 q 960 206 925 197 q 1017 237 996 215 q 1046 295 1038 258 q 1054 388 1054 332 l 1054 942 q 1085 972 1054 972 l 1236 972 q 1267 942 1267 972 l 1267 367 q 1246 197 1267 267 q 1178 83 1225 126 q 1058 19 1132 39 q 878 0 983 0 l 478 0 q 299 19 372 0 q 178 83 225 39 q 110 197 132 126 q 89 367 89 267 l 89 942 q 121 972 89 972 l 271 972 m 1004 1208 q 1035 1183 1035 1208 l 1035 1097 q 1004 1072 1035 1072 l 351 1072 q 321 1097 321 1072 l 321 1183 q 351 1208 321 1208 l 1004 1208 z "},"ū":{"ha":1217,"x_min":83,"x_max":1132,"o":"m 83 0 m 251 763 q 282 731 282 763 l 282 329 q 288 256 282 285 q 308 209 293 226 q 351 184 324 192 q 425 176 379 176 l 782 176 q 857 184 828 176 q 903 209 886 192 q 928 256 921 226 q 935 329 935 285 l 935 731 q 965 763 935 763 l 1101 763 q 1132 731 1132 763 l 1132 281 q 1115 152 1132 206 q 1060 65 1099 99 q 958 15 1022 31 q 801 0 894 0 l 414 0 q 256 15 319 0 q 155 65 193 31 q 100 152 117 99 q 83 281 83 206 l 83 731 q 115 763 83 763 l 251 763 m 935 1019 q 965 989 965 1019 l 965 908 q 935 878 965 878 l 283 878 q 251 908 251 878 l 251 989 q 283 1019 251 1019 l 935 1019 z "},"Ů":{"ha":1357,"x_min":89,"x_max":1267,"o":"m 89 0 m 271 972 q 301 942 301 972 l 301 388 q 310 295 301 332 q 340 237 319 258 q 397 206 361 215 q 486 197 432 197 l 871 197 q 960 206 925 197 q 1017 237 996 215 q 1046 295 1038 258 q 1054 388 1054 332 l 1054 942 q 1085 972 1054 972 l 1236 972 q 1267 942 1267 972 l 1267 367 q 1246 197 1267 267 q 1178 83 1225 126 q 1058 19 1132 39 q 878 0 983 0 l 478 0 q 299 19 372 0 q 178 83 225 39 q 110 197 132 126 q 89 367 89 267 l 89 942 q 121 972 89 972 l 271 972 m 744 1272 q 856 1247 824 1272 q 888 1164 888 1222 l 888 1094 q 856 1011 888 1036 q 744 986 824 986 l 610 986 q 500 1011 532 986 q 468 1094 468 1036 l 468 1164 q 500 1247 468 1222 q 610 1272 532 1272 l 744 1272 m 569 1108 q 581 1071 569 1081 q 629 1061 593 1061 l 726 1061 q 774 1071 763 1061 q 786 1108 786 1081 l 786 1149 q 774 1187 786 1176 q 726 1197 763 1197 l 629 1197 q 581 1187 593 1197 q 569 1149 569 1176 l 569 1108 z "},"ů":{"ha":1217,"x_min":83,"x_max":1132,"o":"m 83 0 m 251 763 q 282 731 282 763 l 282 329 q 288 256 282 285 q 308 209 293 226 q 351 184 324 192 q 425 176 379 176 l 782 176 q 857 184 828 176 q 903 209 886 192 q 928 256 921 226 q 935 329 935 285 l 935 731 q 965 763 935 763 l 1101 763 q 1132 731 1132 763 l 1132 281 q 1115 152 1132 206 q 1060 65 1099 99 q 958 15 1022 31 q 801 0 894 0 l 414 0 q 256 15 319 0 q 155 65 193 31 q 100 152 117 99 q 83 281 83 206 l 83 731 q 115 763 83 763 l 251 763 m 686 1133 q 797 1103 764 1133 q 829 999 829 1072 l 829 911 q 797 807 829 838 q 686 776 764 776 l 529 776 q 419 807 451 776 q 386 911 386 838 l 386 999 q 419 1103 386 1072 q 529 1133 451 1133 l 686 1133 m 489 929 q 501 881 489 893 q 549 868 513 868 l 668 868 q 715 881 703 868 q 726 929 726 893 l 726 981 q 715 1029 726 1017 q 668 1042 703 1042 l 549 1042 q 501 1029 513 1042 q 489 981 489 1017 l 489 929 z "},"Ű":{"ha":1357,"x_min":89,"x_max":1267,"o":"m 89 0 m 271 972 q 301 942 301 972 l 301 388 q 310 295 301 332 q 340 237 319 258 q 397 206 361 215 q 486 197 432 197 l 871 197 q 960 206 925 197 q 1017 237 996 215 q 1046 295 1038 258 q 1054 388 1054 332 l 1054 942 q 1085 972 1054 972 l 1236 972 q 1267 942 1267 972 l 1267 367 q 1246 197 1267 267 q 1178 83 1225 126 q 1058 19 1132 39 q 878 0 983 0 l 478 0 q 299 19 372 0 q 178 83 225 39 q 110 197 132 126 q 89 367 89 267 l 89 942 q 121 972 89 972 l 271 972 m 694 1272 q 717 1265 710 1272 q 715 1246 724 1258 l 574 1042 q 556 1022 565 1028 q 531 1015 546 1015 l 425 1015 q 403 1022 410 1015 q 404 1042 397 1029 l 529 1246 q 572 1272 542 1272 l 694 1272 m 1013 1272 q 1034 1265 1026 1272 q 1032 1246 1042 1258 l 890 1042 q 873 1022 882 1028 q 849 1015 864 1015 l 743 1015 q 720 1022 726 1015 q 721 1042 714 1029 l 846 1246 q 889 1272 861 1272 l 1013 1272 z "},"ű":{"ha":1217,"x_min":83,"x_max":1132,"o":"m 83 0 m 251 763 q 282 731 282 763 l 282 329 q 288 256 282 285 q 308 209 293 226 q 351 184 324 192 q 425 176 379 176 l 782 176 q 857 184 828 176 q 903 209 886 192 q 928 256 921 226 q 935 329 935 285 l 935 731 q 965 763 935 763 l 1101 763 q 1132 731 1132 763 l 1132 281 q 1115 152 1132 206 q 1060 65 1099 99 q 958 15 1022 31 q 801 0 894 0 l 414 0 q 256 15 319 0 q 155 65 193 31 q 100 152 117 99 q 83 281 83 206 l 83 731 q 115 763 83 763 l 251 763 m 939 1133 q 961 1125 954 1133 q 960 1101 968 1117 l 817 844 q 799 821 808 829 q 775 813 790 813 l 669 813 q 647 821 653 813 q 647 844 640 829 l 774 1101 q 817 1133 789 1133 l 939 1133 m 622 1133 q 644 1125 638 1133 q 643 1101 651 1117 l 500 844 q 481 821 490 829 q 457 813 472 813 l 351 813 q 330 821 336 813 q 331 844 324 829 l 456 1101 q 473 1125 463 1117 q 500 1133 483 1133 l 622 1133 z "},"Ų":{"ha":1357,"x_min":89,"x_max":1267,"o":"m 690 0 l 478 0 q 299 19 372 0 q 178 83 225 39 q 110 197 132 126 q 89 367 89 267 l 89 942 q 121 972 89 972 l 271 972 q 301 942 301 972 l 301 388 q 310 295 301 332 q 340 237 319 258 q 397 206 361 215 q 486 197 432 197 l 871 197 q 960 206 925 197 q 1017 237 996 215 q 1046 295 1038 258 q 1054 388 1054 332 l 1054 942 q 1085 972 1054 972 l 1236 972 q 1267 942 1267 972 l 1267 367 q 1246 197 1267 267 q 1178 83 1225 126 q 1058 19 1132 39 q 881 0 985 0 l 708 -82 q 651 -119 664 -103 q 639 -165 639 -136 q 654 -216 639 -203 q 714 -229 669 -229 l 831 -229 q 856 -254 856 -229 l 856 -353 q 831 -378 856 -378 l 654 -378 q 567 -369 601 -378 q 513 -342 533 -361 q 483 -290 492 -322 q 475 -208 475 -257 q 479 -149 475 -175 q 494 -103 483 -124 q 525 -69 506 -83 q 575 -44 544 -56 l 690 0 z "},"ų":{"ha":1217,"x_min":83,"x_max":1132,"o":"m 686 0 l 414 0 q 256 15 319 0 q 155 65 193 31 q 100 152 117 99 q 83 281 83 206 l 83 731 q 115 763 83 763 l 251 763 q 282 731 282 763 l 282 329 q 288 256 282 285 q 308 209 293 226 q 351 184 324 192 q 425 176 379 176 l 782 176 q 857 184 828 176 q 903 209 886 192 q 928 256 921 226 q 935 329 935 285 l 935 731 q 965 763 935 763 l 1101 763 q 1132 731 1132 763 l 1132 281 q 1119 164 1132 214 q 1076 81 1106 114 q 999 28 1047 47 q 881 3 951 8 l 704 -82 q 647 -119 660 -103 q 635 -165 635 -136 q 650 -216 635 -203 q 710 -229 665 -229 l 826 -229 q 851 -254 851 -229 l 851 -353 q 826 -378 851 -378 l 650 -378 q 563 -369 597 -378 q 508 -342 529 -361 q 479 -290 488 -322 q 471 -208 471 -257 q 475 -149 471 -175 q 490 -103 479 -124 q 521 -69 501 -83 q 571 -44 540 -56 l 686 0 z "},"Ŵ":{"ha":1810,"x_min":26,"x_max":1782,"o":"m 26 0 m 228 972 q 247 954 242 972 l 472 207 q 483 197 474 197 l 490 197 q 501 207 499 197 l 726 892 q 767 956 742 939 q 829 972 792 972 l 967 972 q 1037 954 1013 972 q 1076 892 1061 936 l 1307 207 q 1318 197 1310 197 l 1326 197 q 1338 207 1335 197 l 1557 954 q 1566 969 1560 965 q 1579 972 1572 972 l 1767 972 q 1780 963 1778 972 q 1778 940 1782 953 l 1511 106 q 1468 22 1492 43 q 1404 0 1444 0 l 1242 0 q 1178 22 1201 0 q 1135 106 1156 44 l 917 765 q 906 775 915 775 l 900 775 q 889 765 890 775 l 668 106 q 624 22 647 44 q 561 0 601 0 l 403 0 q 362 4 379 0 q 331 20 344 8 q 306 53 317 32 q 286 106 296 74 l 31 940 q 28 963 26 954 q 42 972 31 972 l 228 972 m 965 1272 q 1002 1265 989 1272 q 1026 1242 1015 1257 l 1172 1044 q 1176 1024 1182 1032 q 1156 1015 1169 1015 l 1047 1015 q 1004 1040 1019 1015 l 925 1160 q 907 1171 919 1171 l 901 1171 q 883 1160 889 1171 l 803 1040 q 786 1021 796 1026 q 760 1015 776 1015 l 653 1015 q 631 1024 638 1015 q 635 1044 625 1032 l 782 1242 q 806 1265 793 1257 q 842 1272 818 1272 l 965 1272 z "},"ŵ":{"ha":1618,"x_min":21,"x_max":1597,"o":"m 21 0 m 206 763 q 238 740 231 763 l 417 169 q 431 160 421 160 l 436 160 q 450 169 449 160 l 638 696 q 670 748 651 733 q 726 763 689 763 l 892 763 q 948 748 929 763 q 981 696 967 733 l 1167 169 q 1181 160 1168 160 l 1186 160 q 1200 169 1196 160 l 1381 740 q 1413 763 1385 763 l 1569 763 q 1592 753 1588 763 q 1593 729 1597 744 l 1382 86 q 1342 17 1365 33 q 1275 0 1319 0 l 1100 0 q 1044 19 1064 0 q 1007 86 1025 38 l 824 593 q 811 601 821 601 l 803 601 q 790 593 792 601 l 608 86 q 571 19 590 38 q 515 0 551 0 l 340 0 q 273 17 296 0 q 233 86 250 33 l 25 729 q 25 753 21 744 q 49 763 29 763 l 206 763 m 869 1133 q 906 1125 893 1133 q 929 1099 918 1117 l 1076 847 q 1080 822 1086 832 q 1058 813 1074 813 l 951 813 q 925 820 935 813 q 908 843 915 828 l 828 997 q 811 1010 821 1010 l 806 1010 q 788 997 793 1010 l 707 843 q 690 820 700 828 q 664 813 681 813 l 557 813 q 535 822 542 813 q 539 847 529 832 l 686 1099 q 710 1125 697 1117 q 746 1133 722 1133 l 869 1133 z "},"Ŷ":{"ha":1244,"x_min":14,"x_max":1232,"o":"m 14 0 m 219 972 q 253 956 242 972 l 624 454 l 997 956 q 1031 972 1008 972 l 1213 972 q 1228 963 1224 972 q 1225 944 1232 954 l 726 297 l 726 31 q 696 0 726 0 l 546 0 q 514 31 514 0 l 514 297 l 21 944 q 17 963 14 954 q 33 972 21 972 l 219 972 m 685 1272 q 722 1265 708 1272 q 746 1242 735 1257 l 892 1044 q 895 1024 901 1032 q 875 1015 889 1015 l 767 1015 q 724 1040 739 1015 l 644 1160 q 626 1171 639 1171 l 621 1171 q 603 1160 608 1171 l 522 1040 q 506 1021 515 1026 q 479 1015 496 1015 l 372 1015 q 351 1024 357 1015 q 354 1044 344 1032 l 501 1242 q 525 1265 513 1257 q 561 1272 538 1272 l 685 1272 z "},"ŷ":{"ha":1153,"x_min":17,"x_max":1117,"o":"m 17 0 m 1092 763 q 1112 752 1107 763 q 1110 728 1117 742 l 576 -212 q 498 -284 549 -261 q 357 -307 447 -307 l 260 -307 q 235 -282 235 -307 l 235 -168 q 260 -143 235 -143 l 342 -143 q 413 -111 394 -143 l 488 21 q 434 38 453 24 q 399 81 415 51 l 24 728 q 22 752 17 742 q 42 763 26 763 l 201 763 q 235 743 225 763 l 543 208 q 560 183 554 189 q 576 176 567 176 l 903 743 q 936 763 913 763 l 1092 763 m 639 1133 q 675 1125 663 1133 q 699 1099 688 1117 l 846 847 q 849 822 856 832 q 828 813 843 813 l 721 813 q 694 820 704 813 q 678 843 685 828 l 597 997 q 581 1010 590 1010 l 575 1010 q 557 997 563 1010 l 476 843 q 460 820 469 828 q 433 813 450 813 l 326 813 q 305 822 311 813 q 308 847 299 832 l 456 1099 q 479 1125 467 1117 q 515 1133 492 1133 l 639 1133 z "},"Ÿ":{"ha":1244,"x_min":14,"x_max":1232,"o":"m 14 0 m 219 972 q 253 956 242 972 l 624 454 l 997 956 q 1031 972 1008 972 l 1213 972 q 1228 963 1224 972 q 1225 944 1232 954 l 726 297 l 726 31 q 696 0 726 0 l 546 0 q 514 31 514 0 l 514 297 l 21 944 q 17 963 14 954 q 33 972 21 972 l 219 972 m 496 1229 q 526 1204 526 1229 l 526 1072 q 496 1047 526 1047 l 360 1047 q 329 1072 329 1047 l 329 1204 q 360 1229 329 1229 l 496 1229 m 883 1229 q 915 1204 915 1229 l 915 1072 q 883 1047 915 1047 l 747 1047 q 717 1072 717 1047 l 717 1204 q 747 1229 717 1229 l 883 1229 z "},"Ź":{"ha":1186,"x_min":67,"x_max":1115,"o":"m 67 0 m 1006 972 q 1115 867 1115 972 l 1115 740 q 1112 698 1115 715 q 1101 667 1108 681 q 1080 644 1093 654 q 1046 624 1067 635 l 311 236 q 299 215 299 229 l 299 206 q 313 193 299 193 l 1075 193 q 1107 163 1107 193 l 1107 31 q 1075 0 1107 0 l 176 0 q 92 26 118 0 q 67 104 67 51 l 67 231 q 69 273 67 256 q 79 303 72 290 q 99 326 86 317 q 132 347 111 336 l 864 736 q 876 757 876 743 l 876 767 q 863 779 876 779 l 107 779 q 75 810 75 779 l 75 942 q 107 972 75 972 l 1006 972 m 768 1272 q 790 1265 783 1272 q 788 1246 797 1258 l 646 1042 q 628 1022 638 1028 q 604 1015 619 1015 l 499 1015 q 476 1022 483 1015 q 478 1042 469 1029 l 601 1246 q 644 1272 617 1272 l 768 1272 z "},"ź":{"ha":1018,"x_min":61,"x_max":957,"o":"m 61 0 m 861 763 q 934 741 911 763 q 957 675 957 719 l 957 572 q 954 535 957 550 q 944 510 951 521 q 925 490 938 499 q 894 474 913 482 l 278 203 q 269 195 271 200 q 267 183 267 190 l 267 174 q 279 164 267 164 l 925 164 q 950 139 950 164 l 950 25 q 925 0 950 0 l 157 0 q 84 21 107 0 q 61 86 61 42 l 61 189 q 74 252 61 232 q 124 289 86 272 l 740 560 q 751 578 751 564 l 751 588 q 739 599 751 599 l 93 599 q 68 624 68 599 l 68 738 q 93 763 68 763 l 861 763 m 683 1133 q 706 1125 699 1133 q 704 1101 713 1117 l 561 844 q 544 821 553 829 q 519 813 535 813 l 414 813 q 392 821 399 813 q 392 844 385 829 l 518 1101 q 561 1133 533 1133 l 683 1133 z "},"Ż":{"ha":1186,"x_min":67,"x_max":1115,"o":"m 67 0 m 1006 972 q 1115 867 1115 972 l 1115 740 q 1112 698 1115 715 q 1101 667 1108 681 q 1080 644 1093 654 q 1046 624 1067 635 l 311 236 q 299 215 299 229 l 299 206 q 313 193 299 193 l 1075 193 q 1107 163 1107 193 l 1107 31 q 1075 0 1107 0 l 176 0 q 92 26 118 0 q 67 104 67 51 l 67 231 q 69 273 67 256 q 79 303 72 290 q 99 326 86 317 q 132 347 111 336 l 864 736 q 876 757 876 743 l 876 767 q 863 779 876 779 l 107 779 q 75 810 75 779 l 75 942 q 107 972 75 972 l 1006 972 m 660 1229 q 690 1204 690 1229 l 690 1072 q 660 1047 690 1047 l 524 1047 q 493 1072 493 1047 l 493 1204 q 524 1229 493 1229 l 660 1229 z "},"ż":{"ha":1018,"x_min":61,"x_max":957,"o":"m 61 0 m 861 763 q 934 741 911 763 q 957 675 957 719 l 957 572 q 954 535 957 550 q 944 510 951 521 q 925 490 938 499 q 894 474 913 482 l 278 203 q 269 195 271 200 q 267 183 267 190 l 267 174 q 279 164 267 164 l 925 164 q 950 139 950 164 l 950 25 q 925 0 950 0 l 157 0 q 84 21 107 0 q 61 86 61 42 l 61 189 q 74 252 61 232 q 124 289 86 272 l 740 560 q 751 578 751 564 l 751 588 q 739 599 751 599 l 93 599 q 68 624 68 599 l 68 738 q 93 763 68 763 l 861 763 m 579 1044 q 610 1014 610 1044 l 610 882 q 579 850 610 850 l 443 850 q 411 882 411 850 l 411 1014 q 443 1044 411 1044 l 579 1044 z "},"Ž":{"ha":1186,"x_min":67,"x_max":1115,"o":"m 67 0 m 1006 972 q 1115 867 1115 972 l 1115 740 q 1112 698 1115 715 q 1101 667 1108 681 q 1080 644 1093 654 q 1046 624 1067 635 l 311 236 q 299 215 299 229 l 299 206 q 313 193 299 193 l 1075 193 q 1107 163 1107 193 l 1107 31 q 1075 0 1107 0 l 176 0 q 92 26 118 0 q 67 104 67 51 l 67 231 q 69 273 67 256 q 79 303 72 290 q 99 326 86 317 q 132 347 111 336 l 864 736 q 876 757 876 743 l 876 767 q 863 779 876 779 l 107 779 q 75 810 75 779 l 75 942 q 107 972 75 972 l 1006 972 m 447 1272 q 474 1266 464 1272 q 490 1247 483 1260 l 571 1126 q 589 1115 578 1115 l 594 1115 q 613 1126 606 1115 l 692 1247 q 710 1266 700 1260 q 735 1272 719 1272 l 843 1272 q 863 1264 857 1272 q 860 1243 869 1256 l 714 1044 q 690 1022 703 1029 q 653 1015 676 1015 l 529 1015 q 493 1022 506 1015 q 469 1044 481 1029 l 322 1243 q 319 1264 313 1256 q 340 1272 325 1272 l 447 1272 z "},"ž":{"ha":1018,"x_min":61,"x_max":957,"o":"m 61 0 m 861 763 q 934 741 911 763 q 957 675 957 719 l 957 572 q 954 535 957 550 q 944 510 951 521 q 925 490 938 499 q 894 474 913 482 l 278 203 q 269 195 271 200 q 267 183 267 190 l 267 174 q 279 164 267 164 l 925 164 q 950 139 950 164 l 950 25 q 925 0 950 0 l 157 0 q 84 21 107 0 q 61 86 61 42 l 61 189 q 74 252 61 232 q 124 289 86 272 l 740 560 q 751 578 751 564 l 751 588 q 739 599 751 599 l 93 599 q 68 624 68 599 l 68 738 q 93 763 68 763 l 861 763 m 364 1133 q 390 1126 381 1133 q 407 1101 400 1118 l 488 949 q 506 936 493 936 l 511 936 q 528 949 521 936 l 608 1101 q 625 1126 615 1118 q 651 1133 635 1133 l 758 1133 q 780 1124 774 1133 q 776 1099 786 1114 l 629 847 q 606 821 618 829 q 569 813 593 813 l 446 813 q 410 821 422 813 q 386 847 397 829 l 239 1099 q 235 1124 229 1114 q 257 1133 242 1133 l 364 1133 z "},"ƀ":{"ha":1210,"x_min":7,"x_max":1133,"o":"m 83 1019 q 115 1042 88 1042 l 251 1042 q 281 1019 276 1042 l 690 1019 q 721 989 721 1019 l 721 908 q 690 878 721 878 l 282 878 l 282 763 l 803 763 q 960 747 896 763 q 1062 697 1024 731 q 1117 609 1100 663 q 1133 481 1133 556 l 1133 281 q 1117 152 1133 206 q 1062 65 1100 99 q 960 15 1024 31 q 803 0 896 0 l 414 0 q 256 15 319 0 q 155 65 193 31 q 100 152 117 99 q 83 281 83 206 l 83 878 l 39 878 q 7 908 7 878 l 7 989 q 39 1019 7 1019 l 83 1019 m 282 596 l 282 319 q 289 246 282 275 q 313 199 296 217 q 360 174 331 182 q 433 167 389 167 l 783 167 q 858 174 829 167 q 905 199 888 182 q 929 246 922 217 q 936 319 936 275 l 936 443 q 929 516 936 486 q 905 563 922 546 q 858 588 888 581 q 783 596 829 596 l 282 596 z "},"Ɓ":{"ha":1636,"x_min":25,"x_max":1564,"o":"m 1293 972 q 1497 915 1436 972 q 1557 743 1557 858 l 1557 676 q 1468 500 1557 560 q 1564 321 1564 444 l 1564 240 q 1551 140 1564 185 q 1510 65 1539 96 q 1435 17 1482 33 q 1318 0 1388 0 l 493 0 q 451 42 451 0 l 451 808 l 313 808 q 244 786 264 808 q 224 719 224 764 l 224 535 q 193 504 224 504 l 57 504 q 25 535 25 504 l 25 719 q 38 834 25 786 q 79 913 50 882 q 157 958 108 943 q 278 972 206 972 l 1293 972 m 664 417 l 664 210 q 682 192 664 192 l 1251 192 q 1331 212 1307 192 q 1354 276 1354 232 l 1354 329 q 1328 394 1354 372 q 1233 417 1303 417 l 664 417 m 664 568 l 1233 568 q 1328 589 1303 568 q 1353 650 1353 610 l 1353 697 q 1328 760 1353 740 q 1250 781 1304 781 l 682 781 q 664 763 664 781 l 664 568 z "},"Ƈ":{"ha":1382,"x_min":81,"x_max":1382,"o":"m 935 972 q 1013 1053 958 1028 q 1165 1079 1068 1079 l 1357 1079 q 1382 1054 1382 1079 l 1382 940 q 1357 915 1382 915 l 1199 915 q 1130 893 1150 915 q 1110 826 1110 871 l 1110 676 q 1079 646 1110 646 l 943 646 q 913 676 913 646 l 913 774 l 478 774 q 388 765 424 774 q 332 734 353 756 q 302 676 311 713 q 293 585 293 640 l 293 388 q 302 295 293 332 q 332 237 311 258 q 388 206 353 215 q 478 197 424 197 l 1096 197 q 1126 167 1126 197 l 1126 31 q 1096 0 1126 0 l 469 0 q 290 19 364 0 q 170 83 217 39 q 102 197 124 126 q 81 367 81 267 l 81 606 q 102 775 81 706 q 170 888 124 844 q 290 952 217 932 q 469 972 364 972 l 935 972 z "},"ƈ":{"ha":1240,"x_min":54,"x_max":1240,"o":"m 776 763 q 802 836 785 806 q 849 887 819 867 q 921 917 878 907 q 1024 926 964 926 l 1215 926 q 1240 901 1240 926 l 1240 788 q 1215 763 1240 763 l 1057 763 q 988 740 1008 763 q 968 674 968 718 l 968 538 q 938 507 968 507 l 801 507 q 771 538 771 507 l 771 596 l 404 596 q 329 588 358 596 q 283 563 300 581 q 260 516 267 546 q 253 443 253 486 l 253 319 q 260 246 253 275 q 283 199 267 217 q 329 174 300 182 q 404 167 358 167 l 943 167 q 968 142 968 167 l 968 25 q 943 0 968 0 l 385 0 q 227 15 290 0 q 126 65 164 31 q 71 152 88 99 q 54 281 54 206 l 54 481 q 71 609 54 556 q 126 697 88 663 q 227 747 164 731 q 385 763 290 763 l 776 763 z "},"Ɗ":{"ha":1650,"x_min":25,"x_max":1568,"o":"m 1143 972 q 1336 949 1256 972 q 1468 878 1417 926 q 1544 756 1519 831 q 1568 581 1568 682 l 1568 392 q 1544 216 1568 290 q 1468 94 1519 142 q 1336 23 1417 46 q 1143 0 1256 0 l 493 0 q 451 42 451 0 l 451 808 l 313 808 q 244 786 264 808 q 224 719 224 764 l 224 535 q 193 504 224 504 l 57 504 q 25 535 25 504 l 25 719 q 38 834 25 786 q 79 913 50 882 q 157 958 108 943 q 278 972 206 972 l 1143 972 m 664 211 q 682 193 664 193 l 1138 193 q 1240 204 1199 193 q 1308 240 1282 215 q 1344 307 1333 265 q 1356 410 1356 349 l 1356 563 q 1344 665 1356 624 q 1308 732 1333 707 q 1240 768 1282 757 q 1138 779 1199 779 l 682 779 q 664 760 664 779 l 664 211 z "},"Ǝ":{"ha":1181,"x_min":67,"x_max":1099,"o":"m 99 0 q 67 31 67 0 l 67 163 q 99 193 67 193 l 706 193 q 795 202 760 193 q 852 233 831 211 q 882 291 874 254 q 890 382 890 328 l 890 396 l 106 396 q 75 426 75 396 l 75 536 q 106 567 75 567 l 890 567 l 890 590 q 882 681 890 644 q 852 740 874 718 q 795 770 831 761 q 706 779 760 779 l 99 779 q 67 810 67 779 l 67 942 q 99 972 67 972 l 710 972 q 889 952 815 972 q 1009 888 963 932 q 1077 775 1056 844 q 1099 606 1099 706 l 1099 367 q 1077 197 1099 267 q 1009 83 1056 126 q 889 19 963 39 q 710 0 815 0 l 99 0 z "},"Ə":{"ha":1329,"x_min":75,"x_max":1247,"o":"m 858 972 q 1038 952 964 972 q 1159 888 1113 932 q 1226 775 1206 844 q 1247 606 1247 706 l 1247 367 q 1226 197 1247 267 q 1159 83 1206 126 q 1038 19 1113 39 q 858 0 964 0 l 340 0 q 219 17 269 0 q 136 67 168 35 q 90 144 104 99 q 75 244 75 189 l 75 346 q 132 524 75 458 q 326 590 189 590 l 1035 590 q 1026 678 1035 643 q 995 735 1017 714 q 939 765 974 756 q 851 774 904 774 l 144 774 q 114 806 114 774 l 114 942 q 144 972 114 972 l 858 972 m 851 193 q 941 202 906 193 q 997 233 976 211 q 1026 291 1018 254 q 1035 382 1035 328 l 1035 438 l 376 438 q 308 414 328 438 q 288 346 288 390 l 288 285 q 310 217 288 242 q 381 193 332 193 l 851 193 z "},"ƒ":{"ha":922,"x_min":54,"x_max":869,"o":"m 832 972 q 857 947 857 972 l 857 833 q 832 808 857 808 l 649 808 q 556 781 581 808 q 532 696 532 754 l 532 549 l 844 549 q 869 524 869 549 l 869 461 q 844 436 869 436 l 532 436 l 532 -31 q 519 -157 532 -104 q 475 -243 507 -210 q 390 -292 443 -276 q 253 -307 336 -307 l 83 -307 q 58 -282 58 -307 l 58 -168 q 83 -143 58 -143 l 211 -143 q 303 -116 279 -143 q 328 -31 328 -89 l 328 436 l 79 436 q 54 461 54 436 l 54 524 q 79 549 54 549 l 328 549 l 328 696 q 340 822 328 769 q 385 907 353 874 q 471 956 417 940 q 608 972 525 972 l 832 972 z "},"Ɣ":{"ha":1354,"x_min":19,"x_max":1335,"o":"m 229 972 q 253 967 246 972 q 265 956 260 963 l 676 382 l 1089 956 q 1101 967 1094 963 q 1125 972 1108 972 l 1313 972 q 1332 961 1329 972 q 1328 940 1335 950 l 789 225 l 926 35 q 953 -3 943 14 q 970 -39 964 -21 q 978 -77 976 -57 q 981 -126 981 -97 l 981 -260 q 968 -314 981 -292 q 935 -351 956 -336 q 885 -372 914 -365 q 825 -378 857 -378 l 529 -378 q 469 -372 497 -378 q 419 -351 440 -365 q 386 -314 399 -336 q 374 -260 374 -292 l 374 -126 q 376 -77 374 -97 q 384 -39 378 -57 q 400 -3 390 -21 q 426 35 410 14 l 564 226 l 26 940 q 22 961 19 950 q 42 972 25 972 l 229 972 m 676 76 l 574 -60 q 553 -97 558 -81 q 549 -140 549 -114 l 549 -178 q 559 -219 549 -210 q 600 -228 569 -228 l 754 -228 q 795 -219 785 -228 q 806 -178 806 -210 l 806 -140 q 801 -97 806 -114 q 781 -60 796 -81 l 676 76 z "},"Ƙ":{"ha":1351,"x_min":92,"x_max":1351,"o":"m 854 590 q 810 536 831 558 q 771 497 790 514 q 876 397 825 464 l 1161 36 q 1165 15 1167 29 q 1143 0 1164 0 l 965 0 q 940 4 947 0 q 926 18 933 8 l 671 349 q 611 398 643 385 q 515 411 579 411 l 304 411 l 304 31 q 274 0 304 0 l 124 0 q 92 31 92 0 l 92 942 q 124 972 92 972 l 274 972 q 304 942 304 972 l 304 572 l 500 572 q 556 574 533 572 q 594 583 578 576 q 625 603 611 590 q 654 635 639 615 l 803 833 q 906 959 861 913 q 1001 1030 951 1006 q 1116 1061 1051 1054 q 1281 1068 1181 1068 l 1326 1068 q 1351 1043 1351 1068 l 1351 929 q 1326 904 1351 904 l 1281 904 q 1178 899 1218 904 q 1107 877 1139 894 q 1044 828 1075 860 q 972 742 1014 796 l 854 590 z "}}}
